<svg width="24" height="24" viewBox="0 0 24 24" fill="none" xmlns="http://www.w3.org/2000/svg">
<path opacity="0.4" d="M20.391 17.688C20.372 17.665 18.495 15.282 18.495 12.5V8.995C18.495 5.414 15.581 2.5 12 2.5C8.41901 2.5 5.50502 5.414 5.50502 8.995V12.5C5.50502 15.281 3.62902 17.664 3.60902 17.688C3.48902 17.838 3.46602 18.044 3.54902 18.217C3.63202 18.39 3.807 18.5 3.999 18.5H19.999C20.191 18.5 20.366 18.39 20.449 18.217C20.534 18.043 20.51 17.838 20.391 17.688Z" fill="#25314C"/>
<path d="M3.00101 8.75C2.97601 8.75 2.95099 8.749 2.92499 8.746C2.51299 8.705 2.212 8.337 2.254 7.925C2.456 5.902 3.27402 4.02701 4.61802 2.50301C4.89102 2.19201 5.36601 2.162 5.67701 2.437C5.98801 2.711 6.01702 3.185 5.74302 3.496C4.60802 4.782 3.91701 6.36501 3.74601 8.07401C3.70801 8.46101 3.38101 8.75 3.00101 8.75Z" fill="#25314C"/>
<path d="M20.999 8.75C20.619 8.75 20.292 8.461 20.254 8.075C20.083 6.366 19.393 4.783 18.257 3.497C17.983 3.186 18.013 2.71201 18.323 2.43801C18.634 2.16301 19.108 2.194 19.382 2.504C20.726 4.027 21.544 5.902 21.746 7.926C21.788 8.338 21.487 8.706 21.075 8.747C21.049 8.749 21.024 8.75 20.999 8.75Z" fill="#25314C"/>
<path d="M14.164 19.751C14.075 19.596 13.91 19.5 13.73 19.5H10.27C10.091 19.5 9.926 19.596 9.836 19.751C9.746 19.906 9.74802 20.098 9.83802 20.252C10.294 21.033 11.102 21.5 12 21.5C12.898 21.5 13.706 21.033 14.162 20.252C14.252 20.098 14.253 19.906 14.164 19.751Z" fill="#25314C"/>
</svg>
