<svg width="32" height="32" viewBox="0 0 32 32" fill="none" xmlns="http://www.w3.org/2000/svg">
<path d="M16.16 14.87C16.06 14.86 15.94 14.86 15.83 14.87C13.45 14.79 11.56 12.84 11.56 10.44C11.56 7.99 13.54 6 16 6C18.45 6 20.44 7.99 20.44 10.44C20.43 12.84 18.54 14.79 16.16 14.87Z" stroke="#25314C" stroke-width="1.5" stroke-linecap="round" stroke-linejoin="round"/>
<path d="M11.16 18.56C8.73997 20.18 8.73997 22.82 11.16 24.43C13.91 26.27 18.42 26.27 21.17 24.43C23.59 22.81 23.59 20.17 21.17 18.56C18.43 16.73 13.92 16.73 11.16 18.56Z" stroke="#25314C" stroke-width="1.5" stroke-linecap="round" stroke-linejoin="round"/>
</svg>
