<svg width="24" height="24" viewBox="0 0 24 24" fill="none" xmlns="http://www.w3.org/2000/svg">
<path fill-rule="evenodd" clip-rule="evenodd" d="M20.2379 10.6162V11.6029C20.2379 12.8291 19.2438 13.8232 18.0176 13.8232C16.7913 13.8232 15.7972 12.8291 15.7972 11.6029V10.6162L17.3412 11.3024C17.7718 11.4938 18.2633 11.4938 18.6939 11.3024L20.2379 10.6162ZM14.4095 9.99939V12.4356C14.4095 12.6655 14.2231 12.8519 13.9932 12.8519C13.7633 12.8519 13.5769 12.6655 13.5769 12.4356V9.62879C13.5819 9.6314 13.5871 9.63389 13.5924 9.63625L14.4095 9.99939Z" fill="#25314C"/>
<path opacity="0.4" d="M22.4427 9.12911L18.6939 7.46297C18.2633 7.2716 17.7718 7.2716 17.3413 7.46297L13.5924 9.12911C13.3727 9.22678 13.3727 9.53868 13.5924 9.63635L17.3413 11.3025C17.7718 11.4939 18.2633 11.4939 18.6939 11.3025L22.4427 9.63635C22.6625 9.53868 22.6625 9.22678 22.4427 9.12911Z" fill="#25314C"/>
<path opacity="0.4" fill-rule="evenodd" clip-rule="evenodd" d="M16.3168 18.264H21.3481C21.9613 18.264 22.4583 17.767 22.4583 17.1539C22.4583 15.9509 21.3721 14.9163 19.815 14.4584C19.6291 14.4038 19.4303 14.4625 19.2941 14.6002L18.4123 15.4919C18.195 15.7116 17.8402 15.7116 17.6229 15.4919L16.7412 14.6002C16.6049 14.4625 16.4061 14.4038 16.2202 14.4584C15.6748 14.6189 15.1871 14.85 14.7836 15.1344C15.7448 16.014 16.3129 17.0951 16.3168 18.264Z" fill="#25314C"/>
<path opacity="0.4" fill-rule="evenodd" clip-rule="evenodd" d="M11.7818 8.30875V9.81417C11.7818 11.6849 10.2653 13.2014 8.39458 13.2014C6.52387 13.2014 5.00736 11.6849 5.00736 9.81417V8.30875L7.36282 9.35562C8.01968 9.64756 8.76947 9.64756 9.42634 9.35562L11.7818 8.30875ZM2.89035 7.36785V11.0844C2.89035 11.4351 2.606 11.7195 2.25524 11.7195C1.90448 11.7195 1.62014 11.4351 1.62014 11.0844V6.80249C1.62786 6.80647 1.63577 6.81026 1.64388 6.81387L2.89035 7.36785Z" fill="#25314C"/>
<path d="M15.1453 6.04004L9.42635 3.49829C8.76949 3.20635 8.01969 3.20635 7.36283 3.49829L1.64389 6.04004C1.30863 6.18905 1.30863 6.66486 1.64389 6.81386L7.36283 9.35561C8.01969 9.64755 8.76949 9.64755 9.42635 9.35561L15.1453 6.81386C15.4805 6.66486 15.4805 6.18905 15.1453 6.04004Z" fill="#25314C"/>
<path d="M6.44735 14.3866L7.79253 15.7468C8.12397 16.082 8.66528 16.082 8.99673 15.7468L10.3419 14.3866C10.5497 14.1765 10.8531 14.0869 11.1366 14.1703C13.512 14.8688 15.1691 16.4471 15.1691 18.2823C15.1691 19.2176 14.4108 19.9759 13.4755 19.9759H3.3138C2.37844 19.9759 1.62018 19.2176 1.62018 18.2823C1.62018 16.4471 3.27727 14.8688 5.65267 14.1703C5.93619 14.0869 6.23955 14.1765 6.44735 14.3866Z" fill="#25314C"/>
</svg>
