<svg width="24" height="24" viewBox="0 0 24 24" fill="none" xmlns="http://www.w3.org/2000/svg">
<path opacity="0.4" d="M21 6V11.2C21 11.4 20.9 11.5 20.7 11.5H12.8C12.6 11.5 12.5 11.4 12.5 11.2V3.3C12.5 3.1 12.6 3 12.8 3H18C20 3 21 4 21 6ZM6 3C4 3 3 4 3 6V11.2C3 11.4 3.1 11.5 3.3 11.5H11.2C11.4 11.5 11.5 11.4 11.5 11.2V3.3C11.5 3.1 11.4 3 11.2 3H6ZM3 12.8V18C3 20 4 21 6 21H11.2C11.4 21 11.5 20.9 11.5 20.7V12.8C11.5 12.6 11.4 12.5 11.2 12.5H3.3C3.1 12.5 3 12.6 3 12.8Z" fill="white"/>
<path d="M12.5 12.8V20.7C12.5 20.9 12.6 21 12.8 21H18C20 21 21 20 21 18V12.8C21 12.6 20.9 12.5 20.7 12.5H12.8C12.6 12.5 12.5 12.6 12.5 12.8ZM18 18.5H15C14.6 18.5 14.2 18.2 14.2 17.7C14.2 17.2 14.6 17 15 17H18C18.4 17 18.8 17.3 18.8 17.8C18.8 18.3 18.4 18.5 18 18.5ZM18 16H15C14.6 16 14.2 15.7 14.2 15.2C14.2 14.7 14.5 14.4 15 14.4H18C18.4 14.4 18.8 14.7 18.8 15.2C18.8 15.7 18.4 16 18 16Z" fill="white"/>
<path d="M9 8.19995H6C5.6 8.19995 5.2 7.89995 5.2 7.39995C5.2 6.89995 5.6 6.79995 6 6.79995H9C9.4 6.79995 9.8 7.09995 9.8 7.59995C9.8 8.09995 9.4 8.19995 9 8.19995ZM18 6.79995H17.2V5.99995C17.2 5.59995 16.9 5.19995 16.4 5.19995C15.9 5.19995 15.8 5.59995 15.8 5.99995V6.79995H15C14.6 6.79995 14.2 7.09995 14.2 7.59995C14.2 8.09995 14.5 8.39995 15 8.39995H15.8V8.99995C15.8 9.39995 16.1 9.79995 16.6 9.79995C17.1 9.79995 17.4 9.49995 17.4 8.99995V8.19995H18C18.4 8.19995 18.8 7.89995 18.8 7.39995C18.8 6.89995 18.4 6.79995 18 6.79995ZM8.6 16.5L9.3 15.8C9.6 15.5 9.6 15 9.3 14.7C9 14.4 8.5 14.4 8.2 14.7L7.5 15.4L6.8 14.7C6.5 14.4 6 14.4 5.7 14.7C5.4 15 5.4 15.5 5.7 15.8L6.4 16.5L5.7 17.2C5.4 17.5 5.4 18 5.7 18.3C5.8 18.4 6 18.5 6.2 18.5C6.4 18.5 6.6 18.4 6.7 18.3L7.4 17.6L8.1 18.3C8.2 18.4 8.4 18.5 8.6 18.5C8.8 18.5 9 18.4 9.1 18.3C9.4 18 9.4 17.5 9.1 17.2L8.6 16.5Z" fill="white"/>
<path opacity="0.4" d="M18 16H15C14.6 16 14.2 15.7 14.2 15.2C14.2 14.7 14.5 14.4 15 14.4H18C18.4 14.4 18.8 14.7 18.8 15.2C18.8 15.7 18.4 16 18 16ZM18.8 17.8C18.8 17.4 18.5 17 18 17H15C14.6 17 14.2 17.3 14.2 17.8C14.2 18.3 14.5 18.6 15 18.6H18C18.4 18.5 18.8 18.2 18.8 17.8Z" fill="white"/>
</svg>
