<svg width="24" height="24" viewBox="0 0 24 24" fill="none" xmlns="http://www.w3.org/2000/svg">
<path opacity="0.4" d="M3.00197 11.999C3.00197 13.339 3.30205 14.619 3.83205 15.759C4.04205 16.199 4.04211 16.709 3.89211 17.179L3.05202 19.679C2.79202 20.459 3.54204 21.209 4.32204 20.949L6.82204 20.109C7.29204 19.959 7.80196 19.959 8.24196 20.169C9.38196 20.699 10.662 20.999 12.002 20.999C16.972 20.999 21.001 16.97 21.001 12C21.001 7.03 16.972 3.00098 12.002 3.00098C7.03097 2.99998 3.00197 7.02902 3.00197 11.999Z" fill="white"/>
<path d="M11.9971 13.612C11.9151 13.612 11.833 13.599 11.752 13.57C11.367 13.433 11.1581 13.024 11.2891 12.636C11.4921 12.035 12.0859 11.587 12.5149 11.303C13.1509 10.881 13.1579 10.452 13.1079 10.166C13.0299 9.725 12.6529 9.348 12.2109 9.27C11.8749 9.21 11.5381 9.29596 11.2781 9.51396C11.0221 9.72896 10.876 10.043 10.876 10.376C10.876 10.79 10.54 11.126 10.126 11.126C9.71198 11.126 9.37598 10.79 9.37598 10.376C9.37598 9.59796 9.71796 8.86597 10.314 8.36497C10.91 7.86497 11.6939 7.65598 12.4709 7.79198C13.5299 7.97798 14.399 8.84699 14.585 9.90599C14.77 10.958 14.3299 11.898 13.3459 12.552C12.7899 12.921 12.7139 13.109 12.7109 13.116C12.5969 13.418 12.3051 13.612 11.9971 13.612ZM13.02 15.5C13.02 14.948 12.573 14.5 12.02 14.5H12.01C11.458 14.5 11.0149 14.948 11.0149 15.5C11.0149 16.052 11.468 16.5 12.02 16.5C12.572 16.5 13.02 16.052 13.02 15.5Z" fill="white"/>
</svg>
