<svg width="24" height="24" viewBox="0 0 24 24" fill="none" xmlns="http://www.w3.org/2000/svg">
<path opacity="0.4" d="M20 10.05V12C20 14.21 16.42 16 12 16C7.58 16 4 14.21 4 12V10.05C5.66 11.55 8.56 12.5 12 12.5C15.44 12.5 18.35 11.55 20 10.05ZM12 17.5C8.56 17.5 5.66 16.55 4 15.05V17C4 19.21 7.58 21 12 21C16.42 21 20 19.21 20 17V15.05C18.35 16.55 15.44 17.5 12 17.5Z" fill="#ffffff"/>
<path d="M12 11C16.4183 11 20 9.20914 20 7C20 4.79086 16.4183 3 12 3C7.58172 3 4 4.79086 4 7C4 9.20914 7.58172 11 12 11Z" fill="#ffffff"/>
</svg>
