<svg width="24" height="24" viewBox="0 0 24 24" fill="none" xmlns="http://www.w3.org/2000/svg">
<path opacity="0.4" d="M20.92 11.279C20.607 10.924 20.017 10.5 18.991 10.5C18.95 10.5 18.909 10.505 18.87 10.515C18.84 10.522 15.88 11.25 11.996 11.25C8.11201 11.25 5.152 10.522 5.122 10.515C5.082 10.505 5.04201 10.5 5.00101 10.5C3.97501 10.5 3.38501 10.924 3.07201 11.279C2.61701 11.794 2.42201 12.515 2.52201 13.31L2.91201 16.434C3.15501 18.382 4.42101 19.5 6.38401 19.5H17.61C19.573 19.5 20.839 18.383 21.082 16.434L21.472 13.31C21.569 12.515 21.374 11.794 20.92 11.279Z" fill="white"/>
<path d="M20.08 10.7C19.79 10.58 19.44 10.5 19 10.5C18.95 10.5 18.91 10.51 18.87 10.51C18.87 10.51 18.76 10.54 18.56 10.58L18.18 7.60999C17.95 6.21999 17.87 5.75 15.96 5.75H8.03999C6.12999 5.75 6.05001 6.22 5.82001 7.63L5.44 10.58C5.24 10.54 5.13 10.51 5.13 10.51C5.09 10.51 5.05 10.5 5 10.5C4.56 10.5 4.21 10.58 3.92 10.7L4.34 7.41C4.58 5.92 4.85999 4.25 8.03999 4.25H15.96C19.14 4.25 19.42 5.92001 19.66 7.39001L20.08 10.7Z" fill="white"/>
<path opacity="0.4" d="M13.5 3.75H10.5C10.086 3.75 9.75 3.414 9.75 3C9.75 2.586 10.086 2.25 10.5 2.25H13.5C13.914 2.25 14.25 2.586 14.25 3C14.25 3.414 13.914 3.75 13.5 3.75Z" fill="white"/>
<path d="M19.25 19.17V20.25C19.25 20.66 18.91 21 18.5 21C18.09 21 17.75 20.66 17.75 20.25V19.5C18.31 19.48 18.81 19.37 19.25 19.17Z" fill="white"/>
<path d="M6.25 19.5V20.25C6.25 20.66 5.91 21 5.5 21C5.09 21 4.75 20.66 4.75 20.25V19.18C5.19 19.38 5.69 19.48 6.25 19.5Z" fill="white"/>
<path opacity="0.4" d="M21 9.75H19.11C18.696 9.75 18.36 9.414 18.36 9C18.36 8.586 18.696 8.25 19.11 8.25H21C21.414 8.25 21.75 8.586 21.75 9C21.75 9.414 21.414 9.75 21 9.75Z" fill="white"/>
<path d="M16.75 15.75H15.25C14.836 15.75 14.5 15.414 14.5 15C14.5 14.586 14.836 14.25 15.25 14.25H16.75C17.164 14.25 17.5 14.586 17.5 15C17.5 15.414 17.164 15.75 16.75 15.75Z" fill="white"/>
<path d="M8.75 15.75H7.25C6.836 15.75 6.5 15.414 6.5 15C6.5 14.586 6.836 14.25 7.25 14.25H8.75C9.164 14.25 9.5 14.586 9.5 15C9.5 15.414 9.164 15.75 8.75 15.75Z" fill="white"/>
<path opacity="0.4" d="M4.89 9.75H3C2.586 9.75 2.25 9.414 2.25 9C2.25 8.586 2.586 8.25 3 8.25H4.89C5.304 8.25 5.64 8.586 5.64 9C5.64 9.414 5.304 9.75 4.89 9.75Z" fill="white"/>
</svg>
