<svg width="24" height="24" viewBox="0 0 24 24" fill="none" xmlns="http://www.w3.org/2000/svg">
<path opacity="0.4" d="M7.64999 11.9801V19.4601L4.45001 21.0702C3.78001 21.4002 3 20.92 3 20.17V11.7501C3 11.0701 3.37999 10.45 3.98999 10.15L6.67001 8.80014C6.66001 8.87014 6.66 8.93009 6.66 9.00009C6.66 10.1401 7.04999 11.1301 7.64999 11.9801ZM11.99 15.67C11.16 15.11 10.1 14.4402 9.14999 13.6002V19.3702L14.85 21.5101V13.5902C13.89 14.4302 12.82 15.11 11.99 15.67ZM19.55 8.67001L17.25 9.82016C17.12 10.6102 16.8 11.3301 16.35 11.9601V21.42L20.01 19.5802C20.62 19.2702 21 18.6501 21 17.9701V9.56015C21 8.67015 20.22 8.34001 19.55 8.67001Z" fill="white"/>
<path d="M11.99 3.66992C9.04999 3.66992 6.66 6.05 6.66 9C6.66 12.33 9.98999 14.3299 11.99 15.6699C13.99 14.3299 17.33 12.33 17.33 9C17.33 6.05 14.94 3.66992 11.99 3.66992ZM11.99 10.6699C11.07 10.6699 10.33 9.92 10.33 9C10.33 8.08 11.07 7.33008 11.99 7.33008C12.91 7.33008 13.66 8.08 13.66 9C13.66 9.92 12.91 10.6699 11.99 10.6699Z" fill="white"/>
<path opacity="0.4" d="M13.66 9C13.66 9.92 12.91 10.6699 11.99 10.6699C11.07 10.6699 10.33 9.92 10.33 9C10.33 8.08 11.07 7.33008 11.99 7.33008C12.91 7.33008 13.66 8.08 13.66 9Z" fill="white"/>
</svg>
