<svg width="24" height="24" viewBox="0 0 24 24" fill="none" xmlns="http://www.w3.org/2000/svg">
<path opacity="0.4" d="M12 21C15.5899 21 18.5 18.0899 18.5 14.5C18.5 10.9101 15.5899 8 12 8C8.41015 8 5.5 10.9101 5.5 14.5C5.5 18.0899 8.41015 21 12 21Z" fill="#24262D"/>
<path opacity="0.4" fill-rule="evenodd" clip-rule="evenodd" d="M21 3L16.61 9.91L16.6 9.89999C15.6 8.89999 14.27 8.22999 12.79 8.04999L16 3H21Z" fill="#24262D"/>
<path opacity="0.4" fill-rule="evenodd" clip-rule="evenodd" d="M11.21 8.04999C9.72996 8.22999 8.40002 8.89999 7.40002 9.89999L7.39001 9.91L3 3H8L11.21 8.04999Z" fill="#24262D"/>
<path d="M12.3212 11.865L12.9681 13.171C13.0171 13.269 13.1111 13.337 13.2191 13.353L14.7131 13.569C14.9871 13.609 15.0961 13.945 14.8981 14.137L13.8181 15.185C13.7391 15.262 13.7032 15.372 13.7222 15.48L13.9691 16.915C14.0191 17.206 13.7132 17.428 13.4512 17.291L12.1551 16.613C12.0581 16.562 11.9421 16.562 11.8451 16.613L10.5502 17.291C10.2882 17.428 9.98112 17.206 10.0311 16.915L10.2781 15.482C10.2971 15.374 10.2611 15.263 10.1821 15.187L9.10216 14.139C8.90416 13.946 9.0131 13.61 9.2871 13.571L10.7811 13.355C10.8901 13.339 10.9841 13.271 11.0321 13.173L11.6791 11.867C11.8111 11.6 12.1892 11.6 12.3212 11.865Z" fill="#24262D"/>
</svg>
