<svg width="24" height="24" viewBox="0 0 24 24" fill="none" xmlns="http://www.w3.org/2000/svg">
<path d="M21.238 9.83806C20.726 6.18306 17.817 3.27301 14.162 2.76201C13.816 2.71301 13.453 2.8201 13.182 3.0551C12.908 3.2941 12.75 3.63805 12.75 4.00005V10.0081C12.75 10.6931 13.308 11.2501 13.992 11.2501H20C20.361 11.2501 20.706 11.093 20.944 10.819C21.18 10.548 21.287 10.1901 21.238 9.83806Z" fill="#25314C"/>
<path opacity="0.4" d="M18.981 13.603C18.75 13.32 18.408 13.157 18.043 13.157H12.092C11.403 13.157 10.842 12.596 10.842 11.907V5.95603C10.842 5.59203 10.68 5.24992 10.397 5.01792C10.123 4.79392 9.76698 4.70493 9.42498 4.77293C7.27298 5.20593 5.339 6.51094 4.122 8.35594C2.891 10.2209 2.46902 12.479 2.93402 14.712C3.58902 17.856 6.14198 20.4079 9.28698 21.0639C9.87998 21.1879 10.475 21.249 11.064 21.249C12.692 21.249 14.273 20.782 15.642 19.878C17.487 18.66 18.792 16.7269 19.225 14.5749C19.296 14.2319 19.207 13.877 18.981 13.603Z" fill="#25314C"/>
</svg>
