<?xml version="1.0" standalone="no"?>
<!DOCTYPE svg PUBLIC "-//W3C//DTD SVG 20010904//EN"
 "http://www.w3.org/TR/2001/REC-SVG-20010904/DTD/svg10.dtd">
<svg version="1.0" xmlns="http://www.w3.org/2000/svg"
 width="512.000000pt" height="512.000000pt" viewBox="0 0 512.000000 512.000000"
 preserveAspectRatio="xMidYMid meet">

<g transform="translate(0.000000,512.000000) scale(0.100000,-0.100000)"
fill="#000000" stroke="none">
<path d="M2459 4853 c-69 -36 -115 -100 -124 -176 -4 -30 -5 -143 -3 -253 3
-182 5 -203 25 -240 42 -78 117 -124 203 -124 86 0 161 46 203 124 20 37 22
58 25 240 5 249 0 292 -41 353 -40 60 -118 103 -187 103 -31 0 -65 -9 -101
-27z"/>
<path d="M1009 4254 c-106 -32 -174 -151 -149 -261 15 -67 50 -112 223 -280
122 -120 140 -133 193 -149 129 -37 255 38 285 171 10 43 9 61 -6 111 -16 56
-26 68 -183 225 -152 152 -172 168 -221 183 -65 19 -81 19 -142 0z"/>
<path d="M3965 4253 c-44 -13 -71 -36 -217 -181 -157 -158 -167 -170 -183
-226 -15 -50 -16 -68 -6 -111 21 -91 85 -155 176 -176 43 -10 61 -9 109 5 53
16 71 29 193 149 173 168 208 213 223 280 26 112 -43 229 -153 262 -61 18 -78
18 -142 -2z"/>
<path d="M2385 3909 c-391 -52 -746 -276 -962 -607 -413 -631 -232 -1475 405
-1887 623 -402 1460 -221 1869 403 243 370 289 837 124 1247 -172 428 -552
742 -1004 830 -99 20 -335 27 -432 14z m420 -176 c455 -87 830 -463 931 -933
23 -106 26 -352 5 -455 -85 -428 -379 -772 -786 -918 -65 -23 -174 -48 -272
-61 l-43 -6 0 1200 0 1200 43 -6 c23 -3 78 -12 122 -21z"/>
<path d="M3279 3254 c-15 -19 -11 -26 63 -121 49 -62 72 -75 96 -51 21 21 14
40 -44 115 -59 76 -87 90 -115 57z"/>
<path d="M3468 2999 c-24 -13 -23 -31 10 -129 25 -74 32 -85 54 -88 14 -2 31
4 38 13 11 13 9 29 -16 102 -31 91 -55 120 -86 102z"/>
<path d="M3541 2686 c-8 -9 -11 -48 -9 -111 2 -80 6 -100 21 -109 12 -8 22 -8
35 0 24 16 30 175 7 210 -17 27 -37 31 -54 10z"/>
<path d="M3517 2358 c-8 -13 -24 -58 -37 -100 -25 -82 -20 -108 21 -108 26 0
44 33 68 120 25 89 24 75 5 94 -22 22 -41 20 -57 -6z"/>
<path d="M3352 2003 c-55 -78 -61 -107 -29 -127 16 -9 25 -4 62 38 24 27 54
68 66 92 19 35 21 45 10 58 -27 33 -54 18 -109 -61z"/>
<path d="M411 2780 c-92 -22 -171 -125 -171 -220 0 -69 43 -147 103 -187 61
-41 104 -46 353 -41 182 3 203 5 240 25 78 42 124 117 124 203 0 86 -46 161
-124 203 -38 20 -55 22 -266 24 -124 1 -240 -2 -259 -7z"/>
<path d="M4235 2781 c-105 -26 -175 -114 -175 -221 0 -86 46 -161 124 -203 37
-20 58 -22 240 -25 249 -5 292 0 353 41 60 40 103 118 103 187 0 98 -80 198
-176 220 -46 11 -425 11 -469 1z"/>
<path d="M1265 1553 c-44 -13 -71 -36 -217 -181 -157 -158 -167 -170 -183
-226 -15 -50 -16 -68 -6 -111 21 -91 85 -155 176 -176 43 -10 61 -9 109 5 53
16 71 29 193 149 173 168 208 213 223 280 26 112 -43 229 -153 262 -61 18 -78
18 -142 -2z"/>
<path d="M3707 1554 c-106 -33 -172 -150 -147 -261 15 -67 50 -112 223 -280
122 -120 140 -133 193 -149 129 -37 255 38 285 171 10 43 9 61 -6 111 -16 56
-26 68 -183 225 -152 152 -172 168 -221 183 -65 19 -81 19 -144 0z"/>
<path d="M2475 1046 c-46 -20 -94 -64 -118 -110 -20 -37 -22 -58 -25 -240 -5
-249 0 -292 41 -353 40 -60 118 -103 187 -103 69 0 147 43 187 103 41 61 46
104 41 353 -3 182 -5 203 -25 240 -25 47 -73 91 -120 111 -41 17 -129 16 -168
-1z"/>
</g>
</svg>
