<?xml version="1.0" standalone="no"?>
<!DOCTYPE svg PUBLIC "-//W3C//DTD SVG 20010904//EN"
 "http://www.w3.org/TR/2001/REC-SVG-20010904/DTD/svg10.dtd">
<svg version="1.0" xmlns="http://www.w3.org/2000/svg"
 width="512.000000pt" height="512.000000pt" viewBox="0 0 512.000000 512.000000"
 preserveAspectRatio="xMidYMid meet">

<g transform="translate(0.000000,512.000000) scale(0.100000,-0.100000)"
fill="#000000" stroke="none">
<path d="M2513 4894 c-61 -30 -63 -46 -63 -414 0 -370 2 -385 65 -414 41 -20
49 -20 90 0 63 29 65 44 65 414 0 370 -2 385 -65 414 -41 20 -52 20 -92 0z"/>
<path d="M1794 4306 c-23 -23 -34 -43 -34 -63 0 -29 117 -327 145 -370 8 -12
32 -27 54 -34 69 -21 135 29 133 101 -1 28 -88 253 -132 341 -35 67 -112 79
-166 25z"/>
<path d="M3199 4325 c-15 -8 -29 -20 -32 -27 -156 -363 -160 -382 -107 -433
23 -22 41 -30 69 -30 67 0 82 19 159 205 40 95 72 186 72 202 0 44 -57 98
-101 98 -19 -1 -46 -7 -60 -15z"/>
<path d="M935 4241 c-57 -24 -80 -99 -47 -153 11 -18 126 -138 255 -265 236
-235 242 -240 307 -234 32 3 78 49 81 81 6 65 1 71 -223 298 -123 123 -241
237 -262 253 -39 29 -73 35 -111 20z"/>
<path d="M4075 4222 c-74 -55 -482 -476 -487 -502 -13 -73 35 -130 110 -130
l45 0 238 236 c130 130 245 251 254 268 36 66 -6 143 -82 153 -31 4 -45 -1
-78 -25z"/>
<path d="M2353 3715 c-149 -27 -329 -101 -458 -188 -78 -53 -214 -185 -276
-267 -61 -81 -138 -230 -173 -335 -76 -229 -75 -506 2 -735 60 -175 139 -306
266 -438 139 -145 288 -240 474 -303 231 -79 508 -80 737 -3 293 98 543 313
680 584 140 277 164 599 68 895 -132 406 -489 716 -911 790 -105 18 -309 18
-409 0z m442 -225 c183 -49 305 -120 440 -255 136 -137 206 -259 256 -445 30
-110 33 -337 6 -444 -47 -186 -125 -324 -262 -461 -179 -178 -373 -267 -620
-281 -404 -24 -786 216 -943 591 -50 122 -67 212 -66 365 0 160 13 229 65 359
89 223 289 428 506 520 148 63 249 81 418 76 81 -2 146 -11 200 -25z"/>
<path d="M814 3326 c-24 -24 -34 -43 -34 -65 0 -36 22 -86 42 -94 339 -146
369 -154 417 -121 54 38 59 135 8 169 -43 28 -341 145 -370 145 -20 0 -40 -11
-63 -34z"/>
<path d="M4041 3290 c-90 -39 -170 -75 -177 -81 -8 -6 -19 -28 -25 -49 -21
-68 30 -134 101 -132 31 1 95 25 278 104 100 44 122 67 122 129 0 45 -56 99
-101 98 -19 0 -108 -31 -198 -69z"/>
<path d="M273 2654 c-29 -15 -63 -65 -63 -94 0 -30 34 -80 65 -94 49 -24 681
-24 730 0 31 14 65 64 65 94 0 30 -34 80 -65 94 -49 24 -684 23 -732 0z"/>
<path d="M4113 2654 c-29 -15 -63 -65 -63 -94 0 -30 34 -80 65 -94 49 -24 681
-24 730 0 31 14 65 64 65 94 0 30 -34 80 -65 94 -49 24 -684 23 -732 0z"/>
<path d="M1020 2039 c-194 -83 -211 -92 -226 -121 -8 -15 -14 -41 -14 -59 0
-42 56 -99 97 -99 26 0 297 105 363 140 28 15 53 75 45 109 -4 14 -18 38 -33
54 -39 41 -91 36 -232 -24z"/>
<path d="M3865 2060 c-22 -23 -30 -41 -30 -69 0 -67 19 -82 205 -159 95 -40
186 -72 202 -72 42 0 98 57 98 99 0 44 -23 85 -57 100 -15 8 -91 40 -168 72
-167 70 -206 75 -250 29z"/>
<path d="M1400 1532 c-26 -4 -447 -412 -501 -486 -41 -55 -39 -98 5 -142 38
-38 78 -44 124 -20 15 8 134 122 265 254 168 169 237 246 239 263 5 91 -49
146 -132 131z"/>
<path d="M3664 1533 c-30 -6 -72 -53 -75 -83 -6 -65 -1 -71 234 -307 127 -129
247 -244 265 -255 90 -56 198 44 147 138 -23 43 -487 504 -508 504 -8 0 -21 2
-29 4 -7 2 -23 1 -34 -1z"/>
<path d="M1943 1276 c-17 -8 -37 -24 -43 -36 -35 -66 -140 -337 -140 -363 0
-41 57 -97 99 -97 36 0 86 22 94 42 155 360 160 382 109 431 -34 33 -77 41
-119 23z"/>
<path d="M3100 1283 c-8 -3 -27 -17 -42 -31 -51 -47 -45 -71 109 -430 8 -20
58 -42 94 -42 42 0 99 56 99 97 0 26 -105 297 -140 363 -18 34 -82 57 -120 43z"/>
<path d="M2513 1054 c-61 -30 -63 -46 -63 -414 0 -370 2 -385 65 -414 41 -20
49 -20 90 0 63 29 65 44 65 414 0 370 -2 385 -65 414 -41 20 -52 20 -92 0z"/>
</g>
</svg>
