<svg width="24" height="24" viewBox="0 0 24 24" fill="none" xmlns="http://www.w3.org/2000/svg">
<path opacity="0.4" d="M17.235 14.26C16.37 13.224 15.002 12.5 13 12.5H11H9C4.94 12.5 3.5 15.47 3.5 18.02C3.5 20.3 4.71 21.5 7 21.5H11H14.24C14.47 21.5 14.602 21.256 14.496 21.052C14.179 20.434 13.999 19.736 13.999 19C13.999 17.004 15.283 15.3181 17.075 14.7271C17.277 14.6611 17.37 14.422 17.235 14.26Z" fill="#25314C"/>
<path d="M11.009 10.5C13.2182 10.5 15.009 8.70914 15.009 6.5C15.009 4.29086 13.2182 2.5 11.009 2.5C8.79989 2.5 7.00903 4.29086 7.00903 6.5C7.00903 8.70914 8.79989 10.5 11.009 10.5Z" fill="#25314C"/>
<path d="M21 18.25H19.75V17C19.75 16.586 19.414 16.25 19 16.25C18.586 16.25 18.25 16.586 18.25 17V18.25H17C16.586 18.25 16.25 18.586 16.25 19C16.25 19.414 16.586 19.75 17 19.75H18.25V21C18.25 21.414 18.586 21.75 19 21.75C19.414 21.75 19.75 21.414 19.75 21V19.75H21C21.414 19.75 21.75 19.414 21.75 19C21.75 18.586 21.414 18.25 21 18.25Z" fill="#25314C"/>
</svg>
