<svg width="41" height="40" viewBox="0 0 41 40" fill="none" xmlns="http://www.w3.org/2000/svg">
<path fill-rule="evenodd" clip-rule="evenodd" d="M34.0631 17.6937V19.3382C34.0631 21.382 32.4063 23.0388 30.3625 23.0388C28.3187 23.0388 26.6619 21.382 26.6619 19.3382V17.6937L29.2353 18.8375C29.9529 19.1564 30.7721 19.1564 31.4897 18.8375L34.0631 17.6937ZM24.3491 16.6658V20.7261C24.3491 21.1093 24.0384 21.42 23.6552 21.42C23.272 21.42 22.9614 21.1093 22.9614 20.7261V16.0481C22.9698 16.0525 22.9784 16.0566 22.9873 16.0606L24.3491 16.6658Z" fill="#9747FF"/>
<path opacity="0.4" d="M37.7377 15.2152L31.4897 12.4383C30.7721 12.1193 29.9529 12.1193 29.2353 12.4383L22.9873 15.2152C22.621 15.378 22.621 15.8978 22.9873 16.0606L29.2353 18.8375C29.9529 19.1564 30.7721 19.1564 31.4897 18.8375L37.7377 16.0606C38.104 15.8978 38.104 15.378 37.7377 15.2152Z" fill="#9747FF"/>
<path opacity="0.4" fill-rule="evenodd" clip-rule="evenodd" d="M27.5279 30.4401H35.9134C36.9353 30.4401 37.7637 29.6117 37.7637 28.5898C37.7637 26.5849 35.9533 24.8606 33.3581 24.0974C33.0484 24.0063 32.717 24.1042 32.4899 24.3337L31.0203 25.8198C30.6582 26.1859 30.0668 26.1859 29.7047 25.8198L28.2351 24.3337C28.0081 24.1042 27.6766 24.0063 27.3669 24.0974C26.4577 24.3648 25.6449 24.7501 24.9725 25.2241C26.5744 26.6901 27.5213 28.4918 27.5279 30.4401Z" fill="#9747FF"/>
<path opacity="0.4" fill-rule="evenodd" clip-rule="evenodd" d="M19.9697 13.8479V18.0024C19.9697 20.2115 18.1789 22.0024 15.9697 22.0024H12.679C10.4699 22.0024 8.67899 20.2115 8.67899 18.0024V13.8479L12.6048 15.5927C13.6995 16.0792 14.9492 16.0792 16.044 15.5927L19.9697 13.8479ZM5.15063 12.2797V18.474C5.15063 19.0586 4.67673 19.5325 4.09213 19.5325C3.50753 19.5325 3.03362 19.0586 3.03362 18.474V11.3374C3.04648 11.3441 3.05967 11.3504 3.07319 11.3564L5.15063 12.2797Z" fill="#9747FF"/>
<path d="M25.5754 10.0667L16.0439 5.83049C14.9491 5.34393 13.6994 5.34393 12.6047 5.83049L3.07311 10.0667C2.51435 10.3151 2.51435 11.1081 3.07311 11.3564L12.6047 15.5927C13.6994 16.0793 14.9491 16.0793 16.0439 15.5927L25.5754 11.3564C26.1342 11.1081 26.1342 10.3151 25.5754 10.0667Z" fill="#9747FF"/>
<path d="M11.0788 23.9777L13.3208 26.2447C13.8732 26.8033 14.7754 26.8033 15.3278 26.2447L17.5697 23.9777C17.916 23.6275 18.4217 23.4782 18.8942 23.6172C22.8532 24.7814 25.615 27.4119 25.615 30.4704C25.615 32.0294 24.3512 33.2931 22.7923 33.2931H5.8562C4.29728 33.2931 3.03352 32.0294 3.03352 30.4704C3.03352 27.4119 5.79532 24.7814 9.75432 23.6172C10.2269 23.4782 10.7325 23.6275 11.0788 23.9777Z" fill="#9747FF"/>
</svg>
