<svg width="24" height="24" viewBox="0 0 24 24" fill="none" xmlns="http://www.w3.org/2000/svg">
<path d="M10.009 10.5C12.2182 10.5 14.009 8.70914 14.009 6.5C14.009 4.29086 12.2182 2.5 10.009 2.5C7.79989 2.5 6.00903 4.29086 6.00903 6.5C6.00903 8.70914 7.79989 10.5 10.009 10.5Z" fill="#AB4459"/>
<path opacity="0.4" d="M14.0601 13.02C14.0601 13.1 14.02 13.18 13.97 13.23C12.61 14.38 11.75 16.08 11.75 18C11.75 19.11 12.0499 20.1599 12.5699 21.0699C12.5699 21.0699 12.602 21.121 12.599 21.201C12.593 21.371 12.46 21.499 12.29 21.499H6C3.71 21.499 2.5 20.299 2.5 18.019C2.5 15.469 3.94 12.499 8 12.499H12C12.65 12.499 13.24 12.579 13.76 12.719C13.808 12.733 14.0601 12.817 14.0601 13.02Z" fill="#AB4459"/>
<path d="M18 13.25C15.381 13.25 13.25 15.381 13.25 18C13.25 20.619 15.381 22.75 18 22.75C20.619 22.75 22.75 20.619 22.75 18C22.75 15.381 20.619 13.25 18 13.25ZM18 14.75C18.624 14.75 19.202 14.9359 19.698 15.2419L15.2419 19.698C14.9359 19.202 14.75 18.625 14.75 18C14.75 16.208 16.208 14.75 18 14.75ZM18 21.25C17.376 21.25 16.798 21.0641 16.302 20.7581L20.7581 16.302C21.0641 16.798 21.25 17.375 21.25 18C21.25 19.792 19.792 21.25 18 21.25Z" fill="#AB4459"/>
</svg>
