<svg width="24" height="24" viewBox="0 0 24 24" fill="none" xmlns="http://www.w3.org/2000/svg">
<path opacity="0.4" d="M5.26196 19H18.738V13.7C18.738 8.88695 15.85 6 12 6C8.15 6 5.26196 8.88795 5.26196 13.7V19Z" fill="white"/>
<path d="M8.72287 13.1951C8.70287 13.1951 8.68405 13.1951 8.66305 13.1931C8.25105 13.1611 7.94109 12.8 7.97409 12.387C8.13609 10.302 9.90497 8.66895 12 8.66895C12.414 8.66895 12.75 9.00495 12.75 9.41895C12.75 9.83295 12.414 10.1689 12 10.1689C10.661 10.1689 9.57294 11.1719 9.46994 12.5029C9.43794 12.8959 9.10987 13.1951 8.72287 13.1951Z" fill="white"/>
<path d="M4 22H20V20.499C20 19.671 19.329 19 18.501 19H5.5C4.672 19 4 19.672 4 20.5V22Z" fill="white"/>
<path d="M12 4.25C11.586 4.25 11.25 3.914 11.25 3.5V2C11.25 1.586 11.586 1.25 12 1.25C12.414 1.25 12.75 1.586 12.75 2V3.5C12.75 3.914 12.414 4.25 12 4.25Z" fill="white"/>
<path d="M18.5 6.25002C18.308 6.25002 18.116 6.17705 17.97 6.03005C17.677 5.73705 17.677 5.26202 17.97 4.96902L19.47 3.46902C19.763 3.17602 20.238 3.17602 20.531 3.46902C20.824 3.76202 20.824 4.23705 20.531 4.53005L19.031 6.03005C18.884 6.17705 18.692 6.25002 18.5 6.25002Z" fill="white"/>
<path d="M5.50002 6.25002C5.30802 6.25002 5.11599 6.17705 4.96999 6.03005L3.46999 4.53005C3.17699 4.23705 3.17699 3.76202 3.46999 3.46902C3.76299 3.17602 4.23803 3.17602 4.53103 3.46902L6.03103 4.96902C6.32403 5.26202 6.32403 5.73705 6.03103 6.03005C5.88403 6.17705 5.69202 6.25002 5.50002 6.25002Z" fill="white"/>
</svg>
