<svg width="24" height="24" viewBox="0 0 24 24" fill="none" xmlns="http://www.w3.org/2000/svg">
<path opacity="0.4" d="M16 5H17C19 5 20 6 20 8V18C20 20 19 21 17 21H7C5 21 4 20 4 18V8C4 6 5 5 7 5H8" fill="white"/>
<path d="M16 4.5V5.5C16 6.5 15.5 7 14.5 7H9.5C8.5 7 8 6.5 8 5.5V4.5C8 3.5 8.5 3 9.5 3H14.5C15.5 3 16 3.5 16 4.5Z" fill="white"/>
<path d="M15 12.75H9C8.586 12.75 8.25 12.414 8.25 12C8.25 11.586 8.586 11.25 9 11.25H15C15.414 11.25 15.75 11.586 15.75 12C15.75 12.414 15.414 12.75 15 12.75ZM13.75 16C13.75 15.586 13.414 15.25 13 15.25H9C8.586 15.25 8.25 15.586 8.25 16C8.25 16.414 8.586 16.75 9 16.75H13C13.414 16.75 13.75 16.414 13.75 16Z" fill="white"/>
</svg>
