<svg width="24" height="24" viewBox="0 0 24 24" fill="none" xmlns="http://www.w3.org/2000/svg">
<path opacity="0.4" d="M10.465 5.57003C10.904 4.86903 11.511 4.28703 12.226 3.85903C14.013 2.78903 15.911 2.80901 17.436 3.42501L15.265 5.60601C14.689 6.18501 14.69 7.13103 15.267 7.70803L16.292 8.73303C16.87 9.31003 17.816 9.31201 18.394 8.73501L20.575 6.56402C21.191 8.08802 21.211 9.99702 20.131 11.784C19.687 12.531 19.051 13.167 18.293 13.621C17.012 14.393 15.659 14.595 14.439 14.418C13.982 14.352 13.523 14.514 13.197 14.841L7.874 20.163C6.759 21.278 4.95101 21.278 3.83601 20.163C2.72101 19.048 2.72101 17.24 3.83601 16.125L9.159 10.802C9.485 10.476 9.64901 10.017 9.58201 9.56002C9.40401 8.33502 9.60701 6.98704 10.388 5.69604C10.414 5.65404 10.439 5.61203 10.465 5.57003Z" fill="white"/>
<path d="M6.02 19C5.468 19 5.015 18.552 5.015 18C5.015 17.448 5.45699 17 6.00999 17H6.02C6.572 17 7.02 17.448 7.02 18C7.02 18.552 6.572 19 6.02 19Z" fill="white"/>
</svg>
