<svg width="24" height="24" viewBox="0 0 24 24" fill="none" xmlns="http://www.w3.org/2000/svg">
<path opacity="0.4" d="M12 22C17.5228 22 22 17.5228 22 12C22 6.47715 17.5228 2 12 2C6.47715 2 2 6.47715 2 12C2 17.5228 6.47715 22 12 22Z" fill="white"/>
<path d="M10.939 13.061C10.353 12.475 10.353 11.525 10.939 10.94C11.361 10.518 13.802 9.17801 15.133 8.46201C15.395 8.32101 15.678 8.605 15.538 8.867C14.822 10.199 13.482 12.639 13.06 13.061C12.475 13.646 11.525 13.646 10.939 13.061ZM7.19199 15.646C7.54799 15.435 7.66699 14.975 7.45599 14.619C6.98799 13.827 6.75 12.946 6.75 12.001C6.75 8.72501 9.80901 6.16199 13.143 6.87399C13.546 6.95999 13.947 6.703 14.033 6.298C14.119 5.893 13.862 5.49399 13.456 5.40799C12.964 5.30299 12.488 5.25201 11.999 5.25201C8.27699 5.25201 5.24899 8.28001 5.24899 12.002C5.24899 13.202 5.565 14.371 6.164 15.384C6.304 15.621 6.554 15.752 6.81 15.752C6.94 15.75 7.07199 15.717 7.19199 15.646ZM17.835 15.382C18.433 14.37 18.75 13.201 18.75 12C18.75 11.51 18.699 11.033 18.593 10.542C18.506 10.137 18.109 9.88001 17.702 9.96701C17.297 10.054 17.039 10.453 17.126 10.858C17.209 11.244 17.25 11.618 17.25 12C17.25 12.945 17.013 13.826 16.544 14.618C16.333 14.975 16.451 15.434 16.808 15.645C16.928 15.716 17.059 15.749 17.189 15.749C17.446 15.75 17.696 15.618 17.835 15.382Z" fill="white"/>
</svg>
