<svg width="24" height="24" viewBox="0 0 24 24" fill="none" xmlns="http://www.w3.org/2000/svg">
<path d="M16.2031 19.6261C16.6677 20.3435 16.4363 21.304 15.6963 21.7315C15.0045 22.131 14.1204 21.9155 13.6904 21.2423L10.7188 16.588L13.7754 15.878L16.2031 19.6261Z" fill="white"/>
<path opacity="0.4" d="M12.5132 3.98377C13.4291 2.99801 15.0376 3.17981 15.7104 4.34514L20.0025 11.7792C20.6753 12.9446 20.0285 14.4284 18.7168 14.7288L7.79953 17.2681L4.79953 12.0719L12.5132 3.98377Z" fill="white"/>
<path d="M7.84814 16.7273L5.34814 12.3972C4.93393 11.6797 4.01655 11.4339 3.29911 11.8481C2.58167 12.2624 2.33585 13.1797 2.75007 13.8972L5.25007 18.2273C5.66428 18.9447 6.58167 19.1906 7.29911 18.7763C8.01655 18.3621 8.26236 17.4447 7.84814 16.7273Z" fill="white"/>
<path fill-rule="evenodd" clip-rule="evenodd" d="M20.0146 2.73953C20.4147 2.84673 20.6521 3.25799 20.5449 3.65809L20.1789 5.02411C20.0717 5.42421 19.6604 5.66165 19.2603 5.55444C18.8602 5.44724 18.6228 5.03598 18.73 4.63588L19.096 3.26986C19.2032 2.86976 19.6145 2.63232 20.0146 2.73953Z" fill="white"/>
<path fill-rule="evenodd" clip-rule="evenodd" d="M20.73 8.10018C20.8372 7.70008 21.2485 7.46264 21.6486 7.56985L23.0146 7.93588C23.4147 8.04308 23.6521 8.45433 23.5449 8.85443C23.4377 9.25453 23.0265 9.49197 22.6264 9.38476L21.2603 9.01874C20.8602 8.91153 20.6228 8.50028 20.73 8.10018Z" fill="white"/>
</svg>
