<svg width="24" height="24" viewBox="0 0 24 24" fill="none" xmlns="http://www.w3.org/2000/svg">
<path opacity="0.4" d="M17.667 2H6.33398C4.11198 2 3.00098 3.11101 3.00098 5.33301V15.333C3.00098 17.555 4.11198 18.666 6.33398 18.666H7.83398C8.35898 18.666 8.85299 18.913 9.16699 19.333L10.667 21.333C11.334 22.222 12.667 22.222 13.334 21.333L14.834 19.333C15.149 18.913 15.643 18.666 16.167 18.666H17.667C19.889 18.666 21 17.555 21 15.333V5.33301C21 3.11101 19.889 2 17.667 2Z" fill="white"/>
<path d="M12.535 5.833L13.614 8.02196C13.695 8.18696 13.852 8.30102 14.033 8.32702L16.523 8.68902C16.98 8.75502 17.1621 9.31902 16.8311 9.64202L15.031 11.399C14.899 11.527 14.839 11.713 14.87 11.894L15.282 14.299C15.366 14.787 14.856 15.159 14.419 14.929L12.259 13.792C12.097 13.707 11.904 13.707 11.742 13.792L9.58399 14.928C9.14599 15.158 8.636 14.785 8.719 14.297L9.13001 11.894C9.16101 11.712 9.101 11.527 8.969 11.399L7.16895 9.64202C6.83795 9.31902 7.02006 8.75602 7.47706 8.68902L9.96705 8.32702C10.1481 8.30102 10.305 8.18596 10.386 8.02196L11.465 5.833C11.684 5.389 12.316 5.389 12.535 5.833Z" fill="white"/>
</svg>
