<svg width="24" height="24" viewBox="0 0 24 24" fill="none" xmlns="http://www.w3.org/2000/svg">
<path d="M20.0384 8.96135H12.8076L14.3076 7.46135C14.923 6.84597 14.923 5.84597 14.3076 5.23058C13.6922 4.6152 12.7307 4.6152 12.1153 5.23058C10.2307 6.69212 7.96144 8.53827 6.92298 9.42289C6.76914 8.92289 6.34606 8.57674 5.8076 8.57674H3.53837C2.88452 8.57674 2.38452 9.07674 2.38452 9.73058V17.9998C2.38452 18.6537 2.88452 19.1537 3.53837 19.1537H5.8076C6.42298 19.1537 6.92298 18.6537 6.96144 18.0383H7.65375C8.61529 18.8075 9.76914 19.2306 10.9999 19.2306H15.3845C16.423 19.2306 16.9614 18.4229 16.9614 17.6537C16.9614 17.269 16.8076 16.8844 16.5768 16.5767C16.9999 16.269 17.2307 15.769 17.2307 15.269C17.2307 14.846 17.0768 14.4998 16.8461 14.1921C17.2691 13.8844 17.4999 13.3844 17.4999 12.8844C17.4999 12.5767 17.423 12.3075 17.3076 12.0767H20.1153C20.9999 12.0767 21.6922 11.3844 21.6922 10.4998C21.6153 9.65366 20.923 8.96135 20.0384 8.96135ZM6.19221 17.9614C6.19221 18.1921 6.03837 18.346 5.8076 18.346H3.53837C3.3076 18.346 3.15375 18.1921 3.15375 17.9614V9.73058C3.15375 9.49981 3.3076 9.34597 3.53837 9.34597H5.8076C6.03837 9.34597 6.19221 9.49981 6.19221 9.73058V17.9614ZM20.0384 11.346H15.4999C15.2691 11.346 15.1153 11.4998 15.1153 11.7306C15.1153 11.9614 15.2691 12.1152 15.4999 12.1152H15.8845C16.4999 12.1152 16.6922 12.6152 16.6922 12.9229C16.6922 13.5383 16.2691 13.7306 15.6538 13.7306C15.423 13.7306 15.2691 13.8844 15.2691 14.1152C15.2691 14.346 15.423 14.4998 15.6538 14.4998C16.2691 14.4998 16.4614 14.9998 16.4614 15.3075C16.4614 15.9229 16.0384 16.1152 15.423 16.1152C15.1922 16.1152 15.0384 16.269 15.0384 16.4998C15.0384 16.7306 15.1922 16.8844 15.423 16.8844C16.0384 16.8844 16.2307 17.3844 16.2307 17.6921C16.2307 17.9998 16.0768 18.4998 15.423 18.4998H10.9999C9.92298 18.4998 8.84606 18.1152 8.03837 17.4229C8.03837 17.4229 7.99991 17.4229 7.99991 17.3844C7.96144 17.3844 7.96144 17.346 7.92298 17.346C7.88452 17.346 7.88452 17.346 7.84606 17.346H7.8076H6.96144V10.346C7.61529 9.80751 10.3845 7.53827 12.5768 5.8075L12.6153 5.76904C12.923 5.46135 13.4614 5.46135 13.7307 5.76904C14.0384 6.07674 14.0384 6.57674 13.7307 6.88443L11.6153 9.07674C11.4614 9.23058 11.4614 9.46135 11.6153 9.6152C11.6922 9.69212 11.8076 9.73058 11.8845 9.73058H20.0384C20.4614 9.73058 20.8461 10.0767 20.8461 10.5383C20.8461 10.9998 20.4999 11.346 20.0384 11.346Z" fill="#ffffff"/>
</svg>
