<svg width="41" height="40" viewBox="0 0 41 40" fill="none" xmlns="http://www.w3.org/2000/svg">
<path opacity="0.4" d="M35.1881 8.09844C32.4464 6.79677 29.5484 6.43344 26.5284 6.80511C23.1834 7.21677 20.6666 10.0635 20.6666 13.4335V33.3334C25.3083 30.2401 29.9483 30.0168 34.59 31.3351C35.1283 31.4885 35.6666 31.1017 35.6666 30.5417V8.86504C35.6666 8.54338 35.4798 8.23677 35.1881 8.09844Z" fill="#3980EB"/>
<path d="M6.14514 8.09844C8.88681 6.79677 11.7848 6.43344 14.8048 6.80511C18.1498 7.21677 20.6666 10.0635 20.6666 13.4335V33.3334C16.025 30.2401 11.385 30.0168 6.74329 31.3351C6.20495 31.4885 5.66663 31.1017 5.66663 30.5417V8.86504C5.66663 8.54338 5.85347 8.23677 6.14514 8.09844Z" fill="#3980EB"/>
<path d="M30.6666 16.25H25.6666C24.9766 16.25 24.4166 15.69 24.4166 15C24.4166 14.31 24.9766 13.75 25.6666 13.75H30.6666C31.3566 13.75 31.9166 14.31 31.9166 15C31.9166 15.69 31.3566 16.25 30.6666 16.25ZM30.25 20C30.25 19.31 29.69 18.75 29 18.75H25.6666C24.9766 18.75 24.4166 19.31 24.4166 20C24.4166 20.69 24.9766 21.25 25.6666 21.25H29C29.69 21.25 30.25 20.69 30.25 20Z" fill="#3980EB"/>
</svg>
