<svg width="41" height="40" viewBox="0 0 41 40" fill="none" xmlns="http://www.w3.org/2000/svg">
<path opacity="0.4" d="M10.3333 35C6.99992 35 5.33325 33.3333 5.33325 30V10C5.33325 6.66667 6.99992 5 10.3333 5H23.6666C26.9999 5 28.6666 6.66667 28.6666 10V31.6667C28.6666 33.5067 30.1583 35 31.9999 35H10.3333Z" fill="#21943C"/>
<path d="M28.6666 16.6667H32.8333C34.2166 16.6667 35.3333 17.7833 35.3333 19.1667V31.6667C35.3333 32.5833 34.9666 33.4167 34.3499 34.0167C33.7499 34.6334 32.9166 35 32 35C30.1666 35 28.6666 33.5 28.6666 31.6667V16.6667Z" fill="#21943C"/>
<path d="M21.9999 24.5833H11.9999C11.3099 24.5833 10.7499 24.0233 10.7499 23.3333C10.7499 22.6433 11.3099 22.0833 11.9999 22.0833H21.9999C22.6899 22.0833 23.2499 22.6433 23.2499 23.3333C23.2499 24.0233 22.6899 24.5833 21.9999 24.5833Z" fill="#21943C"/>
<path d="M16.9999 29.5833H11.9999C11.3099 29.5833 10.7499 29.0233 10.7499 28.3333C10.7499 27.6433 11.3099 27.0833 11.9999 27.0833H16.9999C17.6899 27.0833 18.2499 27.6433 18.2499 28.3333C18.2499 29.0233 17.6899 29.5833 16.9999 29.5833Z" fill="#21943C"/>
<path d="M17.5349 16.1833C17.5349 14.7566 16.59 13.5134 15.2316 13.1567L13.6815 12.7568C13.5315 12.7168 13.4349 12.6217 13.3732 12.5433C13.2949 12.44 13.2483 12.2967 13.2483 12.1501C13.2483 11.8067 13.4965 11.5267 13.8032 11.5267H14.4783C14.7583 11.5267 14.9966 11.7632 15.0299 12.0782C15.1032 12.7649 15.7066 13.255 16.4083 13.1866C17.095 13.1133 17.5899 12.4949 17.5166 11.8083C17.3799 10.5399 16.5099 9.53167 15.3699 9.17501V9.16666C15.3699 8.47666 14.8099 7.91666 14.1199 7.91666C13.4299 7.91666 12.8699 8.47666 12.8699 9.16666V9.19169C11.6432 9.59669 10.7483 10.7617 10.7483 12.1501C10.7483 12.8417 10.9733 13.5184 11.3783 14.0501C11.7933 14.6034 12.3866 15.0033 13.0533 15.1766L14.6015 15.5766C14.8565 15.6432 15.0349 15.8933 15.0349 16.1833C15.0349 16.4166 14.9216 16.5684 14.8566 16.6368C14.7832 16.7134 14.6565 16.805 14.4799 16.805H13.8049C13.5283 16.805 13.2866 16.5616 13.2533 16.2533C13.1783 15.5666 12.5699 15.0717 11.8749 15.1451C11.1882 15.2184 10.6933 15.8366 10.7666 16.5232C10.9016 17.7766 11.7515 18.7768 12.8699 19.1451V19.1667C12.8699 19.8567 13.4299 20.4167 14.1199 20.4167C14.8099 20.4167 15.3699 19.8567 15.3699 19.1667V19.1551C15.8482 19.0051 16.29 18.7501 16.655 18.3734C17.2233 17.7834 17.5349 17.0049 17.5349 16.1833Z" fill="#21943C"/>
</svg>
