<svg width="40" height="40" viewBox="0 0 40 40" fill="none" xmlns="http://www.w3.org/2000/svg">
<path opacity="0.4" d="M25.1333 30.9016L21.7684 34.2667C20.7918 35.2433 19.2083 35.2433 18.2333 34.2667L14.8684 30.9016C13.9884 30.0216 12.595 29.9233 11.6 30.67L9.33496 32.3683C8.23663 33.1917 6.66833 32.4083 6.66833 31.035V10C6.66833 6.66667 8.335 5 11.6683 5H28.335C31.6683 5 33.335 6.66667 33.335 10V31.035C33.335 32.4083 31.7667 33.1917 30.6684 32.3683L28.4034 30.67C27.4067 29.9233 26.0133 30.0216 25.1333 30.9016Z" fill="#F68E44"/>
<path d="M20.7566 12.1333L22.2849 15.205C22.3999 15.4366 22.6217 15.5967 22.8784 15.6333L26.4066 16.1416C27.0533 16.235 27.3116 17.025 26.8432 17.4783L24.2934 19.945C24.1067 20.125 24.0215 20.385 24.0665 20.64L24.65 24.015C24.7684 24.7 24.0467 25.2216 23.4267 24.9L20.3666 23.3033C20.1366 23.1833 19.8633 23.1833 19.6333 23.3033L16.5749 24.8983C15.9549 25.2216 15.2316 24.6983 15.3499 24.0117L15.9334 20.6383C15.9767 20.3833 15.8916 20.1233 15.7066 19.9433L13.1567 17.4766C12.6884 17.0233 12.9466 16.2333 13.5933 16.14L17.1215 15.6316C17.3782 15.595 17.6 15.435 17.715 15.2033L19.2433 12.1316C19.5533 11.51 20.4466 11.51 20.7566 12.1333Z" fill="#F68E44"/>
</svg>
