<svg width="41" height="40" viewBox="0 0 41 40" fill="none" xmlns="http://www.w3.org/2000/svg">
<path opacity="0.4" d="M12.3334 8.33333V23.3333C12.3334 25.1743 13.8258 26.6667 15.6667 26.6667H34C35.841 26.6667 37.3334 25.1743 37.3334 23.3333V8.33333C37.3334 6.49238 35.841 5 34 5H15.6667C13.8258 5 12.3334 6.49238 12.3334 8.33333Z" fill="#119C91"/>
<path d="M4 30C4 28.159 5.49238 26.6667 7.33333 26.6667H7.61929C8.50334 26.6667 9.35119 27.0179 9.97631 27.643C11.2781 28.9447 13.3886 28.9447 14.6904 27.643C15.3155 27.0179 16.1633 26.6667 17.0474 26.6667H17.3333C19.1743 26.6667 20.6667 28.159 20.6667 30V31.6667C20.6667 33.5076 19.1743 35 17.3333 35H7.33333C5.49238 35 4 33.5076 4 31.6667V30Z" fill="#119C91"/>
<path d="M16.5 20.8333C16.5 23.1345 14.6345 25 12.3333 25C10.0321 25 8.16663 23.1345 8.16663 20.8333C8.16663 18.5321 10.0321 16.6667 12.3333 16.6667C14.6345 16.6667 16.5 18.5321 16.5 20.8333Z" fill="#119C91"/>
<path fill-rule="evenodd" clip-rule="evenodd" d="M17.75 12.5C17.75 11.8096 18.3096 11.25 19 11.25L30.6667 11.25C31.357 11.25 31.9167 11.8096 31.9167 12.5C31.9167 13.1904 31.357 13.75 30.6667 13.75L19 13.75C18.3096 13.75 17.75 13.1904 17.75 12.5Z" fill="#119C91"/>
<path fill-rule="evenodd" clip-rule="evenodd" d="M22.75 19.1667C22.75 18.4763 23.3096 17.9167 24 17.9167L30.6667 17.9167C31.357 17.9167 31.9167 18.4763 31.9167 19.1667C31.9167 19.857 31.357 20.4167 30.6667 20.4167H24C23.3096 20.4167 22.75 19.857 22.75 19.1667Z" fill="#119C91"/>
</svg>
