<svg width="40" height="40" viewBox="0 0 40 40" fill="none" xmlns="http://www.w3.org/2000/svg">
<path opacity="0.4" d="M22.975 22.3151H17.0265C10.9182 22.3151 8.75159 26.7683 8.75159 30.5817C8.75159 33.9683 10.6366 35.8317 14.0566 35.8317H25.9466C29.3666 35.8317 31.2516 33.9667 31.2516 30.5817C31.2499 26.77 29.0833 22.3151 22.975 22.3151Z" fill="#F55659"/>
<path d="M20.0134 19.1866C23.2501 19.1866 25.8818 16.565 25.8818 13.3433C25.8818 10.12 23.2484 7.5 20.0134 7.5C16.7784 7.5 14.1467 10.1216 14.1467 13.3433C14.1467 16.565 16.7768 19.1866 20.0134 19.1866Z" fill="#F55659"/>
<path opacity="0.4" d="M37.4999 21.0834C37.4999 23.6834 36.0665 25.1166 33.4498 25.1166H32.7499C32.5333 25.1166 32.3665 25 32.2832 24.8167C31.0665 22.6167 29.0166 20.8833 26.0666 20.1833C25.6832 20.0833 25.5165 19.6166 25.7998 19.35C26.9498 18.2666 27.7832 16.8501 28.1499 15.2667C28.1999 15.0501 28.4 14.8834 28.6333 14.8834H31.3166C35.8833 14.8834 37.4999 18.2334 37.4999 21.0834Z" fill="#F55659"/>
<path d="M33.6334 8.61674C33.6334 11.0834 31.6334 13.0833 29.1834 13.0833C29.06 13.0833 28.9383 13.0766 28.82 13.0666C28.6667 13.0533 28.5535 13.0034 28.4768 12.9218C28.4001 12.8401 28.3568 12.7618 28.3468 12.6351C28.1684 10.3834 27.0801 8.3916 25.4484 7.0166C25.3468 6.92993 25.2966 6.87168 25.2716 6.76168C25.2483 6.65668 25.245 6.53663 25.3066 6.42497C26.07 5.07663 27.52 4.16504 29.1834 4.16504C31.6334 4.16671 33.6334 6.16674 33.6334 8.61674Z" fill="#F55659"/>
<path opacity="0.4" d="M2.5 21.0834C2.5 23.6834 3.93342 25.1166 6.55009 25.1166H7.24996C7.46663 25.1166 7.63334 25 7.71667 24.8167C8.93334 22.6167 10.9833 20.8833 13.9333 20.1833C14.3166 20.0833 14.4834 19.6166 14.2 19.35C13.05 18.2666 12.2166 16.8501 11.85 15.2667C11.8 15.0501 11.5999 14.8834 11.3666 14.8834H8.68327C4.1166 14.8834 2.5 18.2334 2.5 21.0834Z" fill="#F55659"/>
<path d="M6.36658 8.61674C6.36658 11.0834 8.36665 13.0833 10.8167 13.0833C10.94 13.0833 11.0617 13.0766 11.18 13.0666C11.3333 13.0533 11.4466 13.0034 11.5232 12.9218C11.5999 12.8401 11.6432 12.7618 11.6532 12.6351C11.8316 10.3834 12.9199 8.3916 14.5516 7.0166C14.6533 6.92993 14.7034 6.87168 14.7284 6.76168C14.7517 6.65668 14.7551 6.53663 14.6934 6.42497C13.9301 5.07663 12.48 4.16504 10.8167 4.16504C8.36665 4.16671 6.36658 6.16674 6.36658 8.61674Z" fill="#F55659"/>
</svg>
