<svg width="24" height="24" viewBox="0 0 24 24" fill="none" xmlns="http://www.w3.org/2000/svg">
<path d="M22.447 7.61017L21.2469 16.19C20.9869 17.99 19.9969 18.94 18.3669 18.94C18.2369 18.94 18.097 18.93 17.957 18.92C17.987 18.73 17.9969 18.5401 17.9969 18.3301V9.65997C17.9969 7.88997 17.117 7.00006 15.337 7.00006H5.36694C5.36694 6.98006 5.37695 6.94999 5.37695 6.92999L5.61694 5.25006C5.75694 4.23006 6.14695 3.48008 6.74695 3.02008C7.35695 2.57008 8.17702 2.41011 9.19702 2.55011L19.757 4.03009C20.767 4.18009 21.5171 4.55998 21.9771 5.16998C22.437 5.76998 22.597 6.60017 22.447 7.61017Z" fill="#25314C"/>
<path opacity="0.4" d="M15.335 6.99805H4.66699C2.88899 6.99805 2 7.88704 2 9.66504V18.333C2 20.111 2.88899 21 4.66699 21H15.335C17.113 21 18.002 20.111 18.002 18.333V9.66504C18.003 7.88604 17.114 6.99805 15.335 6.99805Z" fill="#25314C"/>
<path d="M16.412 14.972L13.3 11.8502C12.95 11.5102 12.38 11.5102 12.04 11.8502L7.65002 16.2401C7.47702 16.4131 7.19302 16.4131 7.02002 16.2401L6.18994 15.41C5.83994 15.06 5.27005 15.06 4.93005 15.41L3.58801 16.7521C3.53201 16.8081 3.5 16.8852 3.5 16.9642V18.3302C3.5 19.2802 3.72004 19.5001 4.67004 19.5001H15.34C16.28 19.5001 16.5 19.2802 16.5 18.3302V15.1842C16.5 15.1042 16.469 15.028 16.412 14.972Z" fill="#25314C"/>
<path d="M6.50195 12.5C5.95095 12.5 5.5 12.052 5.5 11.5C5.5 10.948 5.94302 10.5 6.49402 10.5H6.50195C7.05295 10.5 7.5 10.948 7.5 11.5C7.5 12.052 7.05295 12.5 6.50195 12.5Z" fill="#25314C"/>
</svg>
