<svg width="24" height="24" viewBox="0 0 24 24" fill="none" xmlns="http://www.w3.org/2000/svg">
<path opacity="0.4" d="M20.7129 4.85907C19.0679 4.07807 17.3291 3.86006 15.5171 4.08306C13.5101 4.33006 12 6.03811 12 8.06011V20.0001C14.785 18.1441 17.569 18.0101 20.354 18.8011C20.677 18.8931 21 18.661 21 18.325V5.31903C21 5.12603 20.8879 4.94207 20.7129 4.85907Z" fill="#25314C"/>
<path d="M3.28711 4.85907C4.93211 4.07807 6.67091 3.86006 8.48291 4.08306C10.4899 4.33006 12 6.03811 12 8.06011V20.0001C9.215 18.1441 6.431 18.0101 3.646 18.8011C3.323 18.8931 3 18.661 3 18.325V5.31903C3 5.12603 3.11211 4.94207 3.28711 4.85907Z" fill="#25314C"/>
<path d="M18 9.75H15C14.586 9.75 14.25 9.414 14.25 9C14.25 8.586 14.586 8.25 15 8.25H18C18.414 8.25 18.75 8.586 18.75 9C18.75 9.414 18.414 9.75 18 9.75ZM17.75 12C17.75 11.586 17.414 11.25 17 11.25H15C14.586 11.25 14.25 11.586 14.25 12C14.25 12.414 14.586 12.75 15 12.75H17C17.414 12.75 17.75 12.414 17.75 12Z" fill="#25314C"/>
</svg>
