<svg width="24" height="24" viewBox="0 0 24 24" fill="none" xmlns="http://www.w3.org/2000/svg">
<path opacity="0.4" d="M6 21C4 21 3 20 3 18V6C3 4 4 3 6 3H14C16 3 17 4 17 6V19C17 20.104 17.895 21 19 21H6Z" fill="#25314C"/>
<path d="M17 10H19.5C20.33 10 21 10.67 21 11.5V19C21 19.55 20.78 20.05 20.41 20.41C20.05 20.78 19.55 21 19 21C17.9 21 17 20.1 17 19V10Z" fill="#25314C"/>
<path d="M13 14.75H7C6.586 14.75 6.25 14.414 6.25 14C6.25 13.586 6.586 13.25 7 13.25H13C13.414 13.25 13.75 13.586 13.75 14C13.75 14.414 13.414 14.75 13 14.75Z" fill="#25314C"/>
<path d="M10 17.75H7C6.586 17.75 6.25 17.414 6.25 17C6.25 16.586 6.586 16.25 7 16.25H10C10.414 16.25 10.75 16.586 10.75 17C10.75 17.414 10.414 17.75 10 17.75Z" fill="#25314C"/>
<path d="M10.321 9.70996C10.321 8.85396 9.75403 8.10804 8.93903 7.89404L8.00897 7.65405C7.91897 7.63005 7.86097 7.573 7.82397 7.526C7.77697 7.464 7.74902 7.37804 7.74902 7.29004C7.74902 7.08404 7.89797 6.91602 8.08197 6.91602H8.487C8.655 6.91602 8.79799 7.05795 8.81799 7.24695C8.86199 7.65895 9.22402 7.95299 9.64502 7.91199C10.057 7.86799 10.354 7.49696 10.31 7.08496C10.228 6.32396 9.70597 5.719 9.02197 5.505V5.5C9.02197 5.086 8.68597 4.75 8.27197 4.75C7.85797 4.75 7.52197 5.086 7.52197 5.5V5.51501C6.78597 5.75801 6.24902 6.45704 6.24902 7.29004C6.24902 7.70504 6.38401 8.11105 6.62701 8.43005C6.87601 8.76205 7.23202 9.00196 7.63202 9.10596L8.56097 9.34595C8.71397 9.38595 8.82098 9.53596 8.82098 9.70996C8.82098 9.84996 8.75299 9.94106 8.71399 9.98206C8.66999 10.0281 8.59398 10.083 8.48798 10.083H8.08301C7.91701 10.083 7.77201 9.93695 7.75201 9.75195C7.70701 9.33995 7.34199 9.04304 6.92499 9.08704C6.51299 9.13104 6.21601 9.50194 6.26001 9.91394C6.34101 10.6659 6.85097 11.2661 7.52197 11.4871V11.5C7.52197 11.914 7.85797 12.25 8.27197 12.25C8.68597 12.25 9.02197 11.914 9.02197 11.5V11.493C9.30897 11.403 9.57403 11.25 9.79303 11.024C10.134 10.67 10.321 10.203 10.321 9.70996Z" fill="#25314C"/>
</svg>
