<svg width="24" height="24" viewBox="0 0 24 24" fill="none" xmlns="http://www.w3.org/2000/svg">
<path opacity="0.3" d="M12 22L11 19H4.00001C3.45001 19 2.98001 18.804 2.58801 18.413C2.39869 18.2301 2.24884 18.0104 2.14771 17.7674C2.04658 17.5244 1.99631 17.2632 2.00001 17V4C2.00001 3.45 2.19601 2.979 2.58801 2.587C2.77078 2.39789 2.99037 2.24824 3.23322 2.14728C3.47607 2.04632 3.73703 1.9962 4.00001 2H10L10.875 5H20C20.583 5 21.063 5.187 21.438 5.562C21.813 5.937 22 6.417 22 7V20C22.0046 20.261 21.9573 20.5203 21.8608 20.7629C21.7644 21.0055 21.6206 21.2265 21.438 21.413C21.063 21.804 20.583 22 20 22H12Z" fill="#25314C"/>
<path d="M13 21H20C20.3 21 20.542 20.904 20.725 20.712C20.8157 20.6174 20.8867 20.5058 20.9339 20.3836C20.9811 20.2613 21.0035 20.131 21 20V7C21 6.7 20.908 6.458 20.725 6.275C20.542 6.092 20.3 6 20 6H11.175L12.35 10.05H14.325V9H15.35V10.05H19V11.075H17.725C17.5534 11.7206 17.3014 12.3421 16.975 12.925C16.6431 13.523 16.2493 14.0844 15.8 14.6L18.525 17.275L17.8 18L15.1 15.3L14.2 16.225L15 19L13 21Z" fill="#25314C"/>
<path d="M15.1 13.825C15.567 13.275 15.921 12.75 16.163 12.25C16.404 11.75 16.567 11.358 16.65 11.075H12.675L12.975 12.125H13.975C14.108 12.375 14.267 12.646 14.45 12.938C14.633 13.229 14.85 13.525 15.1 13.825ZM13.85 15.1L14.4 14.575C14.1786 14.3071 13.9661 14.032 13.763 13.75C13.5647 13.4739 13.3769 13.1903 13.2 12.9L13.85 15.1ZM7.15001 14.6C8.30001 14.6 9.24601 14.23 9.98801 13.488C10.729 12.746 11.1 11.783 11.1 10.6C11.1004 10.4789 11.0964 10.3578 11.088 10.237C11.0782 10.1229 11.0571 10.01 11.025 9.9H7.07501V11.45H9.30001C9.18405 11.892 8.9133 12.2777 8.53701 12.537C8.16201 12.796 7.70801 12.925 7.17501 12.925C6.52501 12.925 5.96701 12.692 5.50001 12.225C5.03301 11.758 4.80001 11.183 4.80001 10.5C4.80001 9.817 5.03301 9.242 5.50001 8.775C5.71656 8.55007 5.97692 8.37191 6.26501 8.25151C6.55309 8.13112 6.8628 8.07104 7.17501 8.075C7.47501 8.075 7.75801 8.129 8.02501 8.237C8.29201 8.346 8.53301 8.508 8.75001 8.725L9.97501 7.55C9.62501 7.183 9.20501 6.9 8.71301 6.7C8.21653 6.49911 7.68558 6.3972 7.15001 6.4C6.03301 6.4 5.08001 6.796 4.28801 7.587C3.49601 8.379 3.10001 9.35 3.10001 10.5C3.10001 11.65 3.49601 12.62 4.28801 13.412C5.07901 14.204 6.03301 14.6 7.15001 14.6Z" fill="#25314C"/>
</svg>
