<svg width="24" height="25" viewBox="0 0 24 25" fill="none" xmlns="http://www.w3.org/2000/svg">
<path opacity="0.3" d="M11.9999 22.5L10.9999 19.5H3.99995C3.44995 19.5 2.97995 19.304 2.58795 18.913C2.39863 18.7301 2.24878 18.5104 2.14765 18.2674C2.04652 18.0244 1.99625 17.7632 1.99995 17.5V4.5C1.99995 3.95 2.19595 3.479 2.58795 3.087C2.77072 2.89789 2.99031 2.74824 3.23316 2.64728C3.47601 2.54632 3.73697 2.4962 3.99995 2.5H9.99995L10.8749 5.5H19.9999C20.5829 5.5 21.0629 5.687 21.4379 6.062C21.8129 6.437 21.9999 6.917 21.9999 7.5V20.5C22.0046 20.761 21.9573 21.0203 21.8608 21.2629C21.7643 21.5055 21.6206 21.7265 21.4379 21.913C21.0629 22.304 20.5829 22.5 19.9999 22.5H11.9999Z" fill="#687387"/>
<path d="M13 21.5H20C20.3 21.5 20.542 21.404 20.725 21.212C20.8157 21.1174 20.8867 21.0058 20.9339 20.8836C20.9811 20.7613 21.0036 20.631 21 20.5V7.5C21 7.2 20.908 6.958 20.725 6.775C20.542 6.592 20.3 6.5 20 6.5H11.175L12.35 10.55H14.325V9.5H15.35V10.55H19V11.575H17.725C17.5534 12.2206 17.3015 12.8421 16.975 13.425C16.6431 14.023 16.2493 14.5844 15.8 15.1L18.525 17.775L17.8 18.5L15.1 15.8L14.2 16.725L15 19.5L13 21.5Z" fill="#687387"/>
<path d="M15.1 14.325C15.567 13.775 15.921 13.25 16.163 12.75C16.404 12.25 16.567 11.858 16.65 11.575H12.675L12.975 12.625H13.975C14.108 12.875 14.267 13.146 14.45 13.438C14.633 13.729 14.85 14.025 15.1 14.325ZM13.85 15.6L14.4 15.075C14.1786 14.8071 13.9661 14.532 13.763 14.25C13.5646 13.9739 13.3768 13.6903 13.2 13.4L13.85 15.6ZM7.14998 15.1C8.29998 15.1 9.24598 14.73 9.98798 13.988C10.729 13.246 11.1 12.283 11.1 11.1C11.1004 10.9789 11.0964 10.8578 11.088 10.737C11.0782 10.6229 11.0571 10.51 11.025 10.4H7.07498V11.95H9.29998C9.18402 12.392 8.91327 12.7777 8.53698 13.037C8.16198 13.296 7.70798 13.425 7.17498 13.425C6.52498 13.425 5.96698 13.192 5.49998 12.725C5.03298 12.258 4.79998 11.683 4.79998 11C4.79998 10.317 5.03298 9.742 5.49998 9.275C5.71653 9.05008 5.97689 8.87192 6.26498 8.75152C6.55306 8.63113 6.86277 8.57105 7.17498 8.575C7.47498 8.575 7.75798 8.629 8.02498 8.737C8.29198 8.846 8.53298 9.008 8.74998 9.225L9.97498 8.05C9.62498 7.683 9.20498 7.4 8.71298 7.2C8.2165 6.99912 7.68555 6.89721 7.14998 6.9C6.03298 6.9 5.07998 7.296 4.28798 8.087C3.49598 8.879 3.09998 9.85 3.09998 11C3.09998 12.15 3.49598 13.12 4.28798 13.912C5.07898 14.704 6.03298 15.1 7.14998 15.1Z" fill="#687387"/>
</svg>
