<svg width="24" height="24" viewBox="0 0 24 24" fill="none" xmlns="http://www.w3.org/2000/svg">
<path opacity="0.4" d="M4.94995 17.212C3.72995 15.892 3 14.121 3 12.001C3 6.99998 7.03 4 12 4C16.97 4 21 6.99998 21 12.001C21 17.002 16.97 20.002 12 20.002C10.72 20.002 9.50991 19.802 8.40991 19.422C7.06991 20.852 4.87996 21.0419 3.45996 20.9919C3.02996 20.9819 2.83992 20.432 3.16992 20.152C4.25992 19.273 4.79995 18.173 4.94995 17.212Z" fill="#25314C"/>
<path d="M12.02 13C11.468 13 11.0149 12.552 11.0149 12C11.0149 11.448 11.458 11 12.01 11H12.02C12.573 11 13.02 11.448 13.02 12C13.02 12.552 12.572 13 12.02 13ZM17.02 12C17.02 11.448 16.573 11 16.02 11H16.01C15.458 11 15.0149 11.448 15.0149 12C15.0149 12.552 15.468 13 16.02 13C16.572 13 17.02 12.552 17.02 12ZM9.02002 12C9.02002 11.448 8.57302 11 8.02002 11H8.01001C7.45801 11 7.01489 11.448 7.01489 12C7.01489 12.552 7.46802 13 8.02002 13C8.57202 13 9.02002 12.552 9.02002 12Z" fill="#25314C"/>
</svg>
