<svg width="24" height="24" viewBox="0 0 24 24" fill="none" xmlns="http://www.w3.org/2000/svg">
<path opacity="0.4" d="M8.19 18.069L8.18701 18.067C7.25501 17.527 6.105 17.525 5.172 18.063C5.013 18.155 4.80901 18.1 4.71701 17.942L3.04502 15.057C2.95302 14.898 3.00699 14.695 3.16599 14.603L3.17499 14.598C4.10299 14.06 4.67399 13.067 4.67099 11.995C4.66799 10.924 4.09702 9.93599 3.17002 9.39899L3.16501 9.396C3.00701 9.304 2.95301 9.10201 3.04401 8.94501L4.71701 6.05701C4.80901 5.89901 5.01102 5.845 5.17002 5.936C6.10402 6.474 7.25401 6.47301 8.18701 5.93201L8.19 5.931C9.11501 5.395 9.685 4.40601 9.685 3.33701C9.685 3.15101 9.83601 3.00101 10.022 3.00101H13.977C14.163 3.00101 14.314 3.15201 14.314 3.33701C14.314 4.40601 14.884 5.395 15.809 5.931L15.812 5.93201C16.745 6.47301 17.895 6.474 18.829 5.936C18.988 5.845 19.19 5.89901 19.282 6.05701L20.954 8.94299C21.046 9.10199 20.992 9.305 20.833 9.397L20.825 9.401C19.898 9.938 19.327 10.93 19.329 12.001C19.331 13.073 19.902 14.064 20.83 14.602L20.834 14.604C20.992 14.696 21.046 14.898 20.954 15.055L19.281 17.943C19.189 18.101 18.987 18.155 18.828 18.064C17.894 17.526 16.743 17.527 15.811 18.068L15.809 18.069C14.883 18.606 14.314 19.594 14.314 20.664C14.314 20.849 14.163 20.999 13.978 20.999H10.019C9.83301 20.999 9.68202 20.849 9.68302 20.663C9.68402 19.595 9.11501 18.606 8.19 18.069Z" fill="#25314C"/>
<path d="M12.001 15C13.6578 15 15.001 13.6569 15.001 12C15.001 10.3431 13.6578 9 12.001 9C10.3441 9 9.00098 10.3431 9.00098 12C9.00098 13.6569 10.3441 15 12.001 15Z" fill="#25314C"/>
</svg>
