<svg width="22" height="20" viewBox="0 0 22 20" fill="none" xmlns="http://www.w3.org/2000/svg">
<path d="M10.83 18.355C10.722 18.394 10.611 18.416 10.5 18.439V9.16102C10.815 9.11602 11.126 9.045 11.423 8.916L18.343 5.84101C18.437 6.10501 18.5 6.38002 18.5 6.66902V8.998C18.5 9.274 18.724 9.498 19 9.498C19.276 9.498 19.5 9.274 19.5 8.998V6.66902C19.5 6.06802 19.3381 5.49502 19.0601 4.98902C19.0581 4.98502 19.059 4.98002 19.057 4.97602C19.052 4.96602 19.043 4.95902 19.038 4.94902C18.676 4.31002 18.121 3.783 17.423 3.473L11.425 0.805004C10.518 0.398004 9.47903 0.398996 8.57703 0.803996L2.57703 3.473C1.87903 3.783 1.32404 4.31002 0.962036 4.95002C0.957036 4.96002 0.947993 4.966 0.942993 4.977C0.940993 4.981 0.941941 4.986 0.939941 4.99C0.661941 5.496 0.5 6.06902 0.5 6.67002V13.327C0.5 14.708 1.31503 15.962 2.57703 16.523L8.57495 19.191C9.03195 19.397 9.51705 19.5 10.0031 19.5C10.3971 19.5 10.791 19.432 11.17 19.295C11.43 19.201 11.5649 18.915 11.4709 18.655C11.3759 18.396 11.087 18.261 10.83 18.355ZM8.98499 1.719C9.62899 1.43 10.369 1.42801 11.016 1.72001L17.016 4.38902C17.329 4.52802 17.585 4.74302 17.811 4.98402L14.64 6.39302L6.78699 2.69603L8.98499 1.719ZM2.98303 4.38801L5.57996 3.23301L13.432 6.929L11.019 8.00102C10.373 8.28302 9.62903 8.28403 8.98303 8.00203L2.18799 4.98301C2.41399 4.74201 2.67003 4.52701 2.98303 4.38801ZM2.98303 15.609C2.08203 15.209 1.5 14.313 1.5 13.327V6.67002C1.5 6.38102 1.56298 6.10502 1.65698 5.84202L8.57996 8.91801C8.87496 9.04701 9.186 9.117 9.5 9.162V18.443C9.325 18.406 9.15103 18.355 8.98303 18.279L2.98303 15.609ZM17 10.499C14.519 10.499 12.5 12.518 12.5 14.999C12.5 17.48 14.519 19.499 17 19.499C19.481 19.499 21.5 17.48 21.5 14.999C21.5 12.518 19.481 10.499 17 10.499ZM17 18.499C15.07 18.499 13.5 16.929 13.5 14.999C13.5 13.069 15.07 11.499 17 11.499C18.93 11.499 20.5 13.069 20.5 14.999C20.5 16.929 18.93 18.499 17 18.499ZM18.604 13.812C18.799 14.007 18.799 14.324 18.604 14.519L16.937 16.186C16.843 16.28 16.716 16.332 16.583 16.332C16.45 16.332 16.323 16.279 16.229 16.186L15.396 15.353C15.201 15.158 15.201 14.841 15.396 14.646C15.591 14.451 15.908 14.451 16.103 14.646L16.582 15.126L17.895 13.813C18.092 13.617 18.408 13.617 18.604 13.812Z" fill="#25314C"/>
</svg>
