<svg width="24" height="24" viewBox="0 0 24 24" fill="none" xmlns="http://www.w3.org/2000/svg">
<path opacity="0.4" d="M12 22C17.5228 22 22 17.5228 22 12C22 6.47715 17.5228 2 12 2C6.47715 2 2 6.47715 2 12C2 17.5228 6.47715 22 12 22Z" fill="#25314C"/>
<path d="M16.675 11.9521C16.054 15.1551 12 17 12 17C12 17 7.94594 15.1551 7.32494 11.9521C6.94394 9.98706 7.77603 8.01003 9.89403 8.00003C11.471 7.99203 12 9.582 12 9.582C12 9.582 12.5289 7.99203 14.1059 8.00003C16.2279 8.01003 17.056 9.98706 16.675 11.9521Z" fill="#25314C"/>
</svg>
