<svg width="24" height="24" viewBox="0 0 24 24" fill="none" xmlns="http://www.w3.org/2000/svg">
<path opacity="0.4" d="M16.5 7.5H14.5C12.286 7.5 11.5 9.12103 11.5 10.509C11.5 11.774 12.229 12.5 13.501 12.5H17.499C18.77 12.5 19.5 11.774 19.5 10.509C19.5 9.12103 18.714 7.5 16.5 7.5Z" fill="#25314C"/>
<path d="M15.505 6C16.7476 6 17.755 4.99264 17.755 3.75C17.755 2.50736 16.7476 1.5 15.505 1.5C14.2624 1.5 13.255 2.50736 13.255 3.75C13.255 4.99264 14.2624 6 15.505 6Z" fill="#25314C"/>
<path opacity="0.4" d="M8.5 17.5H6.5C4.286 17.5 3.5 19.121 3.5 20.509C3.5 21.774 4.22898 22.5 5.50098 22.5H9.49902C10.77 22.5 11.5 21.774 11.5 20.509C11.5 19.121 10.714 17.5 8.5 17.5Z" fill="#25314C"/>
<path d="M7.505 16C8.74765 16 9.755 14.9926 9.755 13.75C9.755 12.5074 8.74765 11.5 7.505 11.5C6.26236 11.5 5.255 12.5074 5.255 13.75C5.255 14.9926 6.26236 16 7.505 16Z" fill="#25314C"/>
<path d="M3.00102 11.8549C2.97402 11.8549 2.94599 11.8539 2.91899 11.8509C2.50699 11.8059 2.20905 11.435 2.25505 11.024C2.61705 7.70599 4.61903 4.8499 7.61003 3.3819C7.84303 3.2679 8.11708 3.28189 8.33708 3.41889C8.55708 3.55589 8.69109 3.79697 8.69109 4.05597V7.1059C8.69109 7.5199 8.35509 7.8559 7.94109 7.8559C7.52709 7.8559 7.19109 7.5199 7.19109 7.1059V5.36493C5.26709 6.70293 4.00602 8.80493 3.74602 11.1879C3.70302 11.5709 3.37902 11.8549 3.00102 11.8549Z" fill="#25314C"/>
<path d="M16.0601 20.806C15.9221 20.806 15.7849 20.768 15.6639 20.693C15.4439 20.556 15.3101 20.315 15.3101 20.056V17.0059C15.3101 16.5919 15.6461 16.2559 16.0601 16.2559C16.4741 16.2559 16.8101 16.5919 16.8101 17.0059V18.7469C18.7341 17.4089 19.995 15.3069 20.255 12.9239C20.3 12.5119 20.6681 12.218 21.0811 12.26C21.4931 12.305 21.791 12.676 21.745 13.087C21.383 16.404 19.381 19.261 16.39 20.729C16.285 20.78 16.1731 20.806 16.0601 20.806Z" fill="#25314C"/>
</svg>
