<svg width="347" height="347" viewBox="0 0 347 347" fill="none" xmlns="http://www.w3.org/2000/svg">
<g clip-path="url(#clip0_132_8627)">
<path d="M97.5476 319.989C95.2612 321.182 93.4748 323.15 92.5092 325.541C90.0048 322.886 88.5412 319.417 88.3868 315.77C86.9685 316.373 85.7744 317.404 84.9716 318.719C84.1689 320.035 83.7979 321.569 83.9105 323.105L70.6482 310.724C69.968 315.596 69.274 320.468 68.5662 325.34C66.0287 318.1 62.3606 311.307 57.6981 305.214C57.601 310.734 57.5061 316.249 57.4136 321.759C51.0071 308.908 41.4999 297.855 29.7507 289.599C33.2207 297.275 36.6907 305.027 38.4466 313.271C35.1521 306.69 29.761 301.391 23.123 298.212C30.2949 307.859 35.3724 318.898 38.0302 330.621L101.649 330.663C101.649 330.663 98.9425 323.661 103.662 321.301L97.5476 319.989Z" fill="#EBEBEB"/>
<path d="M97.405 103.256C113.558 87.1034 113.558 60.9142 97.405 44.7612C81.252 28.6081 55.0628 28.6081 38.9097 44.7612C22.7567 60.9142 22.7567 87.1034 38.9097 103.256C55.0628 119.409 81.252 119.409 97.405 103.256Z" fill="#EBEBEB"/>
<path d="M332.224 269.584C325.517 273.373 319.773 278.658 315.44 285.027C311.107 291.397 308.301 298.68 307.24 306.311C307.443 293.496 309.536 280.781 313.452 268.578C304.19 279.856 298.717 293.765 297.809 308.33L296.06 284.193C290.342 295.297 289.814 308.219 289.453 320.683C287 315.516 283.595 310.857 279.418 306.949C281.028 314.583 282.666 323.147 284.276 330.802L317.276 330.726L316.658 324.133C314.731 304.633 320.296 285.13 332.224 269.584Z" fill="#EBEBEB"/>
<path d="M302.132 118.487C302.576 115.287 298.065 112.664 294.678 112.386C293.061 112.261 291.382 112.504 289.82 111.97C286.503 110.818 285.177 106.529 281.943 105.162C279.521 104.142 276.738 105.051 274.393 106.231C272.047 107.41 269.729 108.902 267.106 109.069C264.829 109.215 262.352 108.375 260.36 109.485C258.875 110.311 258.091 112.025 256.723 113.032C255.356 114.038 253.635 114.232 251.97 114.323C250.304 114.413 248.59 114.427 247.077 115.121C245.564 115.815 244.301 117.418 244.62 119.056L302.132 118.487Z" fill="#F5F5F5"/>
<path d="M215.881 60.475C216.263 57.699 212.341 55.4088 209.392 55.1729C208.004 55.0618 206.526 55.277 205.193 54.812C202.306 53.8057 201.154 50.0789 198.343 48.8921C196.261 48.0038 193.812 48.795 191.771 49.8221C189.731 50.8492 187.718 52.1401 185.435 52.2858C183.45 52.4107 181.271 51.6751 179.564 52.6467C178.273 53.3407 177.593 54.8536 176.399 55.735C175.205 56.6164 173.713 56.776 172.235 56.8593C170.784 56.8212 169.338 57.0566 167.974 57.5533C166.655 58.1571 165.566 59.552 165.837 60.9747L215.881 60.475Z" fill="#EBEBEB"/>
<path d="M107.52 171.848C108.054 167.969 102.572 164.776 98.4562 164.443C96.4992 164.284 94.4588 164.582 92.5989 163.937C88.5737 162.549 86.9636 157.33 83.0286 155.671C80.093 154.429 76.7063 155.532 73.8609 156.969C71.0155 158.405 68.1979 160.203 65.0124 160.439C62.2364 160.612 59.2383 159.585 56.8163 160.938C55.0119 161.945 54.0403 164.027 52.4024 165.255C50.7646 166.483 48.6548 166.706 46.6353 166.817C44.6157 166.928 42.5268 166.948 40.6877 167.788C38.8486 168.628 37.3218 170.564 37.7035 172.563L107.52 171.848Z" fill="#EBEBEB"/>
<path d="M284.195 170.873C294.431 167.279 299.815 156.069 296.222 145.833C292.629 135.597 281.418 130.212 271.182 133.806C260.946 137.399 255.561 148.61 259.155 158.846C262.748 169.082 273.959 174.466 284.195 170.873Z" fill="#EBEBEB"/>
<path d="M272.254 153.173C271.698 153.479 271.063 153.614 270.43 153.56C269.796 153.506 269.193 153.265 268.697 152.868C268.201 152.472 267.833 151.936 267.641 151.331C267.449 150.725 267.44 150.076 267.617 149.465C267.793 148.855 268.147 148.311 268.633 147.901C269.119 147.492 269.716 147.235 270.347 147.165C270.979 147.095 271.617 147.213 272.181 147.505C272.746 147.798 273.211 148.251 273.517 148.807C273.722 149.177 273.852 149.583 273.899 150.002C273.946 150.422 273.91 150.847 273.793 151.252C273.675 151.658 273.479 152.036 273.215 152.366C272.951 152.695 272.625 152.97 272.254 153.173Z" fill="white"/>
<path d="M278.183 144.699C277.859 144.876 277.491 144.954 277.123 144.922C276.755 144.89 276.406 144.75 276.118 144.519C275.83 144.288 275.617 143.978 275.505 143.626C275.394 143.274 275.389 142.897 275.492 142.543C275.594 142.188 275.8 141.872 276.082 141.635C276.364 141.397 276.71 141.248 277.077 141.207C277.444 141.166 277.814 141.234 278.142 141.404C278.47 141.573 278.74 141.836 278.919 142.159C279.037 142.374 279.113 142.61 279.14 142.854C279.167 143.098 279.146 143.346 279.078 143.581C279.01 143.817 278.895 144.038 278.742 144.229C278.588 144.421 278.398 144.581 278.183 144.699Z" fill="white"/>
<path d="M265.455 138.009C265.198 138.252 242.754 131.249 241.824 136.753C240.894 142.256 257.564 154.068 276.212 161.702C294.86 169.336 315.256 174.451 316.936 169.051C318.615 163.652 298.593 152.305 298.593 152.305L298.413 155.081C298.413 155.081 310.794 161.792 310.017 166.497C309.239 171.203 293.992 167.407 277.073 159.516C260.153 151.625 246.356 142.589 247.925 139.154C249.493 135.718 263.428 140.188 263.428 140.188L265.455 138.009Z" fill="#E0E0E0"/>
<path d="M285.802 136.225C285.712 136.461 284.074 135.836 281.354 135.607C277.83 135.269 274.284 135.966 271.152 137.615C268.019 139.263 265.436 141.79 263.719 144.886C262.366 147.26 261.95 148.96 261.707 148.904C261.464 148.849 261.575 147.051 262.762 144.393C263.468 142.842 264.404 141.405 265.538 140.132C268.33 136.934 272.215 134.893 276.433 134.407C278.126 134.197 279.841 134.241 281.52 134.539C284.359 135.066 285.886 136.079 285.802 136.225Z" fill="white"/>
<path d="M312.636 90.6217C319.353 88.2657 322.887 80.9111 320.531 74.1947C318.175 67.4783 310.821 63.9435 304.104 66.2995C297.388 68.6555 293.853 76.0101 296.209 82.7265C298.565 89.4429 305.92 92.9777 312.636 90.6217Z" fill="#E0E0E0"/>
<path d="M312.569 73.564C312.582 73.1551 312.714 72.7589 312.95 72.4248C313.186 72.0907 313.516 71.8336 313.897 71.6856C314.278 71.5375 314.695 71.5051 315.094 71.5923C315.494 71.6796 315.859 71.8826 316.144 72.1762C316.429 72.4697 316.621 72.8406 316.697 73.2427C316.772 73.6448 316.727 74.0601 316.568 74.4369C316.409 74.8138 316.142 75.1353 315.801 75.3614C315.46 75.5876 315.06 75.7082 314.651 75.7084C314.373 75.7086 314.097 75.6527 313.84 75.5442C313.583 75.4357 313.351 75.2767 313.157 75.0767C312.962 74.8767 312.81 74.6398 312.709 74.3799C312.609 74.1201 312.561 73.8426 312.569 73.564Z" fill="#F5F5F5"/>
<path d="M316.776 78.4219C316.781 78.1804 316.858 77.946 316.997 77.7483C317.136 77.5506 317.33 77.3984 317.555 77.3111C317.781 77.2238 318.027 77.2052 318.263 77.2577C318.498 77.3102 318.713 77.4315 318.88 77.6061C319.047 77.7808 319.158 78.001 319.2 78.2389C319.242 78.4768 319.212 78.7217 319.115 78.9428C319.017 79.1638 318.856 79.3509 318.653 79.4806C318.449 79.6102 318.211 79.6765 317.97 79.6711C317.809 79.6684 317.65 79.6338 317.503 79.5694C317.356 79.505 317.223 79.412 317.112 79.2958C317.001 79.1796 316.914 79.0425 316.856 78.8925C316.799 78.7425 316.771 78.5825 316.776 78.4219Z" fill="#F5F5F5"/>
<path d="M315.137 82.1972C315.196 82.1972 315.255 82.2091 315.309 82.2324C315.364 82.2557 315.413 82.2897 315.454 82.3326C315.495 82.3754 315.526 82.4261 315.547 82.4816C315.568 82.537 315.577 82.5961 315.574 82.6553C315.574 82.7749 315.527 82.8897 315.442 82.9742C315.357 83.0588 315.243 83.1064 315.123 83.1064C315.003 83.1064 314.889 83.0588 314.804 82.9742C314.719 82.8897 314.672 82.7749 314.672 82.6553C314.671 82.5943 314.682 82.5337 314.705 82.4772C314.729 82.4208 314.763 82.3696 314.806 82.3268C314.85 82.2839 314.902 82.2504 314.958 82.2281C315.015 82.2059 315.076 82.1954 315.137 82.1972Z" fill="#F5F5F5"/>
<path d="M324.286 330.691C324.286 330.788 256.773 330.871 173.507 330.871C90.241 330.871 22.7148 330.788 22.7148 330.691C22.7148 330.594 90.2133 330.51 173.507 330.51C256.801 330.51 324.286 330.594 324.286 330.691Z" fill="#263238"/>
<path d="M69.462 330.691C69.417 330.58 69.3867 330.463 69.3718 330.344C69.3163 330.08 69.2538 329.747 69.1775 329.352C69.0248 328.484 68.7749 327.235 68.4349 325.701C67.5566 321.701 66.3281 317.785 64.7636 314C63.8815 311.927 62.8805 309.907 61.7655 307.949C61.2242 307.067 60.7384 306.207 60.211 305.45L59.4684 304.34C59.2116 303.993 58.9687 303.646 58.7744 303.347C58.3164 302.702 57.8583 302.161 57.4627 301.675C57.0672 301.189 56.7271 300.78 56.4287 300.453L55.7347 299.69C55.6504 299.605 55.578 299.51 55.5195 299.406C55.5195 299.406 55.6236 299.482 55.7902 299.641L56.4842 300.335C56.8799 300.718 57.253 301.124 57.6015 301.55C58.0041 302.022 58.4829 302.556 58.9895 303.195L59.6835 304.173C59.9403 304.527 60.1902 304.867 60.4539 305.284C60.9952 306.04 61.4949 306.894 62.0501 307.782C63.1809 309.746 64.1937 311.777 65.0829 313.862C66.6556 317.67 67.8572 321.621 68.6708 325.66C68.9831 327.207 69.1913 328.436 69.3024 329.345C69.351 329.747 69.3926 330.08 69.4273 330.351C69.4558 330.462 69.4675 330.577 69.462 330.691Z" fill="#263238"/>
<path d="M50.1488 309.815C50.5039 309.894 50.8503 310.008 51.1829 310.155C51.5833 310.299 51.9749 310.466 52.3557 310.655C52.7999 310.877 53.3273 311.099 53.8617 311.425C54.4622 311.753 55.0438 312.115 55.6037 312.508C56.2283 312.904 56.832 313.41 57.4844 313.896C60.2576 316.218 62.497 319.11 64.0496 322.377C64.3877 323.085 64.6889 323.81 64.9518 324.549C65.193 325.19 65.3992 325.843 65.5695 326.506C65.7499 327.11 65.8332 327.672 65.9373 328.158C66.0277 328.574 66.0903 328.996 66.1247 329.421C66.186 329.778 66.2116 330.141 66.201 330.504C66.1247 330.504 66.0067 328.963 65.3197 326.576C65.1389 325.924 64.9235 325.282 64.6742 324.653C64.4383 323.959 64.0913 323.265 63.7512 322.523C62.97 320.933 62.0405 319.42 60.9752 318.005C59.8766 316.607 58.6473 315.317 57.304 314.153C56.6655 313.639 56.0756 313.133 55.4649 312.765C54.9183 312.365 54.3507 311.994 53.7646 311.655C51.5923 310.385 50.1211 309.892 50.1488 309.815Z" fill="#263238"/>
<path d="M67.8307 289.023C67.8625 289.164 67.8788 289.309 67.8793 289.453C67.8793 289.773 67.9001 290.182 67.9418 290.682C67.9834 291.751 68.0597 293.291 68.1777 295.2C68.4137 299.003 68.8717 304.263 69.7392 310.017C70.6067 315.77 71.7032 320.94 72.5985 324.646C73.0427 326.506 73.4174 328.005 73.695 329.032C73.813 329.518 73.9171 329.914 73.9934 330.226C74.0358 330.364 74.0637 330.506 74.0767 330.649C74.0125 330.521 73.9614 330.386 73.924 330.247C73.8269 329.941 73.7089 329.553 73.5562 329.074C73.2439 328.047 72.8622 326.562 72.3487 324.709C69.8685 315.054 68.3848 305.171 67.9209 295.214C67.8377 293.305 67.796 291.744 67.803 290.689V289.453C67.7961 289.309 67.8054 289.165 67.8307 289.023Z" fill="#263238"/>
<path d="M43.5965 320.219C43.7817 320.268 43.9575 320.348 44.117 320.454C44.4432 320.628 44.8943 320.899 45.4426 321.26C46.8694 322.215 48.1826 323.331 49.3567 324.584C50.5233 325.85 51.5388 327.247 52.3826 328.748C52.7018 329.324 52.9447 329.796 53.0766 330.136C53.1732 330.301 53.2412 330.482 53.2778 330.67C52.8666 330.096 52.4888 329.498 52.1466 328.88C51.2525 327.445 50.2255 326.097 49.0791 324.854C47.9191 323.621 46.6484 322.497 45.2829 321.495C44.2489 320.697 43.5688 320.267 43.5965 320.219Z" fill="#263238"/>
<path d="M54.6175 319.24C54.7397 319.787 54.8094 320.345 54.8257 320.906C54.9298 321.947 55.0686 323.369 55.256 324.945C55.4434 326.52 55.6516 327.943 55.7973 328.97C55.9104 329.523 55.9708 330.085 55.9778 330.649C55.7724 330.122 55.628 329.572 55.5475 329.012C55.3393 327.991 55.0894 326.569 54.8951 324.986C54.7008 323.404 54.6106 321.967 54.5689 320.926C54.5223 320.364 54.5385 319.799 54.6175 319.24Z" fill="#263238"/>
<path d="M158.683 294.256C158.701 294.38 158.701 294.506 158.683 294.631L158.621 295.699C158.551 296.622 158.475 297.962 158.399 299.62C158.006 308.252 158.548 316.901 160.016 325.416C160.293 327.054 160.543 328.373 160.71 329.282C160.786 329.705 160.856 330.052 160.904 330.33C160.931 330.453 160.948 330.579 160.953 330.705C160.896 330.593 160.856 330.474 160.835 330.351L160.571 329.31C160.349 328.408 160.064 327.096 159.752 325.465C158.946 321.209 158.406 316.907 158.135 312.584C157.869 308.263 157.869 303.928 158.135 299.607C158.246 297.948 158.364 296.609 158.475 295.685C158.524 295.255 158.572 294.908 158.607 294.624C158.616 294.498 158.642 294.375 158.683 294.256Z" fill="#263238"/>
<path d="M164.298 314.021C164.198 314.829 164.054 315.63 163.868 316.422C163.59 317.894 163.243 319.941 162.993 322.217C162.743 324.493 162.639 326.569 162.591 328.068C162.602 328.881 162.565 329.694 162.48 330.503C162.426 330.29 162.398 330.071 162.396 329.851C162.396 329.435 162.341 328.824 162.334 328.068C162.317 326.102 162.417 324.137 162.632 322.182C162.848 320.226 163.177 318.285 163.618 316.367C163.791 315.631 163.951 315.041 164.069 314.639C164.114 314.422 164.191 314.214 164.298 314.021Z" fill="#263238"/>
<path d="M332.857 292.174C332.747 292.281 332.629 292.379 332.503 292.466L331.434 293.236L330.657 293.784C330.379 293.992 330.095 294.242 329.775 294.478C329.158 294.999 328.387 295.547 327.693 296.262L326.52 297.344C326.111 297.726 325.736 298.163 325.32 298.594C324.466 299.44 323.668 300.447 322.815 301.481C319.175 306.076 316.522 311.373 315.021 317.04C314.716 318.352 314.389 319.594 314.23 320.781C314.14 321.371 314.015 321.94 313.966 322.495C313.917 323.05 313.855 323.578 313.806 324.084C313.675 325.097 313.702 326.02 313.668 326.86C313.668 327.263 313.633 327.644 313.668 327.991C313.702 328.338 313.668 328.685 313.668 328.935C313.668 329.477 313.668 329.914 313.709 330.254C313.724 330.406 313.724 330.56 313.709 330.712C313.671 330.564 313.65 330.413 313.647 330.261C313.647 329.921 313.584 329.484 313.543 328.942C313.543 328.651 313.501 328.338 313.473 327.991C313.446 327.644 313.473 327.297 313.473 326.86C313.473 326.041 313.473 325.111 313.57 324.084C313.612 323.571 313.654 323.036 313.702 322.481C313.751 321.926 313.862 321.35 313.945 320.753C314.098 319.552 314.41 318.303 314.716 316.978C315.472 314.13 316.506 311.364 317.804 308.719C319.148 306.097 320.743 303.61 322.565 301.293C323.439 300.252 324.251 299.253 325.119 298.406C325.542 297.983 325.924 297.539 326.34 297.171L327.541 296.088C328.283 295.394 329.047 294.846 329.685 294.339C330.004 294.096 330.296 293.854 330.587 293.645L331.378 293.118L332.489 292.424C332.602 292.328 332.726 292.244 332.857 292.174Z" fill="#263238"/>
<path d="M328.741 311.037C328.783 311.092 327.7 311.863 326.145 313.334C325.242 314.197 324.389 315.113 323.592 316.075C322.62 317.256 321.729 318.501 320.927 319.802C320.144 321.116 319.449 322.479 318.845 323.883C318.358 325.035 317.938 326.214 317.588 327.415C316.992 329.497 316.797 330.781 316.735 330.767C316.73 330.455 316.761 330.143 316.825 329.837C316.867 329.539 316.922 329.178 317.012 328.762C317.103 328.345 317.193 327.859 317.339 327.374C317.659 326.14 318.062 324.93 318.546 323.751C319.72 320.884 321.341 318.22 323.349 315.86C324.167 314.898 325.048 313.992 325.986 313.147C326.381 312.779 326.77 312.453 327.096 312.21C327.376 311.964 327.668 311.732 327.971 311.516C328.208 311.327 328.467 311.167 328.741 311.037Z" fill="#263238"/>
<path d="M102.303 144.782L102.448 144.748C101.643 144.742 100.848 144.922 100.124 145.275C99.4374 145.599 98.7941 146.007 98.2081 146.489C96.9797 147.461 95.904 148.627 94.5923 149.481C92.5411 150.812 90.058 151.309 87.6523 150.869C88.7766 152.798 91.2889 153.52 93.5028 153.228C95.7166 152.937 97.7084 151.84 99.7002 150.82C102.962 149.191 106.336 147.8 109.798 146.656C108.748 145.838 107.539 145.249 106.249 144.926C104.958 144.603 103.614 144.554 102.303 144.782Z" fill="#FF725E"/>
<g opacity="0.3">
<path d="M102.303 144.782L102.448 144.748C101.643 144.742 100.848 144.922 100.124 145.275C99.4374 145.599 98.7941 146.007 98.2081 146.489C96.9797 147.461 95.904 148.627 94.5923 149.481C92.5411 150.812 90.058 151.309 87.6523 150.869C88.7766 152.798 91.2889 153.52 93.5028 153.228C95.7166 152.937 97.7084 151.84 99.7002 150.82C102.962 149.191 106.336 147.8 109.798 146.656C108.748 145.838 107.539 145.249 106.249 144.926C104.958 144.603 103.614 144.554 102.303 144.782Z" fill="black"/>
</g>
<path d="M212.606 185.395C212.606 185.395 217.284 187.096 221.066 185.687C224.849 184.278 226.806 183.667 226.806 183.667L228.249 183.57L229.242 192.488L226.625 195.708L225.043 193.855L224.46 188.72C224.46 188.72 216.68 190.316 211.496 188.914L212.606 185.395Z" fill="#263238"/>
<g filter="url(#filter0_dn_132_8627)">
<path d="M209.827 202.646C208.51 195.63 209.57 189.751 213.006 185.007C216.442 180.263 221.834 177.059 229.181 175.393C234.057 174.288 238.41 174.19 242.239 175.099C246.133 175.994 249.29 177.705 251.708 180.233C254.192 182.746 255.847 185.823 256.672 189.464C257.645 193.755 257.368 197.509 255.841 200.726C254.3 203.878 252.209 206.266 249.57 207.89L249.658 208.28C253.644 208.675 257.034 210.06 259.828 212.434C262.622 214.809 264.528 218.239 265.545 222.725C266.459 226.756 266.326 230.546 265.148 234.094C264.021 237.563 261.868 240.58 258.69 243.146C255.577 245.697 251.582 247.526 246.706 248.631C238.904 250.4 232.227 249.897 226.676 247.122C221.191 244.332 217.441 239.098 215.427 231.42L231.616 227.75C232.33 230.596 233.658 232.688 235.602 234.024C237.531 235.296 239.991 235.593 242.981 234.915C245.517 234.34 247.305 233.183 248.346 231.443C249.438 229.623 249.711 227.511 249.166 225.105C248.458 221.984 246.942 219.97 244.617 219.061C242.342 218.073 239.027 218.073 234.671 219.06L231.55 219.767L228.477 206.211L231.598 205.504C234.913 204.752 237.454 203.595 239.219 202.033C241.034 200.391 241.61 198.107 240.947 195.182C240.416 192.841 239.353 191.168 237.758 190.162C236.163 189.157 234.228 188.912 231.952 189.428C229.482 189.988 227.798 191.156 226.902 192.931C226.07 194.692 225.808 196.699 226.114 198.954L209.827 202.646Z" fill="#FF725E"/>
</g>
<path d="M186.513 149.744L182.106 127.536C182.106 127.536 159.946 85.8965 154.124 71.1143C148.301 56.3321 152.736 12.8738 152.736 12.8738C122.012 46.0956 127.627 91.268 127.627 91.268C150.598 117.133 146.816 144.352 146.816 144.352L186.513 149.744ZM141.882 64.896C141.679 64.8108 141.5 64.6787 141.358 64.5106C141.217 64.3425 141.117 64.1432 141.067 63.9291C141.018 63.7149 141.02 63.4921 141.074 63.279C141.127 63.0658 141.23 62.8684 141.375 62.703L142.763 61.0998C144.109 59.5314 146.559 59.7118 148.1 59.6563C149.641 59.6008 150.182 65.8329 147.836 66.3465C146.337 66.6657 143.658 65.6664 141.882 64.896Z" fill="#455A64"/>
<g opacity="0.3">
<path d="M147.26 144.352C147.26 144.352 163.326 147.128 165.818 145.254C168.309 143.381 173.167 137.107 173.167 137.107L180.648 124.92L174.368 112.761C174.368 112.761 175.929 129.848 168.385 134.06C160.842 138.273 146.982 139.744 146.982 139.744L147.26 144.352Z" fill="black"/>
</g>
<g opacity="0.2">
<path d="M147.127 135.517C154.408 131.561 161.292 126.913 167.683 121.637C168.433 121.02 169.231 119.944 168.599 119.201C168.141 118.66 167.281 118.813 166.6 119.014L146.551 124.92C146.157 124.99 145.797 125.19 145.531 125.489C145.318 125.921 145.285 126.421 145.44 126.877L147.418 136.274" fill="white"/>
</g>
<g opacity="0.2">
<path d="M164.381 93.9469C162.708 97.5765 160.737 101.581 157.441 104.156C154.144 106.73 150.223 108.445 146.253 109.909C145.205 110.298 143.949 110.957 144.046 111.991C144.143 113.025 145.497 113.483 146.6 113.622C154.561 114.641 162.649 113.385 169.926 109.999C170.238 109.897 170.527 109.734 170.776 109.519C171.025 109.305 171.229 109.043 171.376 108.75C171.488 108.19 171.381 107.609 171.078 107.126C169.544 103.947 166.504 98.5897 164.394 93.9399" fill="white"/>
</g>
<g opacity="0.2">
<path d="M137.829 104.857C140.251 109.34 144.221 97.2919 147.101 93.0585C147.814 92.1374 148.346 91.0895 148.669 89.9702C148.824 89.4092 148.83 88.8173 148.685 88.2535C148.54 87.6897 148.25 87.1738 147.843 86.757C147.392 86.4095 146.863 86.1783 146.301 86.0839C145.739 85.9895 145.163 86.0348 144.623 86.2157C143.549 86.5828 142.525 87.0841 141.577 87.7078C137.422 90.0683 132.717 91.2871 127.939 91.2402C127.939 91.2402 135.504 100.561 137.829 104.857Z" fill="white"/>
</g>
<g opacity="0.2">
<path d="M153.638 69.7749C151.126 70.4689 148.523 72.6203 145.726 73.2449C142.93 73.8695 140.015 74.0499 137.398 75.1326C136.337 75.5629 135.171 76.4442 135.393 77.5685C135.615 78.6928 136.85 79.0329 137.905 79.2202C144.432 80.3517 151.109 80.3094 157.622 79.0953C156.095 75.6253 154.964 73.467 153.673 69.7888" fill="white"/>
</g>
<g opacity="0.2">
<path d="M128.486 65.6455C134.712 62.5493 140.522 58.681 145.781 54.1321C146.266 53.7674 146.656 53.2914 146.919 52.7441C147.042 52.4662 147.065 52.1547 146.985 51.8616C146.906 51.5685 146.728 51.3117 146.482 51.134C146.05 50.9601 145.57 50.9454 145.128 51.0924L130.804 54.0974C129.805 58.1226 129.028 61.9951 128.486 65.6525" fill="white"/>
</g>
<g opacity="0.2">
<path d="M151.084 42.7297C147.001 42.4112 143.086 40.9701 139.771 38.5657C142.777 35.7065 147.156 34.6863 151.306 33.791C151.132 36.5115 151.111 40.1272 151.084 42.7575" fill="white"/>
</g>
<path d="M148.196 144.019C147.724 134.941 147.225 125.732 144.303 117.126C140.979 107.362 134.67 98.8604 127.543 91.3999C139.785 105.835 146.281 125.406 145.462 144.345L148.196 144.019Z" fill="#263238"/>
<path d="M301.106 51.0714C255.996 48.2954 221.664 63.2026 197.221 94.3562C197.221 94.3562 179.288 130.174 171.786 139.182C164.471 147.968 149.578 151.313 149.578 151.313L190.316 170.627L194.612 176.963L212.517 188.907C212.517 188.907 219.533 176.519 215.099 163.819C205.848 137.28 221.608 125.073 221.608 125.073C226.93 108.895 238.313 95.4086 253.366 87.444C263.325 65.6454 301.106 51.0714 301.106 51.0714ZM218.319 117.765C218.025 118.011 217.652 118.143 217.269 118.134C216.885 118.125 216.519 117.976 216.237 117.716C215.977 117.436 215.826 117.073 215.809 116.692C215.793 116.31 215.912 115.936 216.147 115.634L216.459 115.357C216.782 115.154 217.17 115.079 217.545 115.146C217.921 115.214 218.258 115.419 218.491 115.722C218.723 116.024 218.834 116.403 218.803 116.783C218.771 117.164 218.598 117.519 218.319 117.779V117.765ZM222.726 111.595C221.227 111.921 218.562 110.901 216.771 110.152C216.568 110.066 216.388 109.933 216.246 109.764C216.105 109.595 216.005 109.395 215.957 109.18C215.908 108.965 215.911 108.741 215.966 108.528C216.02 108.314 216.125 108.117 216.272 107.952L217.66 106.355C219.006 104.787 221.456 104.967 222.996 104.912C224.537 104.856 225.078 111.089 222.726 111.595Z" fill="#455A64"/>
<g opacity="0.2">
<path d="M210.678 85.6118C211.215 86.1864 211.865 86.6434 212.588 86.954C213.311 87.2646 214.09 87.4219 214.876 87.4162C216.45 87.395 218.01 87.1353 219.505 86.6459C226.677 84.6311 233.647 81.957 240.325 78.6579C241.186 78.2346 242.199 77.3532 241.713 76.5204C241.527 76.2953 241.289 76.1184 241.019 76.0048C240.75 75.8913 240.457 75.8443 240.166 75.868C235.641 75.521 229.756 75.174 225.217 74.834L210.678 85.6118Z" fill="white"/>
</g>
<g opacity="0.2">
<path d="M276.211 59.684C276.211 59.684 268.382 55.7282 270.076 54.9995C271.769 54.2708 281.145 53.7642 281.145 53.7642L276.211 59.684Z" fill="white"/>
</g>
<g opacity="0.2">
<path d="M242.427 63.5704C246.577 69.4673 252.837 73.5424 259.909 74.952C260.265 75.074 260.644 75.1174 261.019 75.079C261.394 75.0407 261.756 74.9216 262.081 74.7299C263.004 73.9665 262.539 72.4883 262.005 71.4195C260.473 68.3659 258.937 65.31 257.396 62.2518C257.031 61.2881 256.374 60.463 255.516 59.8922C254.433 59.3231 253.621 59.8922 252.136 60.378C248.832 61.5022 242.42 63.5634 242.42 63.5634" fill="white"/>
</g>
<path d="M225.043 187.561C224.486 187.491 223.938 187.368 223.405 187.193C223.405 187.193 216.521 190.725 213.828 189.663C211.135 188.602 200.233 178.657 201.412 171.855C205.118 167.865 207.36 161.952 198.47 155.609C182.508 144.248 150.688 144.075 150.688 144.075C146.927 143.884 143.159 143.923 139.403 144.192C133.504 144.637 128.598 141.979 126.911 141C125.225 140.022 119.041 134.872 119.041 134.872C119.041 134.872 139.861 120.957 139.466 120.527C139.07 120.097 109.381 130.979 109.381 130.979C109.381 130.979 72.1756 149.21 68.2337 152.881C64.8123 156.074 65.9366 156.58 65.9366 156.58C82.426 147.42 101.226 145.081 102.67 144.977C104.143 144.946 105.613 145.126 107.035 145.511C107.035 145.511 104.322 146.33 95.2928 152.042C89.0468 155.977 78.3522 162.23 75.9232 164.103C73.4942 165.977 73.6539 166.248 75.2292 166.567C76.8046 166.886 104.072 155.838 108.028 154.269C112.566 152.479 119.257 150.265 119.257 150.265C125.739 156.115 141.18 163.944 141.18 163.944C141.18 163.944 155.018 167.414 165.158 166.671C175.929 167.164 184.007 168.538 192.918 174.735C192.918 174.735 202.37 190.337 209.296 192.606C213.23 193.987 217.529 193.913 221.413 192.398L222.191 197.748L223.648 199.365L226.875 197.464C226.875 197.464 225.258 195.555 225.043 187.561Z" fill="#455A64"/>
<path d="M112.081 139.001C112.12 139.577 111.987 140.151 111.699 140.651C111.411 141.151 110.981 141.554 110.464 141.81C109.947 142.065 109.366 142.162 108.794 142.087C108.222 142.012 107.685 141.769 107.251 141.388C106.817 141.008 106.506 140.508 106.357 139.95C106.208 139.393 106.227 138.804 106.413 138.258C106.599 137.712 106.942 137.233 107.4 136.882C107.858 136.532 108.41 136.325 108.986 136.288C109.367 136.262 109.75 136.312 110.112 136.435C110.474 136.558 110.809 136.751 111.096 137.003C111.383 137.255 111.618 137.561 111.787 137.904C111.956 138.247 112.056 138.62 112.081 139.001Z" fill="white"/>
<path d="M111.567 139.022C111.599 139.496 111.489 139.969 111.252 140.381C111.015 140.792 110.662 141.125 110.236 141.335C109.81 141.546 109.331 141.626 108.86 141.565C108.389 141.503 107.947 141.303 107.59 140.991C107.232 140.678 106.975 140.266 106.852 139.807C106.729 139.348 106.744 138.863 106.896 138.413C107.049 137.963 107.331 137.569 107.708 137.279C108.085 136.99 108.539 136.819 109.013 136.787C109.327 136.766 109.643 136.806 109.942 136.907C110.241 137.008 110.517 137.167 110.754 137.374C110.991 137.582 111.185 137.834 111.325 138.117C111.464 138.4 111.546 138.707 111.567 139.022Z" fill="#263238"/>
<path d="M83.2792 146.198C83.1612 146.233 88.8312 142.333 89.0394 142.687C89.2476 143.04 88.9006 144.685 83.2792 146.198Z" fill="#263238"/>
<path d="M224.426 199.331C224.426 199.331 226.466 201.892 226.605 201.822C226.744 201.753 229.915 201.787 229.915 201.787L225.55 198.116L224.426 199.331Z" fill="#263238"/>
<path d="M225.342 198.352C225.342 198.352 227.493 200.76 227.632 200.691C227.771 200.622 230.935 200.649 230.935 200.649L226.584 196.985L225.342 198.352Z" fill="#263238"/>
<path d="M226.244 197.658C226.244 197.658 228.979 199.463 229.09 199.359C229.201 199.254 232.219 198.29 232.219 198.29L227.035 196.09L226.244 197.658Z" fill="#263238"/>
<g opacity="0.7">
<path d="M136.669 157.948C136.525 158.113 136.421 158.31 136.368 158.524C136.314 158.737 136.312 158.959 136.362 159.174C136.411 159.388 136.511 159.587 136.652 159.755C136.794 159.923 136.973 160.055 137.176 160.141C138.946 160.911 141.652 161.91 143.158 161.584C145.532 161.077 144.976 154.838 143.429 154.901C141.881 154.963 139.418 154.776 138.057 156.344C137.565 156.92 137.086 157.476 136.669 157.948Z" fill="white"/>
</g>
<g opacity="0.2">
<path d="M121.664 146.039C121.686 146.165 121.738 146.284 121.815 146.386C121.892 146.488 121.992 146.571 122.107 146.627C122.222 146.683 122.349 146.711 122.477 146.709C122.605 146.707 122.731 146.675 122.844 146.615C123.843 146.087 125.287 145.227 125.682 144.422C126.321 143.159 123.281 141.132 122.747 141.861C122.212 142.589 121.22 143.637 121.442 144.824C121.525 145.261 121.602 145.685 121.664 146.039Z" fill="white"/>
</g>
<g opacity="0.2">
<path d="M112.081 143.318C111.936 143.483 111.833 143.68 111.779 143.893C111.725 144.106 111.722 144.328 111.771 144.542C111.82 144.756 111.919 144.956 112.059 145.124C112.2 145.293 112.379 145.425 112.581 145.511C114.351 146.282 117.064 147.281 118.57 146.955C120.937 146.448 120.382 140.209 118.834 140.271C117.286 140.334 114.823 140.147 113.462 141.715L112.081 143.318Z" fill="white"/>
</g>
<g opacity="0.7">
<path d="M150.237 160.439C150.052 160.179 149.816 159.959 149.543 159.793C149.387 159.699 149.212 159.641 149.031 159.622C148.85 159.604 148.667 159.625 148.496 159.686C148.324 159.746 148.168 159.844 148.038 159.972C147.908 160.099 147.808 160.254 147.746 160.425C147.612 160.772 147.585 161.152 147.669 161.515C147.783 161.858 147.964 162.175 148.203 162.447C148.441 162.718 148.732 162.94 149.057 163.097C149.205 163.192 149.371 163.255 149.544 163.281C149.717 163.307 149.895 163.297 150.064 163.25C150.226 163.165 150.366 163.043 150.471 162.893C150.576 162.743 150.643 162.57 150.667 162.389C150.735 162.052 150.732 161.704 150.658 161.369C150.584 161.033 150.441 160.716 150.237 160.439Z" fill="white"/>
</g>
<g opacity="0.7">
<path d="M140.716 152.5C140.613 152.363 140.486 152.248 140.341 152.159C140.259 152.111 140.168 152.081 140.073 152.071C139.979 152.062 139.884 152.074 139.794 152.106C139.705 152.137 139.623 152.189 139.556 152.256C139.488 152.322 139.437 152.403 139.404 152.493C139.338 152.673 139.326 152.868 139.369 153.055C139.428 153.235 139.523 153.401 139.648 153.543C139.774 153.685 139.927 153.8 140.098 153.881C140.176 153.93 140.263 153.962 140.354 153.975C140.444 153.988 140.537 153.982 140.625 153.957C140.709 153.912 140.78 153.849 140.834 153.772C140.889 153.695 140.924 153.606 140.938 153.513C140.972 153.338 140.97 153.157 140.932 152.983C140.894 152.809 140.82 152.644 140.716 152.5Z" fill="white"/>
</g>
<g opacity="0.7">
<path d="M132.485 154.845C132.54 155.581 132.436 156.983 132.95 157.281C133.463 157.58 133.644 157.469 134.553 157.281C135.462 157.094 136.482 156.851 136.309 155.796C136.135 154.741 136.357 154.165 135.677 153.881C134.997 153.596 132.45 154.242 132.485 154.845Z" fill="white"/>
</g>
<g opacity="0.7">
<path d="M144.594 161.862C144.594 162.146 144.594 162.695 144.774 162.813C144.955 162.931 145.038 162.882 145.406 162.813C145.774 162.743 146.162 162.646 146.1 162.23C146.037 161.813 146.1 161.591 145.85 161.48C145.6 161.369 144.58 161.619 144.594 161.862Z" fill="white"/>
</g>
<g opacity="0.2">
<path d="M98.6105 139.529C98.6591 140.264 98.5619 141.666 99.0685 141.965C99.5752 142.263 99.7625 142.145 100.679 141.965C101.595 141.784 102.608 141.534 102.434 140.48C102.261 139.425 102.476 138.849 101.803 138.564C101.13 138.28 98.548 138.925 98.6105 139.529Z" fill="white"/>
</g>
<path d="M90.1775 142.27C90.2192 142.27 90.3094 142.541 90.2192 142.999C90.0823 143.584 89.7642 144.111 89.31 144.505C88.8704 144.887 88.3679 145.19 87.8249 145.4C87.4154 145.567 87.1309 145.636 87.1309 145.594C87.1309 145.553 87.3391 145.407 87.7138 145.185C88.2068 144.923 88.6718 144.611 89.1018 144.255C89.5053 143.895 89.815 143.443 90.004 142.936C90.1289 142.541 90.122 142.27 90.1775 142.27Z" fill="#263238"/>
<path d="M75.5273 166.38C75.5273 166.38 75.5829 166.331 75.7078 166.248L76.2491 165.901L78.3311 164.575L86.1317 159.773L97.7492 152.68C100.004 151.229 102.358 149.937 104.793 148.814C106.099 148.237 107.459 147.793 108.853 147.489C109.567 147.334 110.29 147.227 111.019 147.17C111.373 147.159 111.727 147.115 112.073 147.038C112.224 147.008 112.366 146.943 112.487 146.848C112.608 146.753 112.704 146.63 112.767 146.49C112.809 146.341 112.811 146.185 112.772 146.036C112.733 145.887 112.655 145.751 112.545 145.643C112.307 145.408 112.001 145.253 111.671 145.199C110.983 145.084 110.283 145.061 109.589 145.129C108.196 145.264 106.835 145.633 105.564 146.219C103.164 147.38 100.846 148.702 98.6237 150.175L87.0616 157.316L79.2541 162.098L77.1166 163.388L76.5614 163.715L76.3601 163.819C76.4172 163.771 76.4775 163.727 76.5406 163.687L77.0819 163.333L79.1639 161.987L86.9228 157.129L98.4502 149.904C100.684 148.415 103.017 147.079 105.432 145.907C106.747 145.301 108.155 144.921 109.596 144.782C110.334 144.711 111.078 144.737 111.81 144.859C112.206 144.932 112.572 145.123 112.858 145.407C113.007 145.561 113.113 145.752 113.165 145.96C113.217 146.169 113.214 146.387 113.156 146.594C113.072 146.789 112.942 146.961 112.776 147.094C112.61 147.227 112.414 147.317 112.205 147.357C111.838 147.438 111.464 147.487 111.088 147.503C110.371 147.56 109.659 147.666 108.957 147.822C107.585 148.119 106.245 148.554 104.96 149.12C102.534 150.233 100.188 151.511 97.9366 152.944L86.3121 159.974L78.4213 164.693L76.2769 165.956L75.7147 166.282L75.5273 166.38Z" fill="#263238"/>
<path d="M79.5318 163.819C79.4902 163.902 79.0113 163.68 78.8378 163.125C78.6643 162.57 78.8378 162.077 78.928 162.118C79.0182 162.16 78.9835 162.556 79.157 163.014C79.3305 163.472 79.5873 163.735 79.5318 163.819Z" fill="#263238"/>
<path d="M82.5847 161.806C82.5847 161.896 82.0642 161.806 81.7866 161.279C81.509 160.751 81.7033 160.286 81.7866 160.328C81.8699 160.37 81.8699 160.731 82.085 161.119C82.3002 161.508 82.6402 161.702 82.5847 161.806Z" fill="#263238"/>
<path d="M86.1809 159.856C86.0907 159.856 85.9103 159.502 85.6257 159.086C85.3412 158.669 85.0636 158.35 85.1261 158.274C85.1885 158.197 85.591 158.426 85.9103 158.898C86.2295 159.37 86.2712 159.835 86.1809 159.856Z" fill="#263238"/>
<path d="M89.4837 157.705C89.3935 157.705 89.1783 157.392 88.7897 157.052C88.4011 156.712 88.0957 156.504 88.0957 156.407C88.0957 156.31 88.5954 156.407 89.0048 156.809C89.4143 157.212 89.5739 157.677 89.4837 157.705Z" fill="#263238"/>
<path d="M93.468 155.456C93.3917 155.512 93.1002 155.227 92.7393 154.894C92.3784 154.561 92.0453 154.297 92.1147 154.2C92.1841 154.103 92.5727 154.269 92.9683 154.63C93.3639 154.991 93.5443 155.387 93.468 155.456Z" fill="#263238"/>
<path d="M96.3828 153.853C96.2856 153.853 96.1329 153.451 95.8206 153.013C95.5083 152.576 95.1613 152.319 95.2168 152.201C95.2724 152.083 95.7373 152.312 96.0982 152.819C96.4591 153.326 96.466 153.846 96.3828 153.853Z" fill="#263238"/>
<path d="M101.213 150.688C101.116 150.688 101.018 150.258 100.748 149.814C100.477 149.37 100.144 149.071 100.199 148.988C100.255 148.905 100.72 149.106 101.039 149.64C101.358 150.175 101.324 150.688 101.213 150.688Z" fill="#263238"/>
<path d="M105.404 148.599C105.313 148.599 105.313 148.169 105.091 147.732C104.869 147.295 104.55 147.038 104.592 146.961C104.633 146.885 105.126 147.031 105.397 147.586C105.667 148.141 105.487 148.634 105.404 148.599Z" fill="#263238"/>
<path d="M109.652 147.475C109.555 147.475 109.652 146.85 109.34 146.205C109.028 145.56 108.576 145.192 108.646 145.108C108.715 145.025 109.34 145.303 109.673 146.073C110.006 146.843 109.708 147.51 109.652 147.475Z" fill="#263238"/>
<path d="M114.072 139.799C114.072 139.834 113.913 139.758 113.649 139.765C113.271 139.805 112.917 139.968 112.643 140.23C112.252 140.66 111.902 141.125 111.595 141.618C111.366 141.925 111.075 142.182 110.742 142.372C110.409 142.562 110.04 142.681 109.658 142.721C108.898 142.804 108.132 142.633 107.479 142.235C106.957 141.92 106.505 141.499 106.154 141C105.804 140.569 105.552 140.067 105.418 139.529C105.473 139.529 105.723 140.084 106.341 140.854C106.698 141.302 107.136 141.678 107.632 141.965C108.233 142.31 108.928 142.455 109.617 142.381C109.955 142.349 110.284 142.248 110.581 142.083C110.878 141.918 111.138 141.694 111.345 141.423C111.674 140.92 112.058 140.454 112.49 140.035C112.812 139.759 113.225 139.613 113.649 139.626C113.954 139.668 114.079 139.793 114.072 139.799Z" fill="#263238"/>
<path d="M112.976 138.641C112.575 138.241 112.197 137.82 111.844 137.377C111.439 136.938 110.951 136.584 110.408 136.336C110.085 136.177 109.731 136.091 109.371 136.083C109.012 136.076 108.655 136.148 108.326 136.295C107.7 136.668 107.136 137.136 106.653 137.683C106.221 138.161 105.659 138.504 105.036 138.668C104.603 138.763 104.15 138.686 103.773 138.453C103.509 138.273 103.447 138.099 103.461 138.092C103.475 138.085 103.586 138.21 103.836 138.335C104.192 138.507 104.6 138.541 104.981 138.432C105.546 138.251 106.048 137.914 106.431 137.461C106.922 136.863 107.514 136.356 108.18 135.962C108.548 135.799 108.947 135.72 109.349 135.731C109.752 135.742 110.146 135.842 110.505 136.024C111.074 136.304 111.578 136.701 111.983 137.19C112.254 137.51 112.502 137.849 112.726 138.203C112.833 138.334 112.918 138.482 112.976 138.641Z" fill="#263238"/>
<path d="M114.433 140.341C114.433 140.341 114.433 140.514 114.315 140.792C114.158 141.184 113.947 141.553 113.691 141.888C112.846 143.03 111.589 143.798 110.188 144.03C108.786 144.262 107.35 143.939 106.182 143.131C105.829 142.894 105.51 142.611 105.231 142.291C105.044 142.062 104.96 141.923 104.974 141.909C104.988 141.895 105.425 142.395 106.307 142.929C107.451 143.644 108.815 143.917 110.146 143.699C111.477 143.48 112.682 142.785 113.538 141.743C113.864 141.293 114.162 140.825 114.433 140.341Z" fill="#263238"/>
<path d="M80.8926 146.968C81.9043 146.142 82.9864 145.406 84.1266 144.768C85.2068 144.034 86.3494 143.395 87.5411 142.86C86.5299 143.687 85.4477 144.423 84.3071 145.06C83.2259 145.793 82.0835 146.432 80.8926 146.968Z" fill="#263238"/>
<g opacity="0.3">
<path d="M159.557 156.664C168.266 160.189 178.295 159.481 187.067 162.91C192.889 165.172 197.872 169.26 201.995 173.958C205.999 178.593 209.62 183.546 212.821 188.768C211.128 181.828 209.448 174.846 205.881 168.642C202.314 162.438 196.401 157.233 189.419 155.692C179.856 153.61 165.858 160.453 159.904 156.483" fill="black"/>
</g>
<path d="M212.822 188.768C212.792 188.712 212.774 188.651 212.766 188.588C212.724 188.449 212.676 188.268 212.62 188.046C212.488 187.547 212.315 186.853 212.086 185.964C211.621 184.153 210.934 181.537 209.9 178.33C208.718 174.61 207.125 171.032 205.153 167.664C202.69 163.556 199.175 160.18 194.972 157.885C192.795 156.722 190.437 155.938 187.997 155.567C185.714 155.286 183.405 155.305 181.127 155.623C176.747 156.136 172.882 157.122 169.571 157.628C168.08 157.867 166.57 157.965 165.06 157.92C163.915 157.876 162.782 157.67 161.695 157.309C161.011 157.083 160.358 156.773 159.751 156.386L159.293 156.06L159.141 155.942C159.949 156.465 160.822 156.882 161.736 157.184C162.816 157.517 163.937 157.699 165.067 157.725C166.565 157.756 168.061 157.642 169.537 157.385C172.819 156.858 176.685 155.845 181.092 155.303C183.392 154.976 185.725 154.95 188.032 155.227C190.511 155.601 192.907 156.397 195.118 157.58C199.387 159.911 202.947 163.352 205.423 167.539C207.4 170.934 208.979 174.546 210.129 178.303C211.142 181.488 211.794 184.118 212.211 185.937C212.419 186.846 212.579 187.554 212.676 188.019L212.787 188.567C212.811 188.631 212.823 188.699 212.822 188.768Z" fill="#263238"/>
<g opacity="0.2">
<path d="M159.759 156.379C167.393 153.693 175.311 150.668 180.731 144.644C189.511 134.928 189.712 119.597 198.38 109.742C199.122 108.896 200.039 108.049 201.156 107.993C201.85 107.993 202.586 108.271 203.307 108.285C204.959 108.285 206.201 106.834 207.187 105.509C208.963 103.101 210.747 98.909 209.123 96.3898C208.589 95.5639 203.391 97.7014 202.946 96.827C202.502 95.9526 205.028 93.128 204.251 92.8643C198.546 99.1588 196.506 102.081 192.564 106.855C187.755 112.685 186.131 121.027 182.945 127.87C177.783 138.887 169.404 148.081 158.912 154.242" fill="black"/>
</g>
<path d="M152.312 152.277C153.527 154.7 155.783 156.185 159.558 156.379C159.558 156.379 178.816 142.811 180.378 141.548C181.939 140.285 194.07 107.487 195.646 105.717C197.221 103.947 202.072 96.5215 202.072 96.5215L202.676 93.4263C202.676 93.4263 194.147 101.005 193.515 102.15C192.884 103.295 176.367 133.838 171.786 138.175C166.56 143.117 160.509 151.861 152.312 152.277Z" fill="#263238"/>
<path d="M197.324 99.936C197.56 99.8111 202.682 93.461 202.682 93.461C225.73 65.701 259.826 51.349 301.105 51.127C260.693 54.1736 225.813 67.4637 203.667 94.384L199.698 99.7625L197.324 99.936Z" fill="#263238"/>
<path d="M253.366 87.4441C253.185 87.5183 253 87.5809 252.811 87.6315L251.208 88.1173C250.514 88.3324 249.653 88.5684 248.647 88.8113C247.641 89.0542 246.509 89.3804 245.239 89.6718C240.173 90.9002 233.108 92.2466 225.308 93.7387C221.407 94.4951 217.674 95.2585 214.349 96.015C212.677 96.4245 211.081 96.7784 209.602 97.1809L207.465 97.743L205.508 98.3121C204.252 98.6591 203.134 99.0061 202.156 99.3531L200.768 99.7903L199.63 100.207L198.054 100.769C197.873 100.844 197.685 100.902 197.492 100.942C197.666 100.854 197.844 100.775 198.027 100.706L199.588 100.082L200.712 99.6377L202.1 99.1727C203.079 98.8326 204.182 98.4787 205.445 98.0831L207.403 97.4863L209.54 96.9103C211.018 96.4939 212.614 96.126 214.28 95.7096C217.639 94.9393 221.345 94.162 225.245 93.4055C233.053 91.9134 240.125 90.6295 245.191 89.4359C246.461 89.1583 247.606 88.8737 248.612 88.6308C249.619 88.3879 250.479 88.1728 251.18 87.9785L252.797 87.5551C252.983 87.4992 253.173 87.462 253.366 87.4441Z" fill="#263238"/>
<path d="M221.622 125.073C221.459 125.002 221.302 124.921 221.15 124.83C220.844 124.67 220.414 124.393 219.831 124.094C218.197 123.22 216.501 122.467 214.758 121.839C212.184 120.892 209.496 120.294 206.763 120.062C205.993 119.972 205.202 119.993 204.397 119.965C203.592 119.937 202.766 120.027 201.933 120.159C200.212 120.371 198.533 120.839 196.95 121.547C193.891 122.944 191.236 125.093 189.233 127.793C188.333 128.951 187.499 130.158 186.734 131.409C185.999 132.575 185.346 133.692 184.763 134.705C183.59 136.739 182.64 138.391 181.987 139.515C181.647 140.049 181.384 140.479 181.182 140.799C181.098 140.954 180.995 141.098 180.877 141.229C180.949 141.069 181.03 140.914 181.12 140.764L181.869 139.445L184.583 134.587C185.166 133.56 185.79 132.436 186.526 131.256C187.286 129.99 188.118 128.769 189.018 127.599C191.039 124.846 193.731 122.658 196.839 121.242C198.454 120.528 200.166 120.06 201.919 119.854C202.748 119.75 203.582 119.69 204.417 119.673C205.236 119.673 206.041 119.673 206.819 119.777C209.576 120.026 212.286 120.656 214.869 121.651C216.616 122.299 218.306 123.091 219.921 124.018C220.497 124.33 220.921 124.628 221.219 124.802C221.363 124.878 221.498 124.968 221.622 125.073Z" fill="#263238"/>
<path d="M154.762 152.132C154.473 152.325 154.143 152.449 153.798 152.493C152.979 152.673 152.135 152.701 151.306 152.576C150.48 152.446 149.684 152.172 148.954 151.764C148.405 151.438 148.121 151.167 148.142 151.133C149.16 151.644 150.244 152.015 151.362 152.236C152.495 152.351 153.638 152.316 154.762 152.132Z" fill="#263238"/>
<path d="M123.822 147.954C123.822 147.954 123.732 148.023 123.538 148.127C123.343 148.231 123.052 148.363 122.67 148.53C121.914 148.863 120.81 149.321 119.436 149.869C116.695 150.973 112.892 152.451 108.679 154.033L97.8527 158.121L94.5701 159.329C93.7928 159.606 93.3764 159.773 93.3626 159.752C93.3487 159.731 93.4528 159.689 93.654 159.592C93.8553 159.495 94.1468 159.37 94.5215 159.204C95.2849 158.884 96.3953 158.44 97.7695 157.892C100.545 156.809 104.328 155.338 108.54 153.728L123.822 147.954Z" fill="#263238"/>
<path d="M303.396 213.412C303.543 213.764 303.659 214.129 303.743 214.502C303.847 214.856 303.965 215.286 304.076 215.799C304.187 216.313 304.326 216.889 304.43 217.534C304.701 219.052 304.884 220.583 304.978 222.122C305.077 224.007 305.056 225.896 304.916 227.778C304.756 229.657 304.471 231.524 304.062 233.365C303.728 234.87 303.301 236.353 302.785 237.806C302.584 238.431 302.348 238.979 302.153 239.465C301.959 239.951 301.779 240.36 301.619 240.686C301.473 241.038 301.301 241.379 301.105 241.706C301.209 241.34 301.341 240.983 301.501 240.638C301.64 240.298 301.806 239.881 301.98 239.395C302.153 238.91 302.369 238.354 302.556 237.73C303.035 236.276 303.436 234.798 303.757 233.302C304.142 231.47 304.416 229.616 304.575 227.75C304.715 225.882 304.745 224.007 304.666 222.136C304.586 220.609 304.428 219.087 304.194 217.576C304.11 216.931 303.979 216.348 303.888 215.841C303.798 215.334 303.701 214.89 303.618 214.536C303.518 214.167 303.444 213.791 303.396 213.412Z" fill="#263238"/>
<path d="M309.01 234.572C308.955 234.572 309.274 233.594 309.628 232.004C310.549 227.849 310.549 223.543 309.628 219.387C309.281 217.798 308.934 216.833 309.017 216.82C309.137 217.024 309.23 217.243 309.295 217.472C309.516 218.082 309.706 218.702 309.864 219.332C310.923 223.508 310.923 227.883 309.864 232.06C309.707 232.687 309.518 233.306 309.295 233.913C309.227 234.143 309.132 234.365 309.01 234.572Z" fill="#263238"/>
<path d="M215.938 220.178C215.773 220.192 215.606 220.175 215.446 220.13C215.006 220.058 214.573 219.944 214.155 219.79C213.529 219.567 212.929 219.278 212.364 218.929C210.969 218.059 209.801 216.87 208.957 215.459C208.613 214.892 208.332 214.289 208.117 213.662C207.963 213.241 207.851 212.807 207.784 212.364C207.735 212.052 207.722 211.878 207.784 211.878C207.846 211.878 207.964 212.572 208.374 213.578C208.618 214.178 208.915 214.754 209.262 215.3C209.692 215.961 210.185 216.579 210.733 217.146C211.295 217.7 211.909 218.2 212.566 218.638C213.11 218.987 213.683 219.289 214.28 219.54C215.265 219.998 215.945 220.116 215.938 220.178Z" fill="#263238"/>
<path d="M219.241 219.11C218.666 219.024 218.109 218.848 217.589 218.589C216.307 218.017 215.133 217.228 214.119 216.258C213.099 215.285 212.252 214.147 211.614 212.892C211.333 212.381 211.13 211.831 211.01 211.261C211.065 211.261 211.308 211.858 211.829 212.774C213.187 215.185 215.237 217.133 217.714 218.367C218.609 218.846 219.261 219.054 219.241 219.11Z" fill="#263238"/>
<path d="M66.9209 183.91V266.315L57.6005 257.287L53.2422 259.369C53.2422 259.369 62.9582 272.555 66.8932 277.725V330.677H78.4205V183.91H66.9209Z" fill="#455A64"/>
<path d="M146.515 219.262L24.2049 245.96L17.1191 213.474L139.423 186.776L141.859 197.95L136.904 203.744L143.372 204.862L146.515 219.262Z" fill="#455A64"/>
<path d="M139.424 186.776C139.424 186.776 139.222 186.839 138.813 186.936L137.009 187.359L130.069 188.928L104.217 194.653L17.1755 213.752L17.3768 213.44C18.4803 218.756 19.6462 224.377 20.8468 230.096L24.2196 246.37L23.9073 246.169L111.122 226.938L137.064 221.275L144.073 219.769L145.892 219.387L146.516 219.276C146.516 219.276 146.308 219.339 145.906 219.436L144.094 219.866L137.106 221.462L111.192 227.278L24.0184 246.71L23.7616 246.765L23.7061 246.509L20.3194 230.2C19.1326 224.502 17.9667 218.888 16.8494 213.544L16.8008 213.287L17.0506 213.231L104.099 194.32L129.992 188.768L136.981 187.29L138.799 186.915L139.424 186.776Z" fill="#263238"/>
<path d="M143.885 210.06L142.608 210.261C141.769 210.414 140.526 210.518 138.951 210.851C134.494 211.747 130.11 212.972 125.834 214.515C120.4 216.403 114.099 219.103 107.027 221.934C103.495 223.322 99.747 224.71 95.7912 225.994C91.718 227.306 87.5382 228.261 83.2992 228.846C79.0506 229.405 74.759 229.563 70.481 229.318C66.317 229.145 62.3612 228.77 58.565 228.506C54.7688 228.243 51.1531 228.034 47.7733 228.111C44.6352 228.155 41.5061 228.459 38.4182 229.02C33.9269 229.768 29.6246 231.385 25.7527 233.781C25.1482 234.154 24.5644 234.559 24.0038 234.995C23.5771 235.294 23.167 235.616 22.7754 235.96C22.1369 236.515 21.7969 236.8 21.7969 236.8C21.7969 236.8 22.1161 236.494 22.7477 235.925C23.06 235.634 23.4417 235.308 23.9622 234.933C24.5221 234.489 25.1059 234.077 25.711 233.697C29.5776 231.262 33.8861 229.611 38.3904 228.839C41.4816 228.264 44.6155 227.948 47.7594 227.896C51.1531 227.812 54.7688 228.007 58.5719 228.27C62.3751 228.534 66.3447 228.895 70.481 229.068C74.7475 229.313 79.0276 229.155 83.2645 228.597C87.5036 228.015 91.6837 227.063 95.7565 225.751C99.7053 224.516 103.453 223.128 106.985 221.712C114.05 218.894 120.366 216.209 125.814 214.335C130.096 212.799 134.491 211.595 138.958 210.733C140.54 210.407 141.789 210.317 142.629 210.178L143.885 210.06Z" fill="#263238"/>
<path d="M140.431 197.505C140.431 197.505 139.987 197.45 139.147 197.318L135.455 196.742C130.937 196.031 126.385 195.552 121.818 195.305C116.065 195.076 109.041 195.222 101.733 197.554C101.275 197.7 100.817 197.838 100.345 197.998L98.9575 198.533C98.0414 198.873 97.1461 199.289 96.237 199.719C94.4048 200.619 92.6253 201.622 90.9071 202.724C87.3816 204.945 83.9324 207.548 80.3028 210.074C76.8025 212.584 73.0866 214.778 69.1988 216.632C65.5587 218.327 61.8014 219.758 57.956 220.914C51.4321 222.806 44.7667 224.17 38.0243 224.995C32.271 225.744 27.6143 226.105 24.3664 226.383C21.1184 226.66 19.3418 226.73 19.3418 226.73C19.3418 226.73 19.786 226.681 20.6396 226.612L24.3594 226.299C27.5865 226.022 32.2571 225.605 38.0035 224.87C44.7342 224.023 51.3873 222.645 57.9004 220.747C61.7349 219.592 65.4807 218.161 69.1085 216.465C72.9974 214.619 76.7135 212.429 80.2125 209.921C83.8352 207.395 87.2913 204.792 90.8238 202.572C92.5505 201.466 94.3393 200.46 96.1815 199.56C97.0906 199.129 97.9928 198.713 98.9158 198.373L100.304 197.839C100.762 197.679 101.22 197.54 101.692 197.387C109.041 195.063 116.085 194.931 121.818 195.174C126.389 195.44 130.943 195.943 135.462 196.68C138.675 197.172 140.431 197.505 140.431 197.505Z" fill="#263238"/>
<path d="M81.4183 200.385C81.4183 200.385 81.2518 200.559 80.9187 200.878L79.4543 202.266L78.4203 203.238C78.0177 203.592 77.5666 203.932 77.0878 204.341C76.1231 205.119 75.0682 206.055 73.7774 206.937L71.7856 208.366C71.0916 208.859 70.3282 209.303 69.5579 209.803C68.0311 210.823 66.2961 211.739 64.4917 212.739C60.4933 214.787 56.3311 216.498 52.0483 217.853C47.7606 219.141 43.3733 220.07 38.9317 220.629C36.8497 220.831 34.9273 221.06 33.0951 221.088C32.179 221.088 31.2907 221.178 30.4371 221.164L27.9942 221.108C26.4327 221.108 25.0308 220.942 23.7955 220.845C23.1779 220.789 22.6018 220.754 22.0744 220.692L20.6378 220.477L18.653 220.171C18.2019 220.102 17.959 220.053 17.959 220.053L18.653 220.13L20.6448 220.394L22.0813 220.595C22.6018 220.65 23.1779 220.678 23.7955 220.734C25.0308 220.81 26.4327 220.976 27.9595 220.963L30.4024 221.004C31.256 221.004 32.1374 220.942 33.0535 220.914C34.8856 220.879 36.8288 220.643 38.8761 220.442C43.3359 219.875 47.7414 218.942 52.0483 217.652C56.3008 216.298 60.4348 214.597 64.4084 212.565C66.2128 211.573 67.9478 210.671 69.4746 209.657C70.2449 209.165 71.0083 208.72 71.7023 208.235L73.6941 206.847C74.985 205.972 76.0468 205.042 77.0184 204.279C77.4972 203.89 77.9553 203.536 78.3578 203.196L79.4335 202.218C80.0442 201.662 80.5439 201.218 80.9187 200.871C81.2934 200.524 81.4183 200.385 81.4183 200.385Z" fill="#263238"/>
<path d="M41.0083 239.867C40.8323 240.073 40.6129 240.238 40.3657 240.35C40.1186 240.461 39.8498 240.517 39.5787 240.513C38.9624 240.523 38.3515 240.629 37.7673 240.825C37.5974 240.898 37.4465 241.01 37.3263 241.15C37.206 241.291 37.1195 241.458 37.0733 241.637C37.0401 241.732 37.0266 241.833 37.0336 241.933C37.0405 242.034 37.0679 242.132 37.114 242.222C37.1601 242.311 37.224 242.39 37.3017 242.455C37.3794 242.519 37.4693 242.566 37.5661 242.595C38.0283 242.666 38.5001 242.645 38.9541 242.532C39.4491 242.449 39.9557 242.338 40.4739 242.199C41.5752 241.902 42.6358 241.471 43.6316 240.915C44.1591 240.612 44.614 240.198 44.9641 239.701C45.1374 239.443 45.2461 239.148 45.2812 238.84C45.3162 238.532 45.2765 238.22 45.1654 237.931C44.9141 237.322 44.447 236.828 43.8537 236.543C43.2343 236.261 42.5688 236.094 41.8897 236.05C39.272 235.839 36.6383 236.143 34.1377 236.945C32.0934 237.596 30.1159 238.439 28.2318 239.465C26.6217 240.332 25.3517 241.109 24.4842 241.651L23.4848 242.282C23.2558 242.428 23.1309 242.49 23.1309 242.49C24.7416 241.336 26.422 240.281 28.1624 239.333C30.047 238.284 32.0297 237.421 34.0822 236.758C36.6057 235.94 39.2662 235.628 41.9105 235.842C42.6168 235.888 43.3086 236.065 43.9509 236.362C44.5794 236.668 45.0734 237.194 45.3389 237.841C45.4628 238.159 45.5068 238.502 45.4668 238.841C45.4269 239.18 45.3043 239.504 45.1098 239.784C44.7478 240.307 44.2737 240.744 43.7218 241.061C42.7056 241.62 41.624 242.052 40.5017 242.345C39.9812 242.484 39.4676 242.588 38.9679 242.671C38.4879 242.785 37.9894 242.799 37.5036 242.713C37.3862 242.679 37.2773 242.62 37.184 242.541C37.0907 242.462 37.0152 242.365 36.9623 242.255C36.8704 242.034 36.8582 241.789 36.9276 241.561C36.9839 241.364 37.0827 241.183 37.2171 241.03C37.3514 240.876 37.518 240.754 37.7049 240.672C38.3069 240.484 38.934 240.388 39.5648 240.388C39.9558 240.368 40.3375 240.261 40.6821 240.075C40.7977 240.017 40.907 239.948 41.0083 239.867Z" fill="#263238"/>
<path d="M48.7048 209.248C48.5278 209.373 48.3231 209.454 48.108 209.484C47.7987 209.538 47.4811 209.517 47.1816 209.422C46.8821 209.328 46.6096 209.164 46.3869 208.943L46.3383 208.894L46.4008 208.852C48.2054 207.861 50.1808 207.218 52.2234 206.958C53.5868 206.743 54.9754 206.743 56.3388 206.958C56.7161 207.046 57.0632 207.233 57.3451 207.499C57.491 207.65 57.5872 207.842 57.6207 208.049C57.6542 208.256 57.6234 208.469 57.5325 208.658C57.0953 209.421 56.2347 209.602 55.5269 209.893C51.6875 211.305 47.6175 211.986 43.5276 211.899C41.8368 211.883 40.1516 211.702 38.4961 211.358L38.8431 211.392L39.8425 211.517C45.1186 212.133 50.4656 211.508 55.4575 209.692C56.1515 209.414 56.9981 209.199 57.3451 208.568C57.4184 208.416 57.4438 208.246 57.4177 208.08C57.3917 207.914 57.3155 207.76 57.1994 207.638C56.9425 207.398 56.6263 207.23 56.2833 207.152C54.9465 206.938 53.5852 206.924 52.2442 207.11C50.2192 207.36 48.256 207.973 46.4493 208.922V208.838C46.66 209.053 46.9176 209.215 47.2019 209.313C47.4862 209.41 47.7893 209.44 48.0872 209.401C48.2989 209.377 48.5066 209.326 48.7048 209.248Z" fill="#263238"/>
<path d="M143.317 214.363C143.104 214.425 142.885 214.469 142.665 214.494C142.241 214.564 141.637 214.682 140.895 214.841C138.958 215.277 137.068 215.899 135.253 216.701C133.439 217.509 131.709 218.495 130.089 219.644C129.472 220.081 128.979 220.456 128.646 220.72C128.478 220.864 128.299 220.997 128.111 221.115C128.255 220.947 128.415 220.793 128.59 220.657C128.909 220.373 129.388 219.963 129.978 219.519C133.209 217.123 136.934 215.478 140.881 214.703C141.637 214.55 142.269 214.46 142.671 214.418C142.885 214.383 143.101 214.365 143.317 214.363Z" fill="#263238"/>
<path d="M140.693 192.363C140.544 192.4 140.39 192.419 140.235 192.418C139.944 192.418 139.541 192.453 138.986 192.418C137.603 192.379 136.229 192.167 134.899 191.787C133.57 191.41 132.293 190.871 131.095 190.184C130.731 189.972 130.379 189.74 130.041 189.49C129.911 189.407 129.79 189.312 129.68 189.205C129.68 189.17 130.242 189.538 131.165 190.038C132.371 190.684 133.644 191.199 134.961 191.572C136.277 191.945 137.628 192.178 138.993 192.266C140.041 192.356 140.693 192.321 140.693 192.363Z" fill="#263238"/>
<g filter="url(#filter1_dn_132_8627)">
<path d="M92.0621 311.5V297.7L123.662 252.5H142.762V296.7H150.962V311.5H142.762V324.5H125.662V311.5H92.0621ZM126.862 271.3L110.062 296.7H126.862V271.3Z" fill="#FF725E"/>
<path d="M164.883 287C164.883 275.533 167.083 266.5 171.483 259.9C175.949 253.3 183.116 250 192.983 250C202.849 250 209.983 253.3 214.383 259.9C218.849 266.5 221.083 275.533 221.083 287C221.083 298.6 218.849 307.7 214.383 314.3C209.983 320.9 202.849 324.2 192.983 324.2C183.116 324.2 175.949 320.9 171.483 314.3C167.083 307.7 164.883 298.6 164.883 287ZM204.283 287C204.283 280.267 203.549 275.1 202.083 271.5C200.616 267.833 197.583 266 192.983 266C188.383 266 185.349 267.833 183.883 271.5C182.416 275.1 181.683 280.267 181.683 287C181.683 291.533 181.949 295.3 182.483 298.3C183.016 301.233 184.083 303.633 185.683 305.5C187.349 307.3 189.783 308.2 192.983 308.2C196.183 308.2 198.583 307.3 200.183 305.5C201.849 303.633 202.949 301.233 203.483 298.3C204.016 295.3 204.283 291.533 204.283 287Z" fill="#FF725E"/>
</g>
<path d="M38.637 219.257L39.1168 221.465L33.4295 222.701L34.1896 226.199L38.5479 225.252L39.0192 227.422L34.6609 228.369L35.9136 234.134L33.1774 234.729L30.2135 221.087L38.637 219.257ZM48.3872 231.608C47.3448 231.835 46.3572 231.81 45.4242 231.536C44.4884 231.248 43.6875 230.733 43.0214 229.991C42.3683 229.246 41.9215 228.319 41.6808 227.212C41.4402 226.104 41.4689 225.075 41.767 224.123C42.0781 223.169 42.6076 222.371 43.3554 221.731C44.1004 221.078 44.9941 220.638 46.0364 220.412C47.0788 220.186 48.0744 220.215 49.0232 220.5C49.9692 220.772 50.7752 221.279 51.4413 222.021C52.1204 222.761 52.5803 223.684 52.8209 224.791C53.0616 225.899 53.0198 226.931 52.6957 227.889C52.3846 228.843 51.85 229.648 51.092 230.304C50.3441 230.944 49.4425 231.379 48.3872 231.608ZM47.8691 229.224C48.3642 229.116 48.8013 228.898 49.1803 228.571C49.5695 228.227 49.842 227.785 49.9979 227.247C50.1537 226.708 50.1566 226.093 50.0066 225.403C49.783 224.374 49.3381 223.645 48.6719 223.216C48.016 222.772 47.2972 222.635 46.5154 222.805C45.7336 222.975 45.1365 223.398 44.724 224.074C44.3218 224.735 44.2325 225.58 44.4561 226.609C44.6797 227.638 45.1065 228.378 45.7364 228.828C46.3764 229.262 47.0873 229.394 47.8691 229.224ZM56.7531 220.028C56.9804 219.378 57.3387 218.83 57.8282 218.382C58.3307 217.932 58.9468 217.627 59.6765 217.469L60.3007 220.342L59.5775 220.499C58.7176 220.686 58.11 221.029 57.7548 221.53C57.4126 222.027 57.3504 222.777 57.5684 223.78L58.7404 229.175L56.0042 229.769L53.6518 218.942L56.3879 218.347L56.7531 220.028ZM64.6335 218.213C64.872 217.616 65.2621 217.088 65.8037 216.629C66.3584 216.167 67.0331 215.85 67.8279 215.677C68.753 215.476 69.6364 215.523 70.4781 215.818C71.3329 216.11 72.0673 216.632 72.6813 217.386C73.3054 218.124 73.7378 219.046 73.9785 220.154C74.2191 221.261 74.2113 222.293 73.9552 223.249C73.7092 224.189 73.2593 224.976 72.6055 225.609C71.9648 226.24 71.1818 226.656 70.2568 226.857C69.4489 227.032 68.7049 227.03 68.0246 226.85C67.3544 226.655 66.7818 226.343 66.3065 225.914L66.642 227.458L63.9058 228.052L60.7636 213.59L63.4997 212.995L64.6335 218.213ZM71.1837 220.761C71.0421 220.109 70.7836 219.579 70.4081 219.169C70.0427 218.744 69.6117 218.455 69.1149 218.304C68.6311 218.15 68.1352 218.128 67.627 218.238C67.1319 218.346 66.6912 218.578 66.3048 218.935C65.9286 219.276 65.6561 219.717 65.4872 220.259C65.3314 220.798 65.3242 221.393 65.4658 222.044C65.6073 222.696 65.8607 223.234 66.2261 223.659C66.6044 224.082 67.0369 224.377 67.5235 224.544C68.0203 224.696 68.5162 224.717 69.0113 224.61C69.5195 224.499 69.9602 224.267 70.3336 223.913C70.72 223.556 70.9911 223.109 71.1469 222.57C71.3158 222.028 71.328 221.425 71.1837 220.761ZM75.9064 212.756C75.4243 212.86 74.9878 212.798 74.597 212.569C74.2164 212.325 73.9765 211.974 73.8774 211.518C73.7783 211.062 73.8526 210.65 74.1002 210.283C74.358 209.899 74.7279 209.655 75.21 209.55C75.6921 209.446 76.1235 209.516 76.5041 209.76C76.8949 209.989 77.1399 210.332 77.239 210.788C77.3381 211.244 77.2587 211.664 77.0009 212.047C76.7533 212.415 76.3885 212.651 75.9064 212.756ZM77.5352 213.753L79.8876 224.58L77.1515 225.174L74.799 214.347L77.5352 213.753ZM80.7027 218.693C80.4649 217.598 80.469 216.581 80.7149 215.64C80.9739 214.697 81.4317 213.916 82.0883 213.295C82.745 212.675 83.5358 212.265 84.4609 212.064C85.1645 211.911 85.8695 211.921 86.5759 212.095C87.2794 212.256 87.8753 212.55 88.3636 212.976L87.2468 207.836L90.022 207.233L93.1643 221.695L90.389 222.298L90.0408 220.696C89.8182 221.303 89.436 221.837 88.8944 222.296C88.3528 222.754 87.6781 223.071 86.8703 223.247C85.9582 223.445 85.0734 223.392 84.2157 223.087C83.3581 222.782 82.6158 222.254 81.9888 221.504C81.372 220.737 80.9433 219.8 80.7027 218.693ZM89.2324 216.88C89.088 216.216 88.8346 215.677 88.4721 215.265C88.1067 214.839 87.6757 214.551 87.1789 214.4C86.6793 214.235 86.1754 214.208 85.6672 214.319C85.1591 214.429 84.7169 214.655 84.3408 214.996C83.9646 215.337 83.692 215.778 83.5232 216.32C83.3645 216.845 83.3559 217.434 83.4975 218.085C83.639 218.737 83.8939 219.282 84.262 219.72C84.6404 220.143 85.0729 220.438 85.5594 220.605C86.0591 220.769 86.5564 220.798 87.0515 220.69C87.5597 220.58 88.0084 220.353 88.3976 220.009C88.784 219.652 89.0565 219.211 89.2152 218.685C89.371 218.146 89.3767 217.545 89.2324 216.88ZM93.9483 215.815C93.7105 214.72 93.7146 213.703 93.9606 212.763C94.2196 211.819 94.6774 211.038 95.334 210.418C95.9906 209.797 96.7815 209.387 97.7066 209.186C98.4101 209.033 99.1151 209.043 99.8215 209.217C100.525 209.378 101.121 209.672 101.609 210.098L100.492 204.958L103.268 204.355L106.41 218.817L103.635 219.42L103.287 217.818C103.064 218.426 102.682 218.959 102.14 219.418C101.598 219.876 100.924 220.194 100.116 220.369C99.2039 220.567 98.319 220.514 97.4614 220.209C96.6038 219.904 95.8615 219.376 95.2345 218.626C94.6177 217.859 94.189 216.922 93.9483 215.815ZM102.478 214.002C102.334 213.338 102.08 212.8 101.718 212.387C101.352 211.962 100.921 211.673 100.425 211.522C99.9249 211.358 99.421 211.331 98.9129 211.441C98.4048 211.551 97.9626 211.777 97.5864 212.118C97.2102 212.459 96.9377 212.9 96.7688 213.442C96.6102 213.968 96.6016 214.556 96.7431 215.208C96.8847 215.859 97.1395 216.404 97.5077 216.843C97.886 217.265 98.3185 217.56 98.8051 217.727C99.3047 217.892 99.8021 217.92 100.297 217.812C100.805 217.702 101.254 217.475 101.643 217.131C102.03 216.774 102.302 216.333 102.461 215.807C102.617 215.269 102.622 214.667 102.478 214.002ZM117.92 210.402C118.005 210.793 118.056 211.15 118.071 211.474L110.156 213.194C110.391 213.961 110.798 214.514 111.376 214.853C111.954 215.191 112.595 215.284 113.299 215.131C114.315 214.91 114.944 214.316 115.184 213.35L118.135 212.709C118.049 213.819 117.636 214.809 116.897 215.679C116.156 216.536 115.14 217.105 113.85 217.385C112.808 217.612 111.82 217.587 110.887 217.313C109.964 217.022 109.177 216.504 108.523 215.759C107.883 215.011 107.443 214.083 107.202 212.976C106.959 211.855 106.973 210.822 107.245 209.876C107.517 208.93 108.014 208.14 108.736 207.506C109.458 206.871 110.353 206.438 111.421 206.206C112.451 205.982 113.417 206.004 114.321 206.272C115.238 206.536 116.008 207.031 116.629 207.756C117.261 208.464 117.691 209.346 117.92 210.402ZM114.917 210.236C114.751 209.535 114.375 209.03 113.789 208.721C113.201 208.398 112.548 208.315 111.831 208.47C111.154 208.618 110.626 208.951 110.247 209.47C109.879 209.973 109.722 210.6 109.776 211.352L114.917 210.236ZM124.758 203.329C126.048 203.048 127.18 203.232 128.153 203.881C129.123 204.516 129.767 205.563 130.084 207.022L131.464 213.374L128.728 213.968L127.428 207.988C127.241 207.128 126.884 206.517 126.355 206.154C125.823 205.779 125.185 205.671 124.443 205.833C123.687 205.997 123.139 206.362 122.797 206.927C122.467 207.476 122.395 208.181 122.581 209.041L123.881 215.022L121.145 215.616L118.792 204.789L121.528 204.194L121.821 205.543C122.084 204.994 122.468 204.529 122.971 204.147C123.485 203.749 124.081 203.476 124.758 203.329Z" fill="white"/>
</g>
<defs>
<filter id="filter0_dn_132_8627" x="204.02" y="169.866" width="70.1895" height="84.6675" filterUnits="userSpaceOnUse" color-interpolation-filters="sRGB">
<feFlood flood-opacity="0" result="BackgroundImageFix"/>
<feColorMatrix in="SourceAlpha" type="matrix" values="0 0 0 0 0 0 0 0 0 0 0 0 0 0 0 0 0 0 127 0" result="hardAlpha"/>
<feOffset dx="4"/>
<feComposite in2="hardAlpha" operator="out"/>
<feColorMatrix type="matrix" values="0 0 0 0 0 0 0 0 0 0 0 0 0 0 0 0 0 0 0.84 0"/>
<feBlend mode="normal" in2="BackgroundImageFix" result="effect1_dropShadow_132_8627"/>
<feBlend mode="normal" in="SourceGraphic" in2="BackgroundImageFix" result="shape"/>
<feTurbulence type="fractalNoise" baseFrequency="0.2222222238779068 0.2222222238779068" stitchTiles="stitch" numOctaves="3" result="noise" seed="4547" />
<feComponentTransfer in="noise" result="coloredNoise1">
<feFuncR type="linear" slope="2" intercept="-0.5" />
<feFuncG type="linear" slope="2" intercept="-0.5" />
<feFuncB type="linear" slope="2" intercept="-0.5" />
<feFuncA type="discrete" tableValues="0 0 0 0 0 0 0 0 0 1 1 1 1 1 1 1 1 1 1 1 1 1 1 1 1 1 1 1 1 1 1 1 1 1 1 1 1 1 1 1 1 1 0 0 0 0 0 0 0 0 0 0 0 0 0 0 0 0 0 0 0 0 0 0 0 0 0 0 0 0 0 0 0 0 0 0 0 0 0 0 0 0 0 0 0 0 0 0 0 0 0 0 0 0 0 0 0 0 0 0 "/>
</feComponentTransfer>
<feComposite operator="in" in2="shape" in="coloredNoise1" result="noise1Clipped" />
<feComponentTransfer in="noise1Clipped" result="color1">
<feFuncA type="table" tableValues="0 0.13" />
</feComponentTransfer>
<feMerge result="effect2_noise_132_8627">
<feMergeNode in="shape" />
<feMergeNode in="color1" />
</feMerge>
<feBlend mode="normal" in="effect2_noise_132_8627" in2="effect1_dropShadow_132_8627" result="effect2_noise_132_8627"/>
</filter>
<filter id="filter1_dn_132_8627" x="87" y="214.5" width="143" height="150" filterUnits="userSpaceOnUse" color-interpolation-filters="sRGB">
<feFlood flood-opacity="0" result="BackgroundImageFix"/>
<feColorMatrix in="SourceAlpha" type="matrix" values="0 0 0 0 0 0 0 0 0 0 0 0 0 0 0 0 0 0 127 0" result="hardAlpha"/>
<feOffset dx="4"/>
<feComposite in2="hardAlpha" operator="out"/>
<feColorMatrix type="matrix" values="0 0 0 0 0 0 0 0 0 0 0 0 0 0 0 0 0 0 0.84 0"/>
<feBlend mode="normal" in2="BackgroundImageFix" result="effect1_dropShadow_132_8627"/>
<feBlend mode="normal" in="SourceGraphic" in2="BackgroundImageFix" result="shape"/>
<feTurbulence type="fractalNoise" baseFrequency="0.2222222238779068 0.2222222238779068" stitchTiles="stitch" numOctaves="3" result="noise" seed="4547" />
<feComponentTransfer in="noise" result="coloredNoise1">
<feFuncR type="linear" slope="2" intercept="-0.5" />
<feFuncG type="linear" slope="2" intercept="-0.5" />
<feFuncB type="linear" slope="2" intercept="-0.5" />
<feFuncA type="discrete" tableValues="0 0 0 0 0 0 0 0 0 1 1 1 1 1 1 1 1 1 1 1 1 1 1 1 1 1 1 1 1 1 1 1 1 1 1 1 1 1 1 1 1 1 0 0 0 0 0 0 0 0 0 0 0 0 0 0 0 0 0 0 0 0 0 0 0 0 0 0 0 0 0 0 0 0 0 0 0 0 0 0 0 0 0 0 0 0 0 0 0 0 0 0 0 0 0 0 0 0 0 0 "/>
</feComponentTransfer>
<feComposite operator="in" in2="shape" in="coloredNoise1" result="noise1Clipped" />
<feComponentTransfer in="noise1Clipped" result="color1">
<feFuncA type="table" tableValues="0 0.13" />
</feComponentTransfer>
<feMerge result="effect2_noise_132_8627">
<feMergeNode in="shape" />
<feMergeNode in="color1" />
</feMerge>
<feBlend mode="normal" in="effect2_noise_132_8627" in2="effect1_dropShadow_132_8627" result="effect2_noise_132_8627"/>
</filter>
<clipPath id="clip0_132_8627">
<rect width="347" height="347" fill="white"/>
</clipPath>
</defs>
</svg>
