<?xml version="1.0" encoding="UTF-8"?>
<svg id="Layer_1" data-name="Layer 1" xmlns="http://www.w3.org/2000/svg" xmlns:xlink="http://www.w3.org/1999/xlink" viewBox="0 0 675.32 154.06">
  <defs>
    <style>
      .cls-1 {
        fill: url(#linear-gradient-2);
      }

      .cls-2 {
        fill: url(#linear-gradient-6);
      }

      .cls-3 {
        fill: url(#linear-gradient-11);
      }

      .cls-4 {
        fill: url(#linear-gradient-10);
      }

      .cls-5 {
        fill: url(#linear-gradient-5);
      }

      .cls-6 {
        fill: url(#linear-gradient-7);
      }

      .cls-7 {
        fill: url(#linear-gradient-9);
      }

      .cls-8 {
        fill: url(#linear-gradient-3);
      }

      .cls-9 {
        fill: url(#linear-gradient);
      }

      .cls-10 {
        fill: url(#linear-gradient-4);
      }

      .cls-11 {
        fill: url(#linear-gradient-8);
      }

      .cls-12 {
        fill: url(#linear-gradient-12);
      }
    </style>
    <linearGradient id="linear-gradient" x1="9.64" y1="9.63" x2="167.33" y2="164.05" gradientUnits="userSpaceOnUse">
      <stop offset="0" stop-color="#306aff"/>
      <stop offset="1" stop-color="#c852ff"/>
    </linearGradient>
    <linearGradient id="linear-gradient-2" x1="12.7" y1="6.51" x2="170.39" y2="160.92" xlink:href="#linear-gradient"/>
    <linearGradient id="linear-gradient-3" x1="18.56" y1=".53" x2="176.25" y2="154.94" xlink:href="#linear-gradient"/>
    <linearGradient id="linear-gradient-4" x1="-15.34" y1="35.14" x2="142.35" y2="189.56" xlink:href="#linear-gradient"/>
    <linearGradient id="linear-gradient-5" x1="-13.67" y1="33.44" x2="144.03" y2="187.85" xlink:href="#linear-gradient"/>
    <linearGradient id="linear-gradient-6" x1="14.93" y1="4.24" x2="172.62" y2="158.65" xlink:href="#linear-gradient"/>
    <linearGradient id="linear-gradient-7" x1="46.45" y1="-27.96" x2="204.14" y2="126.46" xlink:href="#linear-gradient"/>
    <linearGradient id="linear-gradient-8" x1="45.37" y1="-26.86" x2="203.07" y2="127.56" xlink:href="#linear-gradient"/>
    <linearGradient id="linear-gradient-9" x1="47.52" y1="-29.05" x2="205.21" y2="125.36" xlink:href="#linear-gradient"/>
    <linearGradient id="linear-gradient-10" x1="23.53" y1="-4.55" x2="181.22" y2="149.87" xlink:href="#linear-gradient"/>
    <linearGradient id="linear-gradient-11" x1="35.31" y1="-16.58" x2="193" y2="137.83" xlink:href="#linear-gradient"/>
    <linearGradient id="linear-gradient-12" x1=".52" y1="18.95" x2="158.21" y2="173.36" xlink:href="#linear-gradient"/>
  </defs>
  <g>
    <path d="M184.27,95.51v26.93h-14.01V55.11h35.21c14.97,0,23.97,7.23,23.97,18.92,0,8.51-4.73,13.84-11.9,15.97,3.29,1.13,10.16,4.01,10.16,16v3.23c0,4.79-.07,10.13,.83,13.2h-14.5c-1.09-2.96-1.14-7.3-1.14-13.97v-2.22c0-7.81-2.93-10.75-13.39-10.75h-15.23Zm0-10.82h17.95c8.76,0,12.76-3.12,12.76-9.55,0-5.97-4.06-9.2-12.55-9.2h-18.16v18.76Z"/>
    <path d="M245.41,101.22c.44,7.01,5.37,12.34,13.52,12.34,6.41,0,9.63-2.21,11.68-5.76h13.49c-2.85,8.23-10.07,15.97-25.44,15.97-19.24,0-26.7-13.14-26.7-25.71,0-14.1,9.45-25.89,26.55-25.89,18.89,0,26.22,13.27,26.22,25.76,0,1.11,0,1.92-.07,3.29h-39.25Zm25.55-8.55c-.34-4.39-2.7-10.83-12.48-10.83-8.73,0-12.3,5.01-12.88,10.83h25.36Z"/>
    <path d="M336.02,109.23c0,5.86,.29,12.13,.41,13.21h-12.77c-.38-1.36-.51-4.59-.57-6.04-2.61,4.5-8.22,7.38-17.79,7.38-13.53,0-18.83-8.23-18.83-15.89,0-12.75,11.29-16.28,25.57-16.28h10.78v-1.88c0-4.4-1.91-8.17-10.11-8.17-7.54,0-9.24,3.02-9.98,6.35h-13.49c.47-6.18,4.76-15.73,23.3-15.73,20.16,0,23.47,9.59,23.47,17.74v19.32Zm-13.2-8.88c-1.25-.07-4.59-.07-10.52-.07-8.93,0-12.71,2.2-12.71,6.91,0,3.71,2.9,6.77,9.3,6.77,9.91,0,13.93-5.06,13.93-12.42v-1.19Z"/>
    <path d="M394.74,51.24v57.29c0,4.6,0,9.3,.1,13.91h-13.27c-.22-1.65-.31-4.15-.38-6.22-2.62,3.89-6.3,7.56-16.82,7.56-13.77,0-23.74-10.25-23.74-25.39,0-16.38,12.79-26.21,25.09-26.21,10.16,0,14.07,3.86,15.47,5.83v-26.76h13.56Zm-40.23,46.85c0,8.13,4.77,14.98,13.58,14.98s13.48-5.97,13.48-15.15-3.47-15.11-13.34-15.11c-9.25,0-13.72,7.42-13.72,15.28Z"/>
    <path d="M412.3,73.51c9.04,22.1,13.31,34.52,14.42,38.24h.23c1.44-4.87,5.63-18.17,13.1-38.24h13.8l-17.23,43.38c-8.51,21.55-11.28,27.78-26.59,27.78-2.06,0-5.45-.19-7.2-.54v-11.08c2.16,.22,3.61,.28,5.06,.28,6.65,0,8.5-2.32,11.66-8.88l-22.06-50.91h14.8Z"/>
    <path d="M490.2,110.86h30.6v11.58h-45.01V52.5h14.41v58.36Z"/>
    <path d="M545.53,52.5l17.96,50.72,17.87-50.72h18.92V122.44h-14.46v-19.12l1.44-33-18.88,52.11h-9.89l-18.83-52.07,1.44,32.95v19.12h-14.41V52.5h18.83Z"/>
    <path d="M646.77,104.09c0-2.72-.96-4.81-2.88-6.27-1.92-1.46-5.38-2.99-10.38-4.61s-8.95-3.21-11.86-4.78c-7.94-4.29-11.91-10.07-11.91-17.34,0-3.78,1.06-7.15,3.19-10.11,2.13-2.96,5.19-5.28,9.17-6.94,3.99-1.66,8.46-2.5,13.42-2.5s9.45,.9,13.35,2.71c3.91,1.81,6.94,4.36,9.1,7.66,2.16,3.3,3.24,7.05,3.24,11.24h-14.41c0-3.2-1.01-5.69-3.03-7.47s-4.85-2.67-8.5-2.67-6.26,.74-8.21,2.23c-1.95,1.49-2.93,3.45-2.93,5.88,0,2.27,1.14,4.18,3.43,5.72,2.29,1.54,5.66,2.98,10.11,4.32,8.2,2.47,14.17,5.52,17.92,9.17,3.75,3.65,5.62,8.2,5.62,13.64,0,6.05-2.29,10.8-6.87,14.24-4.58,3.44-10.74,5.16-18.49,5.16-5.38,0-10.28-.98-14.7-2.95-4.42-1.97-7.79-4.67-10.11-8.09-2.32-3.43-3.48-7.4-3.48-11.91h14.46c0,7.72,4.61,11.57,13.83,11.57,3.43,0,6.1-.7,8.02-2.09,1.92-1.39,2.88-3.34,2.88-5.84Z"/>
  </g>
  <g>
    <path class="cls-9" d="M111.98,105.08c-.4,0-2.18,0-2.87-.02-7.18-.33-9.04-1.57-11.45-5.13-2.29-3.42-4.76-7.73-6.97-11.83-1.56-2.85-2.47-3.52-5.14-3.52h-1.63v12.09c0,5.45,.45,6.06,5.54,7.01v.98h-18.01v-.98c5.04-.98,5.51-1.42,5.51-7.01v-27.57c0-5.45-.42-6.12-5.51-6.92v-.98h17.28c5.15,0,8.59,.65,11.22,2.52,2.49,1.69,4.03,4.53,4.03,8.01,0,6.31-4.63,9.6-8.51,11.26,1.1,1.97,4.48,7.75,6.39,10.75,2.45,3.87,3.62,5.63,5.11,7.34,1.58,1.81,2.59,2.38,5.22,3.11l-.2,.89Zm-25.78-21.97c3.26,0,5.43-.22,7.13-1.69,2.15-1.78,2.98-4.27,2.98-8.19,0-7.59-3.92-10.56-8.39-10.56-1.78,0-2.81,.18-3.26,.51-.51,.36-.76,.87-.76,2.49v17.44h2.3Z"/>
    <path class="cls-1" d="M44.74,69.76c.83-.67,1.69-1.32,2.56-1.93,.57-.4,1.14-.77,1.72-1.14,1.66-1.05,3.39-1.99,5.17-2.82,.57-.26,1.14-.51,1.72-.75,1.69-.7,3.42-1.3,5.19-1.79,1.98-.55,4.01-.96,6.07-1.24,.28-2.07,.69-4.1,1.24-6.09,.49-1.76,1.09-3.49,1.78-5.17,.24-.58,.49-1.15,.75-1.72,.82-1.78,1.76-3.5,2.82-5.17,.37-.58,.75-1.16,1.14-1.72,.61-.87,1.25-1.73,1.93-2.56l-2.6-2.6-3.18-3.18-6.12-6.12c-7.24,2.92-13.73,7.22-19.3,12.79-5.57,5.57-9.87,12.06-12.79,19.3l6.12,6.12,3.18,3.18,2.6,2.6Z"/>
    <path class="cls-8" d="M30.12,57.71c3.05-7.89,7.66-14.95,13.68-20.97,6.02-6.02,13.08-10.63,20.97-13.68l.78-.3,6.57,6.57,9.21-21.79L34.43,27.36l-8.35,19.76-2.21,5.23h0s-.09,.23-.09,.23l-.47,1.11-.55,1.29-.52,1.22c.07,.05,.14,.1,.21,.15,4.42,3.1,7.08,7.04,8.67,10.93l5.27-2.23-6.57-6.57,.3-.78Z"/>
    <path class="cls-10" d="M20.4,60.56l-5.8,13.72,12.24-5.17c-1.23-3.05-3.23-6.11-6.45-8.54Z"/>
    <path class="cls-5" d="M34.77,82.54c0-1.19-.56-2.25-1.43-2.93-.34-.27-.72-.47-1.14-.61-.01-2.86-.41-7.03-2.14-11.26-1.52-3.72-4.06-7.48-8.28-10.44,0,0,0,0-.01,0-4.29-3.01-4.24-4.14-4.24-4.14,.25-.47,2.42-.81,5.02-.66l.94-2.24c-2.52-.23-7.2-.32-8.11,2.08-.68,1.8,.88,3.91,5.08,6.85,.13,.09,.26,.19,.39,.29,3.54,2.61,5.72,5.9,7.04,9.18,1.57,3.88,1.95,7.72,1.97,10.34-.42,.14-.81,.35-1.15,.61-.87,.68-1.42,1.74-1.42,2.93,0,1.3,.66,2.44,1.67,3.11l-1.8,7.39h7.73l-1.8-7.39c1-.67,1.67-1.81,1.67-3.11Z"/>
    <polygon class="cls-2" points="113.12 98.41 112.23 104.16 117.04 100.89 117.83 100.35 113.27 97.47 113.12 98.41"/>
    <path class="cls-6" d="M128.42,74.19l-5.55,8.77,.61,3.38,3.31-.9,2.94-4.65h.01s24.8-39.21,24.8-39.21c.69-1.09,.36-2.52-.72-3.21h0c-1.09-.69-2.52-.36-3.21,.72l-22.19,35.09h0Z"/>
    <path class="cls-11" d="M122.36,80.15l.1,.57,2.04-3.22h.02s24.8-39.2,24.8-39.2c.69-1.09,.36-2.52-.72-3.21h0c-1.09-.69-2.52-.36-3.21,.72l-22.19,35.09h-.01s-6.9,10.9-6.9,10.9l4.44-1.2,1.63-.45Z"/>
    <path class="cls-7" d="M159.05,41.69c-1.09-.69-2.52-.36-3.21,.72l-22.19,35.09h-.01s-4.65,7.34-4.65,7.34l.56-.15,.29,1.66,.82,4.55,4.3-6.8h0s24.8-39.21,24.8-39.21c.69-1.09,.36-2.52-.72-3.21h0Z"/>
    <polygon class="cls-4" points="126 86.71 122.69 87.61 122.08 84.24 121.68 81.99 121.58 81.42 115.51 83.07 113.72 94.57 113.48 96.08 118.99 99.56 120.25 98.7 129.87 92.15 128.76 85.97 128.21 86.12 126 86.71"/>
    <g>
      <path class="cls-3" d="M116.72,41.95h-39.86c-1.14,1.65-2.15,3.38-3.04,5.17h42.91c3.81,0,6.91,3.1,6.91,6.91v8.58l5.17-8.17v-.42c0-6.66-5.42-12.08-12.08-12.08Z"/>
      <path class="cls-12" d="M124.9,100.11l-1.27,.86v8.68c0,3.81-3.1,6.91-6.91,6.91H61.1c-3.81,0-6.91-3.1-6.91-6.91v-42.91c-1.79,.89-3.51,1.9-5.17,3.04v39.86c0,6.66,5.42,12.08,12.08,12.08h55.62c6.66,0,12.08-5.42,12.08-12.08v-13.38s-2,2.34-3.9,3.84Z"/>
    </g>
  </g>
</svg>