<?xml version="1.0" encoding="UTF-8"?>
<svg version="1.1" xmlns="http://www.w3.org/2000/svg" width="348" height="111">
<path d="M0 0 C0.99 0.33 1.98 0.66 3 1 C2.8865625 1.7734375 2.773125 2.546875 2.65625 3.34375 C2.47040085 7.09790275 2.59054313 9.48706798 4 13 C8.58251707 16.83420987 14.48117623 18.88455459 20 21 C19.34 24.96 18.68 28.92 18 33 C19.28777344 32.98839844 20.57554687 32.97679687 21.90234375 32.96484375 C23.58072772 32.9554673 25.25911326 32.94636695 26.9375 32.9375 C28.21270508 32.92493164 28.21270508 32.92493164 29.51367188 32.91210938 C30.32255859 32.90888672 31.13144531 32.90566406 31.96484375 32.90234375 C32.7137085 32.89710693 33.46257324 32.89187012 34.23413086 32.88647461 C36 33 36 33 37 34 C37.08758003 35.99964982 37.10696576 38.0023611 37.09765625 40.00390625 C37.09282227 41.82631836 37.09282227 41.82631836 37.08789062 43.68554688 C37.07532227 45.60463867 37.07532227 45.60463867 37.0625 47.5625 C37.05798828 48.84576172 37.05347656 50.12902344 37.04882812 51.45117188 C37.03699545 54.63416022 37.02051068 57.81705762 37 61 C36.34 61 35.68 61 35 61 C35.99 63.475 35.99 63.475 37 66 C34.15730422 67.42134789 31.7408367 67.1430109 28.5625 67.16113281 C27.5720166 67.16858017 27.5720166 67.16858017 26.56152344 67.17617798 C24.37433843 67.19079939 22.18722587 67.19760043 20 67.203125 C18.48307289 67.20887513 16.96614581 67.21463287 15.44921875 67.22039795 C12.26822571 67.23090694 9.08725796 67.23675071 5.90625 67.24023438 C1.82366641 67.24572828 -2.2585852 67.26977547 -6.34106445 67.29820633 C-9.4739684 67.31679574 -12.60679164 67.32203625 -15.73974609 67.32357025 C-17.24529848 67.32660416 -18.75084919 67.33465746 -20.25634766 67.34775543 C-22.35865873 67.36474458 -24.46014881 67.36295424 -26.5625 67.35644531 C-28.35880859 67.36191376 -28.35880859 67.36191376 -30.19140625 67.36749268 C-31.11824219 67.24622009 -32.04507813 67.12494751 -33 67 C-33.66 66.01 -34.32 65.02 -35 64 C-33.35 63.34 -31.7 62.68 -30 62 C-30.639375 61.855625 -31.27875 61.71125 -31.9375 61.5625 C-34 61 -34 61 -35 60 C-35.09971786 58.08541718 -35.13080589 56.16717683 -35.1328125 54.25 C-35.13410156 53.0846875 -35.13539063 51.919375 -35.13671875 50.71875 C-35.13285156 49.4915625 -35.12898437 48.264375 -35.125 47 C-35.12886719 45.7728125 -35.13273438 44.545625 -35.13671875 43.28125 C-35.13542969 42.1159375 -35.13414062 40.950625 -35.1328125 39.75 C-35.13168457 38.67234375 -35.13055664 37.5946875 -35.12939453 36.484375 C-35 34 -35 34 -34 33 C-32.65732587 32.91368126 -31.31025678 32.89293527 -29.96484375 32.90234375 C-29.15595703 32.90556641 -28.34707031 32.90878906 -27.51367188 32.91210938 C-26.66353516 32.92048828 -25.81339844 32.92886719 -24.9375 32.9375 C-24.08349609 32.94201172 -23.22949219 32.94652344 -22.34960938 32.95117188 C-20.23304337 32.96299627 -18.11651315 32.98093231 -16 33 C-16.66264086 26.93735778 -16.66264086 26.93735778 -18 21 C-15.73272667 19.82592979 -13.46165376 18.66060261 -11.1875 17.5 C-10.54490234 17.16613281 -9.90230469 16.83226563 -9.24023438 16.48828125 C-6.30452301 14.99760916 -4.33873483 14 -1 14 C-1 12.68 -1 11.36 -1 10 C-1.66 10.33 -2.32 10.66 -3 11 C-6.0625 11.125 -6.0625 11.125 -9 11 C-10 10 -10 10 -10.125 6.5 C-10 3 -10 3 -9 2 C-6.9427083 1.68076508 -4.88386479 1.48838648 -2.8125 1.28125 C-0.9832467 1.18001957 -0.9832467 1.18001957 0 0 Z M-6 23 C-6 24.98 -6 26.96 -6 29 C-5.34 28.67 -4.68 28.34 -4 28 C-4.33 26.35 -4.66 24.7 -5 23 C-5.33 23 -5.66 23 -6 23 Z M1 23 C0.67 24.65 0.34 26.3 0 28 C0.99 28.495 0.99 28.495 2 29 C2 27.02 2 25.04 2 23 C1.67 23 1.34 23 1 23 Z M7 23 C6.67 24.65 6.34 26.3 6 28 C6.99 28.495 6.99 28.495 8 29 C8 27.02 8 25.04 8 23 C7.67 23 7.34 23 7 23 Z M-6 33 C-6 34.65 -6 36.3 -6 38 C-5.34 38 -4.68 38 -4 38 C-4 36.35 -4 34.7 -4 33 C-4.66 33 -5.32 33 -6 33 Z M0 33 C0 34.65 0 36.3 0 38 C0.99 38.495 0.99 38.495 2 39 C2 37.02 2 35.04 2 33 C1.34 33 0.68 33 0 33 Z M7 33 C6.67 33.99 6.34 34.98 6 36 C6.99 37.485 6.99 37.485 8 39 C8 37.02 8 35.04 8 33 C7.67 33 7.34 33 7 33 Z M-27 41 C-27 42.98 -27 44.96 -27 47 C-26.34 46.67 -25.68 46.34 -25 46 C-25 44.35 -25 42.7 -25 41 C-25.66 41 -26.32 41 -27 41 Z M-20 41 C-20.33 42.65 -20.66 44.3 -21 46 C-20.01 46.495 -20.01 46.495 -19 47 C-19 45.02 -19 43.04 -19 41 C-19.33 41 -19.66 41 -20 41 Z M-14 41 C-14 42.65 -14 44.3 -14 46 C-13.34 46 -12.68 46 -12 46 C-12 44.35 -12 42.7 -12 41 C-12.66 41 -13.32 41 -14 41 Z M15 41 C15 42.98 15 44.96 15 47 C15.33 47 15.66 47 16 47 C16 45.02 16 43.04 16 41 C15.67 41 15.34 41 15 41 Z M21 41 C21 42.65 21 44.3 21 46 C21.66 46 22.32 46 23 46 C23 44.35 23 42.7 23 41 C22.34 41 21.68 41 21 41 Z M28 41 C27.67 42.65 27.34 44.3 27 46 C27.99 46.495 27.99 46.495 29 47 C29 45.02 29 43.04 29 41 C28.67 41 28.34 41 28 41 Z M-5 45 C-5.33 50.28 -5.66 55.56 -6 61 C-15.405 61.495 -15.405 61.495 -25 62 C-25 62.33 -25 62.66 -25 63 C-5.53 63 13.94 63 34 63 C34 62.67 34 62.34 34 62 C21.13 61.505 21.13 61.505 8 61 C7.67 55.72 7.34 50.44 7 45 C3.04 45 -0.92 45 -5 45 Z M-20 50 C-21.29633621 51.06645115 -21.29633621 51.06645115 -21.0625 53.5625 C-21.041875 54.366875 -21.02125 55.17125 -21 56 C-20.34 56 -19.68 56 -19 56 C-19 54.02 -19 52.04 -19 50 C-19.33 50 -19.66 50 -20 50 Z M15 50 C15 51.98 15 53.96 15 56 C15.33 56 15.66 56 16 56 C16 54.02 16 52.04 16 50 C15.67 50 15.34 50 15 50 Z M-27 51 C-27 52.65 -27 54.3 -27 56 C-26.34 56 -25.68 56 -25 56 C-25 54.35 -25 52.7 -25 51 C-25.66 51 -26.32 51 -27 51 Z M-14 51 C-14 52.65 -14 54.3 -14 56 C-13.34 55.67 -12.68 55.34 -12 55 C-12 53.68 -12 52.36 -12 51 C-12.66 51 -13.32 51 -14 51 Z M21 51 C21 52.65 21 54.3 21 56 C21.66 56 22.32 56 23 56 C23 54.35 23 52.7 23 51 C22.34 51 21.68 51 21 51 Z M27 51 C27 52.65 27 54.3 27 56 C27.66 56 28.32 56 29 56 C29 54.35 29 52.7 29 51 C28.34 51 27.68 51 27 51 Z " fill="#0E1109" transform="translate(286,19)"/>
<path d="M0 0 C0.80566406 0.00322266 1.61132812 0.00644531 2.44140625 0.00976562 C3.70404297 0.02233398 3.70404297 0.02233398 4.9921875 0.03515625 C5.84167969 0.03966797 6.69117188 0.04417969 7.56640625 0.04882812 C9.66669659 0.06062751 11.7669508 0.07856319 13.8671875 0.09765625 C13.98352683 4.32659093 14.05448702 8.55511299 14.1171875 12.78515625 C14.16746094 14.58243164 14.16746094 14.58243164 14.21875 16.41601562 C14.23164063 17.57294922 14.24453125 18.72988281 14.2578125 19.921875 C14.27875977 20.98494873 14.29970703 22.04802246 14.32128906 23.14331055 C13.75397789 26.83418822 12.47306789 28.47074158 9.8671875 31.09765625 C7.1171875 31.91015625 7.1171875 31.91015625 4.8671875 32.09765625 C5.1971875 32.75765625 5.5271875 33.41765625 5.8671875 34.09765625 C5.90741141 36.43064285 5.91038997 38.76472291 5.8671875 41.09765625 C3.2271875 41.09765625 0.5871875 41.09765625 -2.1328125 41.09765625 C-2.1328125 38.45765625 -2.1328125 35.81765625 -2.1328125 33.09765625 C-2.8959375 32.85015625 -3.6590625 32.60265625 -4.4453125 32.34765625 C-7.41072945 30.96839255 -8.51641523 29.9050831 -10.1328125 27.09765625 C-10.1328125 26.10765625 -10.1328125 25.11765625 -10.1328125 24.09765625 C-8.1528125 23.76765625 -6.1728125 23.43765625 -4.1328125 23.09765625 C-4.9371875 22.31390625 -5.7415625 21.53015625 -6.5703125 20.72265625 C-10.30854132 16.89325111 -10.4674603 14.59398311 -10.42578125 9.42578125 C-9.98314675 5.90831243 -8.39111781 3.75448602 -6.1328125 1.09765625 C-3.8362755 -0.05061225 -2.54968083 -0.0179555 0 0 Z M-0.1328125 6.09765625 C-2.49691738 8.03497153 -2.49691738 8.03497153 -2.4453125 11.53515625 C-2.4620002 15.03318021 -2.4620002 15.03318021 -0.6328125 17.03515625 C-0.1378125 17.38578125 0.3571875 17.73640625 0.8671875 18.09765625 C2.5171875 17.43765625 4.1671875 16.77765625 5.8671875 16.09765625 C5.9084375 14.81890625 5.9496875 13.54015625 5.9921875 12.22265625 C6.02699219 11.14371094 6.02699219 11.14371094 6.0625 10.04296875 C6.05050439 7.8590198 6.05050439 7.8590198 3.8671875 6.09765625 C2.5471875 6.09765625 1.2271875 6.09765625 -0.1328125 6.09765625 Z M-2.1328125 24.09765625 C-1.8028125 24.75765625 -1.4728125 25.41765625 -1.1328125 26.09765625 C0.8471875 26.09765625 2.8271875 26.09765625 4.8671875 26.09765625 C5.1971875 24.77765625 5.5271875 23.45765625 5.8671875 22.09765625 C3.23142067 22.09765625 0.38205339 23.3660589 -2.1328125 24.09765625 Z " fill="#020601" transform="translate(167.1328125,22.90234375)"/>
<path d="M0 0 C2.33322972 0.02198855 4.66680155 0.02508816 7 0 C7.11662261 4.04142215 7.1873935 8.08240865 7.25 12.125 C7.30027344 13.83816406 7.30027344 13.83816406 7.3515625 15.5859375 C7.47632456 26.3154743 7.47632456 26.3154743 3 31 C-2.28677652 33.38423255 -7.44598252 33.49036377 -13 32 C-15.5625 30.1875 -15.5625 30.1875 -17 28 C-17 26.68 -17 25.36 -17 24 C-10.84765625 23.90234375 -10.84765625 23.90234375 -9 24 C-8.67 24.33 -8.34 24.66 -8 25 C-6.33382885 25.04063832 -4.66611905 25.042721 -3 25 C-2.67 24.34 -2.34 23.68 -2 23 C-2.66386719 23.06960937 -3.32773438 23.13921875 -4.01171875 23.2109375 C-11.20157512 23.65177541 -11.20157512 23.65177541 -15.0625 20.5 C-17.56390416 16.72563927 -18 13.50248977 -18 9 C-16.49927609 4.81377013 -14.87568011 2.23145219 -11 0 C-7.2603071 -1.54745913 -3.91184176 -0.59672162 0 0 Z M-8.8125 7.625 C-10.43117181 10.86234363 -10.10949806 12.59753927 -9 16 C-7.04836882 17.43637698 -7.04836882 17.43637698 -5 18 C-2.86124923 16.98239527 -2.86124923 16.98239527 -1 15 C-0.49992206 11.45786015 -0.49992206 11.45786015 -1 8 C-1.66 7.34 -2.32 6.68 -3 6 C-6.90933583 5.55496999 -6.90933583 5.55496999 -8.8125 7.625 Z " fill="#010501" transform="translate(229,66)"/>
<path d="M0 0 C0.75603516 -0.03738281 1.51207031 -0.07476563 2.29101562 -0.11328125 C6.39644407 -0.17737293 9.02653051 0.10326936 12.296875 2.7109375 C15.18858582 5.77327722 15.89979592 7.18479569 15.8125 11.375 C14.4375 14.0625 14.4375 14.0625 12.8125 16.375 C12.4825 17.365 12.1525 18.355 11.8125 19.375 C12.80585201 21.04563747 13.80681758 22.71175599 14.8125 24.375 C15.5625 27.625 15.5625 27.625 15.8125 30.375 C14.8125 31.375 14.8125 31.375 11.25 31.4375 C10.115625 31.416875 8.98125 31.39625 7.8125 31.375 C7.57015625 30.83230469 7.3278125 30.28960937 7.078125 29.73046875 C6.74296875 29.01503906 6.4078125 28.29960938 6.0625 27.5625 C5.73765625 26.85480469 5.4128125 26.14710937 5.078125 25.41796875 C3.63420555 23.08719754 2.07846615 21.88405729 -0.1875 20.375 C-0.17589844 21.08527344 -0.16429688 21.79554687 -0.15234375 22.52734375 C-0.13880859 23.90599609 -0.13880859 23.90599609 -0.125 25.3125 C-0.11339844 26.22902344 -0.10179688 27.14554688 -0.08984375 28.08984375 C-0.1875 30.375 -0.1875 30.375 -1.1875 31.375 C-4.6875 31.5 -4.6875 31.5 -8.1875 31.375 C-10.04464057 29.51785943 -9.31798681 26.44992951 -9.3203125 23.96875 C-9.32160156 22.66808594 -9.32289062 21.36742187 -9.32421875 20.02734375 C-9.32212402 19.34655762 -9.3200293 18.66577148 -9.31787109 17.96435547 C-9.3125224 15.88371485 -9.3178168 13.80329011 -9.32421875 11.72265625 C-9.32292969 10.42199219 -9.32164063 9.12132812 -9.3203125 7.78125 C-9.31918457 6.57791016 -9.31805664 5.37457031 -9.31689453 4.13476562 C-9.0553572 -1.44338163 -4.51754208 0.08261507 0 0 Z M-0.1875 7.375 C-0.56968767 9.03114657 -0.90145102 10.69957024 -1.1875 12.375 C-0.13439723 13.64503323 -0.13439723 13.64503323 2.25 13.5625 C4.97984675 13.64339983 4.97984675 13.64339983 6.8125 11.375 C6.4939823 9.26679203 6.4939823 9.26679203 5.8125 7.375 C3.8325 7.375 1.8525 7.375 -0.1875 7.375 Z " fill="#030601" transform="translate(111.1875,16.625)"/>
<path d="M0 0 C2.33294775 -0.04241723 4.66702567 -0.04092937 7 0 C8.96822886 1.96822886 8.66248381 5.34808709 9 8 C10.051875 7.773125 11.10375 7.54625 12.1875 7.3125 C16.43857035 6.96405161 17.73215948 7.38572759 21 10 C23.08855328 13.13282992 23.24938801 13.8505635 23.23046875 17.4140625 C23.22853516 18.25710937 23.22660156 19.10015625 23.22460938 19.96875 C23.20624023 21.28359375 23.20624023 21.28359375 23.1875 22.625 C23.18685547 23.50929688 23.18621094 24.39359375 23.18554688 25.3046875 C23.14030526 31.85969474 23.14030526 31.85969474 22 33 C19 33.125 19 33.125 16 33 C13.88074396 30.88074396 14.58168983 26.3803907 14.4375 23.4375 C14.39431641 22.63119141 14.35113281 21.82488281 14.30664062 20.99414062 C14.20024738 18.99631195 14.09959112 16.9981793 14 15 C11.24358584 15.49756092 11.24358584 15.49756092 9 17 C8.78936893 19.50416935 8.62427923 21.99140081 8.5 24.5 C8.13513514 31.86486486 8.13513514 31.86486486 7 33 C4 33.125 4 33.125 1 33 C0 32 0 32 -0.11352539 28.94897461 C-0.11336634 27.60008729 -0.10767612 26.25119386 -0.09765625 24.90234375 C-0.0962413 24.19348526 -0.09482635 23.48462677 -0.09336853 22.75428772 C-0.08775443 20.48198288 -0.07519963 18.20977525 -0.0625 15.9375 C-0.05748681 14.40039204 -0.05292359 12.86328255 -0.04882812 11.32617188 C-0.03778042 7.55074358 -0.02050641 3.77538829 0 0 Z " fill="#010501" transform="translate(185,15)"/>
<path d="M0 0 C3.27012522 2.05184328 4.56438442 3.3327519 5.54296875 7.078125 C5.875 9.25 5.875 9.25 6 13 C5 14 5 14 1.40234375 14.09765625 C-0.08596867 14.0909822 -1.57426432 14.07902183 -3.0625 14.0625 C-4.20041992 14.05573242 -4.20041992 14.05573242 -5.36132812 14.04882812 C-7.24091871 14.0370068 -9.12046899 14.01907078 -11 14 C-10.67 14.99 -10.34 15.98 -10 17 C-7.69 17.33 -5.38 17.66 -3 18 C-2.67 17.01 -2.34 16.02 -2 15 C0.31 15 2.62 15 5 15 C5.33 15.66 5.66 16.32 6 17 C4.10667003 21.10221492 2.19823125 23.30284269 -2 25 C-6.81455332 25.73264942 -11.39166065 25.97972377 -15.5 23.0625 C-18.68096974 19.16581207 -19.88293378 16.02548539 -20 11 C-19.27657265 6.74063691 -18.25314272 3.94585033 -14.75390625 1.3046875 C-9.96356599 -0.96477867 -5.17696916 -0.74468159 0 0 Z M-9 6 C-9.33 6.66 -9.66 7.32 -10 8 C-7.69 8 -5.38 8 -3 8 C-3.33 7.34 -3.66 6.68 -4 6 C-5.65 6 -7.3 6 -9 6 Z " fill="#020601" transform="translate(66,66)"/>
<path d="M0 0 C1.55654297 -0.07347656 1.55654297 -0.07347656 3.14453125 -0.1484375 C6.1875 0.375 6.1875 0.375 9.05078125 2.2890625 C12.0440693 6.61209278 11.78533001 9.99990966 11.5625 15.125 C11.54123047 16.43791016 11.54123047 16.43791016 11.51953125 17.77734375 C11.3703497 24.1921503 11.3703497 24.1921503 10.1875 25.375 C7.42002818 25.58285733 4.70839342 25.69962012 1.9375 25.75 C0.79087891 25.80607422 0.79087891 25.80607422 -0.37890625 25.86328125 C-4.65088205 25.92968502 -6.32977993 25.7393638 -9.85546875 23.078125 C-11.8125 20.375 -11.8125 20.375 -11.875 16.75 C-10.72940793 13.1110605 -10.11739087 12.12464811 -6.8125 10.375 C-3.33924819 9.2172494 -0.45182552 9.30633348 3.1875 9.375 C3.1875 8.385 3.1875 7.395 3.1875 6.375 C0.8775 6.375 -1.4325 6.375 -3.8125 6.375 C-3.8125 7.035 -3.8125 7.695 -3.8125 8.375 C-6.1225 8.705 -8.4325 9.035 -10.8125 9.375 C-11.5625 7.625 -11.5625 7.625 -11.8125 5.375 C-8.16169337 0.96885407 -5.59767985 0.17945706 0 0 Z M-2.8125 15.375 C-2.8125 16.695 -2.8125 18.015 -2.8125 19.375 C-1.1625 19.045 0.4875 18.715 2.1875 18.375 C2.5175 17.385 2.8475 16.395 3.1875 15.375 C1.2075 15.375 -0.7725 15.375 -2.8125 15.375 Z " fill="#020701" transform="translate(86.8125,65.625)"/>
<path d="M0 0 C2.42955643 2.17611349 3.83058653 3.89788433 4.33422852 7.17431641 C4.42960766 9.71114742 4.39808273 12.21294753 4.3125 14.75 C4.30283203 15.62527344 4.29316406 16.50054687 4.28320312 17.40234375 C4.16857611 23.83142389 4.16857611 23.83142389 3 25 C0 25.125 0 25.125 -3 25 C-5.11925604 22.88074396 -4.41831017 18.3803907 -4.5625 15.4375 C-4.60568359 14.63119141 -4.64886719 13.82488281 -4.69335938 12.99414062 C-4.79975262 10.99631195 -4.90040888 8.9981793 -5 7 C-7.75641416 7.49756092 -7.75641416 7.49756092 -10 9 C-10.21063107 11.50416935 -10.37572077 13.99140081 -10.5 16.5 C-10.86486486 23.86486486 -10.86486486 23.86486486 -12 25 C-15 25.125 -15 25.125 -18 25 C-19 24 -19 24 -19.11352539 21.68334961 C-19.10828857 20.68311768 -19.10305176 19.68288574 -19.09765625 18.65234375 C-19.09443359 17.57275391 -19.09121094 16.49316406 -19.08789062 15.38085938 C-19.07951172 14.24455078 -19.07113281 13.10824219 -19.0625 11.9375 C-19.05798828 10.79732422 -19.05347656 9.65714844 -19.04882812 8.48242188 C-19.03699747 5.65489649 -19.0205141 2.8274736 -19 0 C-18.31292969 0.01160156 -17.62585938 0.02320312 -16.91796875 0.03515625 C-15.56638672 0.04869141 -15.56638672 0.04869141 -14.1875 0.0625 C-12.84751953 0.07990234 -12.84751953 0.07990234 -11.48046875 0.09765625 C-1.0899654 -0.31141869 -1.0899654 -0.31141869 0 0 Z " fill="#010601" transform="translate(149,66)"/>
<path d="M0 0 C2.42955643 2.17611349 3.83058653 3.89788433 4.33422852 7.17431641 C4.42960766 9.71114742 4.39808273 12.21294753 4.3125 14.75 C4.30283203 15.62527344 4.29316406 16.50054687 4.28320312 17.40234375 C4.16857611 23.83142389 4.16857611 23.83142389 3 25 C0 25.125 0 25.125 -3 25 C-5.11925604 22.88074396 -4.41831017 18.3803907 -4.5625 15.4375 C-4.60568359 14.63119141 -4.64886719 13.82488281 -4.69335938 12.99414062 C-4.79975262 10.99631195 -4.90040888 8.9981793 -5 7 C-7.75641416 7.49756092 -7.75641416 7.49756092 -10 9 C-10.21063107 11.50416935 -10.37572077 13.99140081 -10.5 16.5 C-10.86486486 23.86486486 -10.86486486 23.86486486 -12 25 C-15 25.125 -15 25.125 -18 25 C-19 24 -19 24 -19.11352539 21.68334961 C-19.10828857 20.68311768 -19.10305176 19.68288574 -19.09765625 18.65234375 C-19.09443359 17.57275391 -19.09121094 16.49316406 -19.08789062 15.38085938 C-19.07951172 14.24455078 -19.07113281 13.10824219 -19.0625 11.9375 C-19.05798828 10.79732422 -19.05347656 9.65714844 -19.04882812 8.48242188 C-19.03699747 5.65489649 -19.0205141 2.8274736 -19 0 C-15.66666667 0 -12.33333333 0 -9 0 C-5.39297148 -1.20234284 -3.64185324 -1.0405295 0 0 Z " fill="#010501" transform="translate(204,66)"/>
<path d="M0 0 C0 2.31 0 4.62 0 7 C0.804375 6.979375 1.60875 6.95875 2.4375 6.9375 C5 7 5 7 6 8 C6.125 10.5 6.125 10.5 6 13 C5.67 13.33 5.34 13.66 5 14 C3.35 14 1.7 14 0 14 C0.33 17.3 0.66 20.6 1 24 C3.97 24.33 6.94 24.66 10 25 C10.04254356 26.99954746 10.04080783 29.00041636 10 31 C8.28310511 32.71689489 6.09121863 32.25303054 3.75 32.3125 C-0.16475809 32.28707949 -1.69718853 32.18168688 -5.125 30.125 C-8.22420435 26.6125684 -8.11159419 24.48985367 -8.0625 19.875 C-8.05347656 18.77929688 -8.04445312 17.68359375 -8.03515625 16.5546875 C-8.02355469 15.71164063 -8.01195312 14.86859375 -8 14 C-9.65 13.67 -11.3 13.34 -13 13 C-13 11.35 -13 9.7 -13 8 C-11.35 7.67 -9.7 7.34 -8 7 C-8 5.68 -8 4.36 -8 3 C-2.25 0 -2.25 0 0 0 Z " fill="#020701" transform="translate(225,16)"/>
<path d="M0 0 C2.64 0 5.28 0 8 0 C8 7.92 8 15.84 8 24 C11.35286458 23.70703125 14.70572917 23.4140625 18.05859375 23.12109375 C19.51458984 23.06115234 19.51458984 23.06115234 21 23 C22 24 22 24 22.125 27 C22 30 22 30 21 31 C19.52347336 31.09880797 18.04232764 31.13079245 16.5625 31.1328125 C15.22058594 31.13474609 15.22058594 31.13474609 13.8515625 31.13671875 C12.91054688 31.13285156 11.96953125 31.12898438 11 31.125 C9.58847656 31.13080078 9.58847656 31.13080078 8.1484375 31.13671875 C7.25382812 31.13542969 6.35921875 31.13414063 5.4375 31.1328125 C4.61121094 31.13168457 3.78492188 31.13055664 2.93359375 31.12939453 C1 31 1 31 0 30 C-0.08783542 27.78144736 -0.10694609 25.56011504 -0.09765625 23.33984375 C-0.0962413 22.67537735 -0.09482635 22.01091095 -0.09336853 21.3263092 C-0.08775518 19.19666101 -0.07520054 17.06711661 -0.0625 14.9375 C-0.05748671 13.49674631 -0.05292351 12.05599097 -0.04882812 10.61523438 C-0.03778145 7.07678898 -0.02050792 3.53840461 0 0 Z " fill="#000500" transform="translate(21,60)"/>
<path d="M0 0 C3.09244792 0.03255208 6.18489583 0.06510417 9.27734375 0.09765625 C9.27734375 6.03765625 9.27734375 11.97765625 9.27734375 18.09765625 C11.58734375 18.09765625 13.89734375 18.09765625 16.27734375 18.09765625 C17.27734375 19.09765625 17.27734375 19.09765625 17.40234375 21.59765625 C17.27734375 24.09765625 17.27734375 24.09765625 16.27734375 25.09765625 C14.73952784 25.19667732 13.19724931 25.22845192 11.65625 25.23046875 C10.25342773 25.23240234 10.25342773 25.23240234 8.82226562 25.234375 C7.83806641 25.23050781 6.85386719 25.22664063 5.83984375 25.22265625 C4.3693457 25.22845703 4.3693457 25.22845703 2.86914062 25.234375 C1.93263672 25.23308594 0.99613281 25.23179688 0.03125 25.23046875 C-1.26317017 25.22877686 -1.26317017 25.22877686 -2.58374023 25.22705078 C-4.72265625 25.09765625 -4.72265625 25.09765625 -6.72265625 24.09765625 C-6.76537725 22.4315372 -6.76329457 20.7638274 -6.72265625 19.09765625 C-5.72265625 18.09765625 -5.72265625 18.09765625 -2.16015625 18.03515625 C-1.02578125 18.05578125 0.10859375 18.07640625 1.27734375 18.09765625 C1.27734375 14.46765625 1.27734375 10.83765625 1.27734375 7.09765625 C-0.37265625 6.76765625 -2.02265625 6.43765625 -3.72265625 6.09765625 C-3.76537725 4.4315372 -3.76329457 2.7638274 -3.72265625 1.09765625 C-2.72265625 0.09765625 -2.72265625 0.09765625 0 0 Z " fill="#010501" transform="translate(163.72265625,65.90234375)"/>
<path d="M0 0 C2.58841637 2.19019846 3.85198477 3.68970129 4.23828125 7.109375 C4.24873401 9.07449466 4.1329252 11.03935331 4 13 C1.69 13 -0.62 13 -3 13 C-3.66 11.02 -4.32 9.04 -5 7 C-6.65 7.33 -8.3 7.66 -10 8 C-10.06058594 9.14339844 -10.12117188 10.28679687 -10.18359375 11.46484375 C-10.26798428 12.95574305 -10.35263302 14.44662775 -10.4375 15.9375 C-10.49647461 17.06961914 -10.49647461 17.06961914 -10.55664062 18.22460938 C-10.88671875 23.88671875 -10.88671875 23.88671875 -12 25 C-15 25.125 -15 25.125 -18 25 C-19 24 -19 24 -19.11352539 21.68334961 C-19.10828857 20.68311768 -19.10305176 19.68288574 -19.09765625 18.65234375 C-19.09443359 17.57275391 -19.09121094 16.49316406 -19.08789062 15.38085938 C-19.07951172 14.24455078 -19.07113281 13.10824219 -19.0625 11.9375 C-19.05798828 10.79732422 -19.05347656 9.65714844 -19.04882812 8.48242188 C-19.03699747 5.65489649 -19.0205141 2.8274736 -19 0 C-16 0 -13 0 -10 0 C-6.16652698 -1.27782434 -3.91272241 -0.96101954 0 0 Z " fill="#020701" transform="translate(122,66)"/>
<path d="M0 0 C1.97909398 -0.02686553 3.95828971 -0.04633375 5.9375 -0.0625 C7.03964844 -0.07410156 8.14179688 -0.08570312 9.27734375 -0.09765625 C12 0 12 0 13 1 C13.09997642 3.49058914 13.13879627 5.94727395 13.125 8.4375 C13.13080078 9.47874023 13.13080078 9.47874023 13.13671875 10.54101562 C13.12663994 15.74672012 13.12663994 15.74672012 12 18 C14.64 18 17.28 18 20 18 C20.04254356 19.99954746 20.04080783 22.00041636 20 24 C18.37799485 25.62200515 16.57976969 25.1299075 14.34375 25.1328125 C12.93416016 25.13474609 12.93416016 25.13474609 11.49609375 25.13671875 C10.50738281 25.13285156 9.51867187 25.12898438 8.5 25.125 C7.51128906 25.12886719 6.52257812 25.13273437 5.50390625 25.13671875 C4.56417969 25.13542969 3.62445313 25.13414063 2.65625 25.1328125 C1.78806641 25.13168457 0.91988281 25.13055664 0.02539062 25.12939453 C-2 25 -2 25 -3 24 C-3.04080783 22.00041636 -3.04254356 19.99954746 -3 18 C-0.36 18 2.28 18 5 18 C4.814375 16.741875 4.62875 15.48375 4.4375 14.1875 C3.99267239 11.17255732 4.00156154 9.99531539 5 7 C3.35 6.67 1.7 6.34 0 6 C0 4.02 0 2.04 0 0 Z " fill="#010301" transform="translate(133,23)"/>
<path d="M0 0 C23.1 0 46.2 0 70 0 C70 1.32 70 2.64 70 4 C66.53529887 5.05602293 63.33049585 5.13909332 59.71850586 5.16113281 C58.44716293 5.17074036 57.17582001 5.1803479 55.86595154 5.19024658 C54.48225077 5.19509308 53.09854792 5.19937228 51.71484375 5.203125 C50.29285175 5.20887951 48.87085977 5.2146372 47.4488678 5.22039795 C44.47233724 5.2308863 41.49583353 5.236744 38.51928711 5.24023438 C34.70364844 5.24573315 30.8883641 5.26979922 27.07283688 5.29820633 C24.13805595 5.31681321 21.20336102 5.32203712 18.26852608 5.32357025 C16.86148694 5.32659868 15.45444939 5.33463368 14.04746819 5.34775543 C12.08241696 5.36478295 10.1172191 5.36109565 8.15209961 5.35644531 C7.03387314 5.36009094 5.91564667 5.36373657 4.76353455 5.36749268 C2 5 2 5 0.11549377 3.47772217 C-0.25261917 2.99007385 -0.62073212 2.50242554 -1 2 C-0.67 1.34 -0.34 0.68 0 0 Z " fill="#0A1500" transform="translate(252,87)"/>
<path d="M0 0 C3.43742918 -0.05802698 6.87473253 -0.09360486 10.3125 -0.125 C11.28896484 -0.14175781 12.26542969 -0.15851563 13.27148438 -0.17578125 C14.20927734 -0.18222656 15.14707031 -0.18867187 16.11328125 -0.1953125 C16.97735596 -0.20578613 17.84143066 -0.21625977 18.73168945 -0.22705078 C21 0 21 0 24 2 C26.68004202 2.24047646 29.26554203 2.37273498 31.94921875 2.4140625 C32.72183548 2.43342865 33.49445221 2.4527948 34.29048157 2.4727478 C36.7560424 2.53248479 39.22165007 2.57890486 41.6875 2.625 C43.3600463 2.66318525 45.03257305 2.70223731 46.70507812 2.7421875 C50.80322647 2.83818133 54.90146688 2.92223377 59 3 C59 3.33 59 3.66 59 4 C45.72283568 4.77326731 32.42943756 5.25524179 19.13644409 5.66043091 C17.2506263 5.72024476 15.36497133 5.7854286 13.47952271 5.85592651 C10.79517251 5.95499185 8.11090054 6.03448848 5.42578125 6.109375 C4.19580414 6.160653 4.19580414 6.160653 2.940979 6.21296692 C0.6574707 6.26464844 0.6574707 6.26464844 -3 6 C-3.66 5.01 -4.32 4.02 -5 3 C-3.35 2.34 -1.7 1.68 0 1 C0 0.67 0 0.34 0 0 Z " fill="#050707" transform="translate(256,80)"/>
<path d="M0 0 C0.66 0 1.32 0 2 0 C2.33 0.99 2.66 1.98 3 3 C6.73437848 3.87867729 10.16774573 4.08912219 14 4 C14 6.31 14 8.62 14 11 C13.34 11 12.68 11 12 11 C11.67 9.35 11.34 7.7 11 6 C11 7.65 11 9.3 11 11 C8.03 11 5.06 11 2 11 C1.690625 9.906875 1.38125 8.81375 1.0625 7.6875 C0.41662103 5.44592006 -0.2623117 3.2130649 -1 1 C-0.67 0.67 -0.34 0.34 0 0 Z M4 5 C4 6.65 4 8.3 4 10 C4.66 10 5.32 10 6 10 C6 8.35 6 6.7 6 5 C5.34 5 4.68 5 4 5 Z " fill="#0B1201" transform="translate(303,55)"/>
<path d="M0 0 C3.5 0.125 3.5 0.125 4.5 1.125 C4.54092937 3.45797433 4.54241723 5.79205225 4.5 8.125 C1.53 8.125 -1.44 8.125 -4.5 8.125 C-4.54241723 5.79205225 -4.54092937 3.45797433 -4.5 1.125 C-3.5 0.125 -3.5 0.125 0 0 Z " fill="#020701" transform="translate(141.5,12.875)"/>
<path d="M0 0 C0.25 2.3125 0.25 2.3125 0 5 C-2.37869491 7.65315971 -3.67124653 7.98103345 -7.25 8.1875 C-8.1575 8.125625 -9.065 8.06375 -10 8 C-10 5.69 -10 3.38 -10 1 C-2.25 0 -2.25 0 0 0 Z " fill="#0F0E0E" transform="translate(287,22)"/>
<path d="M0 0 C1.5625 1 1.5625 1 3 3 C2.83584826 4.93699053 2.65519791 6.87674814 2.328125 8.79296875 C1.82017708 12.20952318 1.93840844 15.55087237 2 19 C0.68 18.67 -0.64 18.34 -2 18 C-2.16653036 13.67021068 -2.15551178 10.77214561 0 7 C0 6.01 0 5.02 0 4 C-0.66 4 -1.32 4 -2 4 C-2 3.01 -2 2.02 -2 1 C-1.34 0.67 -0.68 0.34 0 0 Z M0 12 C-0.33 12.99 -0.66 13.98 -1 15 C-0.01 16.485 -0.01 16.485 1 18 C1 16.02 1 14.04 1 12 C0.67 12 0.34 12 0 12 Z " fill="#0B1201" transform="translate(293,40)"/>
<path d="M0 0 C0.66 0 1.32 0 2 0 C2 4.95 2 9.9 2 15 C1.34 15 0.68 15 0 15 C-1.2063366 9.77254141 -0.75612577 5.23471686 0 0 Z " fill="#041200" transform="translate(191,32)"/>
<path d="M0 0 C3.96 0 7.92 0 12 0 C11.67 0.66 11.34 1.32 11 2 C8.36 2 5.72 2 3 2 C2.67 2.66 2.34 3.32 2 4 C2.99 4.66 3.98 5.32 5 6 C3.35 6 1.7 6 0 6 C0 4.02 0 2.04 0 0 Z " fill="#081400" transform="translate(133,23)"/>
<path d="M0 0 C0.66 0 1.32 0 2 0 C4.32590854 3.63423209 4.16265833 6.77088331 4 11 C3.34 11 2.68 11 2 11 C1.690625 9.906875 1.38125 8.81375 1.0625 7.6875 C0.41662103 5.44592006 -0.2623117 3.2130649 -1 1 C-0.67 0.67 -0.34 0.34 0 0 Z " fill="#131804" transform="translate(303,55)"/>
<path d="M0 0 C0.66 0 1.32 0 2 0 C1.67 2.31 1.34 4.62 1 7 C2.98 6.67 4.96 6.34 7 6 C7 6.66 7 7.32 7 8 C4.36 8 1.72 8 -1 8 C-1.04241723 5.66705225 -1.04092937 3.33297433 -1 1 C-0.67 0.67 -0.34 0.34 0 0 Z " fill="#081400" transform="translate(138,13)"/>
<path d="M0 0 C0.66 0 1.32 0 2 0 C2.66 0.99 3.32 1.98 4 3 C5.32 3.66 6.64 4.32 8 5 C5.03 5 2.06 5 -1 5 C-1 2 -1 2 0 0 Z " fill="#0F0F11" transform="translate(303,74)"/>
<path d="M0 0 C1.98 0 3.96 0 6 0 C5.2575 0.8971875 5.2575 0.8971875 4.5 1.8125 C2.71723582 3.97029994 2.71723582 3.97029994 3 7 C0 3.375 0 3.375 0 0 Z " fill="#041000" transform="translate(157,47)"/>
</svg>
