<svg xmlns="http://www.w3.org/2000/svg" width="25" height="24" viewBox="0 0 25 24" fill="none">
  <path d="M7.66041 2H5.76041C3.57041 2 2.42041 3.15 2.42041 5.33V7.23C2.42041 9.41 3.57041 10.56 5.75041 10.56H7.65041C9.83041 10.56 10.9804 9.41 10.9804 7.23V5.33C10.9904 3.15 9.84041 2 7.66041 2Z" fill="#9E4AED"/>
  <path opacity="0.4" d="M19.0904 2H17.1904C15.0104 2 13.8604 3.15 13.8604 5.33V7.23C13.8604 9.41 15.0104 10.56 17.1904 10.56H19.0904C21.2704 10.56 22.4204 9.41 22.4204 7.23V5.33C22.4204 3.15 21.2704 2 19.0904 2Z" fill="#9E4AED"/>
  <path d="M19.0904 13.4299H17.1904C15.0104 13.4299 13.8604 14.5799 13.8604 16.7599V18.6599C13.8604 20.8399 15.0104 21.9899 17.1904 21.9899H19.0904C21.2704 21.9899 22.4204 20.8399 22.4204 18.6599V16.7599C22.4204 14.5799 21.2704 13.4299 19.0904 13.4299Z" fill="#9E4AED"/>
  <path opacity="0.4" d="M7.66041 13.4299H5.76041C3.57041 13.4299 2.42041 14.5799 2.42041 16.7599V18.6599C2.42041 20.8499 3.57041 21.9999 5.75041 21.9999H7.65041C9.83041 21.9999 10.9804 20.8499 10.9804 18.6699V16.7699C10.9904 14.5799 9.84041 13.4299 7.66041 13.4299Z" fill="#9E4AED"/>
</svg>
