<svg width="20" height="20" viewBox="0 0 20 20" fill="none" xmlns="http://www.w3.org/2000/svg">
<path d="M19.354 18.6044L15.345 14.5954C16.681 13.0934 17.501 11.1224 17.501 8.95844C17.501 4.27144 13.688 0.458435 9.00098 0.458435C4.31398 0.458435 0.500977 4.27144 0.500977 8.95844C0.500977 13.6454 4.31398 17.4584 9.00098 17.4584C11.165 17.4584 13.136 16.6384 14.638 15.3024L18.647 19.3114C18.745 19.4094 18.873 19.4574 19.001 19.4574C19.129 19.4574 19.257 19.4084 19.355 19.3114C19.549 19.1164 19.549 18.8004 19.354 18.6044ZM1.5 8.95844C1.5 4.82343 4.864 1.45844 9 1.45844C13.136 1.45844 16.5 4.82343 16.5 8.95844C16.5 13.0934 13.136 16.4584 9 16.4584C4.864 16.4584 1.5 13.0934 1.5 8.95844Z" fill="#ffffff"/>
</svg>
