<svg width="54" height="54" viewBox="0 0 54 54" fill="none" xmlns="http://www.w3.org/2000/svg">
<path d="M46.9145 6.56089V47.2846C46.9145 50.5952 44.2298 53.2801 40.9274 53.2801H15.7439C12.4332 53.2801 9.74854 50.5952 9.74854 47.2846V6.56089C9.74854 3.25069 12.4332 0.574219 15.7439 0.574219H40.9274C44.2298 0.574219 46.9145 3.25069 46.9145 6.56089Z" fill="#0F172A"/>
<path d="M43.6206 6.56089V47.2846C43.6206 50.5952 40.9359 53.2801 37.6335 53.2801H12.4499C9.1393 53.2801 6.45459 50.5952 6.45459 47.2846V6.56089C6.45459 3.25069 9.1393 0.574219 12.4499 0.574219H37.6335C40.9359 0.574219 43.6206 3.25069 43.6206 6.56089Z" fill="#334155"/>
<path d="M41.1501 6.56101V44.8141C41.1501 46.7575 39.577 48.339 37.6336 48.339H12.45C10.5066 48.339 8.92529 46.7575 8.92529 44.8141V6.56101C8.92529 4.61759 10.5066 3.04492 12.45 3.04492H37.6336C39.577 3.04492 41.1501 4.61759 41.1501 6.56101Z" fill="white"/>
<path d="M25.0389 51.4129C27.6632 51.4129 29.7906 51.021 29.7906 50.5375C29.7906 50.054 27.6632 49.6621 25.0389 49.6621C22.4145 49.6621 20.2871 50.054 20.2871 50.5375C20.2871 51.021 22.4145 51.4129 25.0389 51.4129Z" fill="#3A3A3A"/>
<path d="M0.67627 52.6393C0.67627 53.0717 1.03012 53.4257 1.46268 53.4257H15.6023C17.3639 53.4257 18.9288 52.1121 19.0624 50.3507C19.1333 49.3285 18.7558 48.4004 18.0952 47.74C17.4896 47.1421 16.6562 46.7646 15.7359 46.7646H1.46268C1.03012 46.7646 0.67627 47.1187 0.67627 47.5511C0.67627 47.9834 1.03012 48.3375 1.46268 48.3375H1.64354V51.8529H1.46268C1.03012 51.8529 0.67627 52.2065 0.67627 52.6393Z" fill="#B53016"/>
<path d="M15.7362 51.8533C16.7073 51.8533 17.4975 51.0667 17.4975 50.0996C17.4975 49.6273 17.3147 49.1842 16.983 48.8522C16.6497 48.5234 16.2039 48.3379 15.7362 48.3379H1.64453V51.8533H15.7362Z" fill="#D1DAFE"/>
<path d="M2.70117 49.4044C3.84619 49.5065 4.99103 49.5541 6.13605 49.5938C7.28107 49.6391 8.42591 49.6453 9.57093 49.6515C10.7159 49.646 11.8608 49.6394 13.0058 49.5945C14.1508 49.5548 15.2957 49.5072 16.4407 49.4044C15.2957 49.3015 14.1508 49.2539 13.0058 49.2142C11.8608 49.1693 10.7159 49.1627 9.57093 49.1572C8.42591 49.1634 7.28107 49.1697 6.13605 49.2149C4.99103 49.2546 3.84619 49.3022 2.70117 49.4044Z" fill="#8A9BEA"/>
<path d="M2.70117 50.6417C3.84619 50.7438 4.99103 50.7914 6.13605 50.8311C7.28107 50.8764 8.42591 50.8826 9.57093 50.8888C10.7159 50.8833 11.8608 50.8767 13.0058 50.8318C14.1508 50.7921 15.2957 50.7445 16.4407 50.6417C15.2957 50.5388 14.1508 50.4912 13.0058 50.4515C11.8608 50.4066 10.7159 50.4001 9.57093 50.3945C8.42591 50.4007 7.28107 50.407 6.13605 50.4522C4.99103 50.4919 3.84619 50.5395 2.70117 50.6417Z" fill="#8A9BEA"/>
<path d="M19.0709 45.9782C19.0709 46.4105 18.7171 46.7646 18.2845 46.7646H4.14487C2.38332 46.7646 0.818378 45.4509 0.68475 43.6896C0.613904 42.6674 0.991365 41.7393 1.65202 41.0788C2.25757 40.481 3.09102 40.1035 4.01125 40.1035H18.2845C18.7171 40.1035 19.0709 40.4576 19.0709 40.8899C19.0709 41.3223 18.7171 41.6763 18.2845 41.6763H18.1036V45.1918H18.2845C18.7171 45.1918 19.0709 45.5454 19.0709 45.9782Z" fill="#FBAD3E"/>
<path d="M4.01087 45.1922C3.03976 45.1922 2.24951 44.4056 2.24951 43.4385C2.24951 42.9662 2.43229 42.5231 2.76406 42.1911C3.09736 41.8622 3.54317 41.6768 4.01087 41.6768H18.1025V45.1922H4.01087Z" fill="#D1DAFE"/>
<path d="M17.0461 42.7432C15.9011 42.8454 14.7563 42.893 13.6113 42.9327C12.4663 42.9779 11.3214 42.9841 10.1764 42.9903C9.03138 42.9848 7.88654 42.9783 6.74152 42.9334C5.5965 42.8937 4.45166 42.8461 3.30664 42.7432C4.45166 42.6404 5.5965 42.5927 6.74152 42.553C7.88654 42.5082 9.03138 42.5016 10.1764 42.4961C11.3214 42.5023 12.4663 42.5085 13.6113 42.5537C14.7563 42.5934 15.9011 42.6411 17.0461 42.7432Z" fill="#8A9BEA"/>
<path d="M17.0461 43.9805C15.9011 44.0827 14.7563 44.1303 13.6113 44.17C12.4663 44.2152 11.3214 44.2214 10.1764 44.2276C9.03138 44.2221 7.88654 44.2156 6.74152 44.1707C5.5965 44.131 4.45166 44.0834 3.30664 43.9805C4.45166 43.8777 5.5965 43.83 6.74152 43.7903C7.88654 43.7455 9.03138 43.7389 10.1764 43.7334C11.3214 43.7396 12.4663 43.7458 13.6113 43.791C14.7563 43.8307 15.9011 43.8784 17.0461 43.9805Z" fill="#8A9BEA"/>
<path d="M39.0161 10.6743V29.5944C39.0161 30.0813 38.6217 30.4757 38.1397 30.4757H27.6328C27.1217 30.4757 26.6251 30.5974 26.1819 30.8213C25.8648 30.9799 25.5769 31.1874 25.3269 31.442C25.1671 31.6047 24.9084 31.6047 24.7486 31.4419C24.4987 31.1874 24.2108 30.9799 23.8936 30.8213C23.4506 30.5974 22.954 30.4757 22.4427 30.4757H11.9457C11.459 30.4757 11.0645 30.0811 11.0645 29.5944V10.6744C11.0645 10.1903 11.4569 9.79785 11.941 9.79785H38.1397C38.6217 9.79785 39.0161 10.1922 39.0161 10.6743Z" fill="#345EFF"/>
<path d="M25.0384 9.29549V30.0246C24.9132 29.8615 24.7877 29.7112 24.6375 29.5857C24.0481 29.0343 23.2711 28.7209 22.4439 28.7209H11.062V8.91938C11.062 8.44289 11.4507 8.04199 11.9394 8.04199H23.7849C24.1108 8.04199 24.4116 8.16716 24.6375 8.38046C24.8881 8.606 25.0384 8.93193 25.0384 9.29549Z" fill="#D1DAFE"/>
<path d="M39.0153 8.93193V28.7209H27.6334C26.6054 28.7209 25.6528 29.2096 25.0386 30.0246V9.29549C25.0386 8.606 25.6029 8.04199 26.2921 8.04199L38.1379 8.05423C38.6266 8.05423 39.0153 8.44289 39.0153 8.93193Z" fill="#D1DAFE"/>
<path d="M25.4371 8.38086V29.5843C25.291 29.711 25.1645 29.8617 25.0378 30.0225C24.9114 29.8617 24.7896 29.711 24.6387 29.5843V8.38086C24.887 8.6048 25.0378 8.93097 25.0378 9.29613C25.0378 8.93097 25.1888 8.6048 25.4371 8.38086Z" fill="#345EFF"/>
<path d="M13.271 10.7389C14.864 10.414 16.4571 10.3412 18.0501 10.3271C19.6431 10.3392 21.2361 10.4124 22.829 10.7389C21.2361 11.0654 19.6431 11.1382 18.0501 11.1503C16.4571 11.1366 14.864 11.0634 13.271 10.7389Z" fill="#88B7FF"/>
<path d="M13.271 14.6672C14.864 14.3427 16.4571 14.2695 18.0501 14.2559C19.6431 14.2679 21.2361 14.3407 22.829 14.6672C21.2361 14.9937 19.6431 15.0669 18.0501 15.079C16.4571 15.0649 14.864 14.9921 13.271 14.6672Z" fill="#88B7FF"/>
<path d="M13.271 18.5969C14.864 18.272 16.4571 18.1992 18.0501 18.1855C19.6431 18.1972 21.2361 18.2704 22.829 18.5969C21.2361 18.9234 19.6431 18.9966 18.0501 19.0083C16.4571 18.9946 14.864 18.9218 13.271 18.5969Z" fill="#88B7FF"/>
<path d="M13.271 22.526C14.864 22.2011 16.4571 22.1283 18.0501 22.1143C19.6431 22.1263 21.2361 22.1995 22.829 22.526C21.2361 22.8525 19.6431 22.9253 18.0501 22.9374C16.4571 22.9237 14.864 22.8505 13.271 22.526Z" fill="#88B7FF"/>
<path d="M13.271 26.4543C14.864 26.1298 16.4571 26.0566 18.0501 26.043C19.6431 26.055 21.2361 26.1278 22.829 26.4543C21.2361 26.7808 19.6431 26.854 18.0501 26.8661C16.4571 26.852 14.864 26.7792 13.271 26.4543Z" fill="#88B7FF"/>
<path d="M27.2476 10.7389C28.8405 10.414 30.4337 10.3412 32.0267 10.3271C33.6197 10.3392 35.2126 10.4124 36.8056 10.7389C35.2126 11.0654 33.6197 11.1382 32.0267 11.1503C30.4337 11.1366 28.8405 11.0634 27.2476 10.7389Z" fill="#88B7FF"/>
<path d="M27.2476 14.6672C28.8405 14.3427 30.4337 14.2695 32.0267 14.2559C33.6197 14.2679 35.2126 14.3407 36.8056 14.6672C35.2126 14.9937 33.6197 15.0669 32.0267 15.079C30.4337 15.0649 28.8405 14.9921 27.2476 14.6672Z" fill="#88B7FF"/>
<path d="M27.2476 18.5969C28.8405 18.272 30.4337 18.1992 32.0267 18.1855C33.6197 18.1972 35.2126 18.2704 36.8056 18.5969C35.2126 18.9234 33.6197 18.9966 32.0267 19.0083C30.4337 18.9946 28.8405 18.9218 27.2476 18.5969Z" fill="#88B7FF"/>
<path d="M27.2476 22.526C28.8405 22.2011 30.4337 22.1283 32.0267 22.1143C33.6197 22.1263 35.2126 22.1995 36.8056 22.526C35.2126 22.8525 33.6197 22.9253 32.0267 22.9374C30.4337 22.9237 28.8405 22.8505 27.2476 22.526Z" fill="#88B7FF"/>
<path d="M27.2476 26.4543C28.8405 26.1298 30.4337 26.0566 32.0267 26.043C33.6197 26.055 35.2126 26.1278 36.8056 26.4543C35.2126 26.7808 33.6197 26.854 32.0267 26.8661C30.4337 26.852 28.8405 26.7792 27.2476 26.4543Z" fill="#88B7FF"/>
<path d="M43.4484 53.3508C48.7129 53.3508 52.9807 49.0831 52.9807 43.8185C52.9807 38.5539 48.7129 34.2861 43.4484 34.2861C38.1838 34.2861 33.916 38.5539 33.916 43.8185C33.916 49.0831 38.1838 53.3508 43.4484 53.3508Z" fill="#0A22C9"/>
<path d="M43.4484 51.0541C47.4445 51.0541 50.6839 47.8146 50.6839 43.8185C50.6839 39.8225 47.4445 36.583 43.4484 36.583C39.4523 36.583 36.2129 39.8225 36.2129 43.8185C36.2129 47.8146 39.4523 51.0541 43.4484 51.0541Z" fill="#D1DAFE"/>
<path d="M43.4485 48.7573C46.176 48.7573 48.3872 46.5462 48.3872 43.8186C48.3872 41.091 46.176 38.8799 43.4485 38.8799C40.7209 38.8799 38.5098 41.091 38.5098 43.8186C38.5098 46.5462 40.7209 48.7573 43.4485 48.7573Z" fill="#0A22C9"/>
<path d="M43.4482 46.4599C44.9068 46.4599 46.0892 45.2774 46.0892 43.8188C46.0892 42.3602 44.9068 41.1777 43.4482 41.1777C41.9896 41.1777 40.8071 42.3602 40.8071 43.8188C40.8071 45.2774 41.9896 46.4599 43.4482 46.4599Z" fill="#D1DAFE"/>
<path d="M51.6376 34.723L52.399 35.0833L51.0288 35.6143C50.9735 35.6989 50.9096 35.7751 50.854 35.8601C50.1542 36.8521 49.3955 37.7896 48.6199 38.7178C47.836 39.6284 47.0353 40.5293 46.1751 41.3846C45.3238 42.2403 44.4297 43.0769 43.4521 43.8146C44.0253 42.7216 44.691 41.7109 45.3991 40.7282C46.0986 39.7447 46.8574 38.8068 47.6249 37.8697C48.4172 36.96 49.2181 36.0586 50.0779 35.2033C50.1233 35.1616 50.1686 35.1111 50.2138 35.0694C50.2148 35.0431 50.2242 35.026 50.2339 35.0005L50.9436 33.5207L51.1574 34.0778C51.1594 34.0256 51.1705 33.9648 51.1986 33.914L51.9087 32.4258L52.2171 33.2387C52.406 33.0805 52.6038 32.9227 52.8008 32.7737C52.6692 33.0298 52.5292 33.277 52.3803 33.5238L53.3637 33.9969L51.8257 34.5911C51.7903 34.6072 51.7464 34.614 51.7116 34.6127C51.6838 34.6554 51.6653 34.6896 51.6376 34.723Z" fill="#B53016"/>
<path d="M12.7508 13.4561C12.6939 14.0742 12.2279 14.5687 11.6192 14.6923C11.3531 14.7494 11.0963 14.7972 10.83 14.8353V15.986C10.83 16.4898 10.2212 16.7563 9.85993 16.3946L8.70901 15.2727C8.59501 15.1678 8.44293 15.1111 8.28133 15.1204C6.20796 15.2439 4.11578 15.073 2.02361 14.6542C1.47194 14.5497 1.04404 14.103 0.958362 13.5513C0.520934 10.9077 0.539973 8.33005 0.948843 5.80067C1.04404 5.22997 1.5005 4.77351 2.06168 4.67831C5.1808 4.15544 8.36678 4.14569 11.6099 4.66856C12.2279 4.76376 12.7034 5.27734 12.7606 5.8954C12.9698 8.36812 12.9698 10.8882 12.7508 13.4561Z" fill="#3D5E2A"/>
<path d="M13.93 13.5684C13.8731 14.1865 13.4071 14.681 12.7984 14.8046C12.5323 14.8617 12.2755 14.9095 12.0092 14.9476V16.0983C12.0092 16.6021 11.4004 16.8686 11.0391 16.5069L9.88821 15.385C9.77421 15.2801 9.62213 15.2234 9.46053 15.2327C7.38716 15.3562 5.29498 15.1853 3.20281 14.7665C2.65114 14.662 2.22324 14.2153 2.13756 13.6636C1.70013 11.02 1.71917 8.44235 2.12804 5.91298C2.22324 5.34228 2.6797 4.88581 3.24088 4.79062C6.36 4.26775 9.54598 4.258 12.7891 4.78087C13.4071 4.87606 13.8826 5.38964 13.9398 6.00771C14.149 8.48043 14.149 11.0005 13.93 13.5684Z" fill="#AEC46E"/>
<path d="M14.0922 9.83105C14.0922 11.0672 14.0446 12.3033 13.9304 13.5682C13.8735 14.1863 13.4075 14.6808 12.7987 14.8044C12.5326 14.8615 12.2758 14.9093 12.0095 14.9474V16.0981C12.0095 16.6019 11.4008 16.8684 11.0395 16.5067L9.88856 15.3848C9.77456 15.2799 9.62248 15.2232 9.46089 15.2325C7.38751 15.356 5.29534 15.1851 3.20316 14.7663C2.6515 14.6618 2.22359 14.2151 2.13791 13.6634C2.07151 13.2353 2.00487 12.8076 1.9668 12.3888C3.26027 12.9692 4.77223 13.2924 6.39843 13.2924C9.77456 13.2924 12.7038 11.8849 14.0922 9.83105Z" fill="#617F4D"/>
<path d="M9.6129 11.5074C9.45216 11.6089 9.35634 11.7837 9.35634 11.9726C9.35634 12.1418 9.28586 12.2884 9.17585 12.3984C9.06875 12.5084 8.91648 12.576 8.7501 12.576H7.30654C6.9766 12.576 6.70312 12.3054 6.70312 11.9726C6.70312 11.781 6.60448 11.6061 6.44374 11.5074C5.57813 10.9717 5.00293 10.0131 5.00293 8.92469C5.00293 7.14004 6.54803 5.7161 8.37233 5.91627C9.71161 6.06289 10.8197 7.12022 11.0198 8.4511C11.2144 9.73393 10.5997 10.9013 9.6129 11.5074Z" fill="#D1DAFE"/>
<path d="M8.79922 12.5762V12.9935C8.79922 13.4191 8.45524 13.7632 8.02949 13.7632C7.60374 13.7632 7.25977 13.4191 7.25977 12.9935V12.5762H8.79922Z" fill="#51504F"/>
<path d="M9.62965 8.84299C9.60425 8.92752 9.56199 9.00929 9.49714 9.07689C9.42665 9.14463 9.35617 9.18689 9.28568 9.22076C9.13906 9.2856 8.98961 9.32222 8.8317 9.32511C8.75839 9.32511 8.68226 9.31658 8.60613 9.29689C8.6033 9.83822 8.5949 10.3795 8.5695 10.9238C8.55257 11.4735 8.52442 12.0234 8.48208 12.576H8.45957C8.41442 12.0234 8.38619 11.4735 8.36933 10.9238C8.34393 10.3739 8.33546 9.82129 8.33264 9.27142C8.1494 9.27431 7.96615 9.27431 7.78002 9.27142C7.7772 9.82129 7.76873 10.3739 7.7434 10.9238C7.72647 11.4735 7.69824 12.0234 7.65598 12.576H7.6334C7.58831 12.0234 7.56009 11.4735 7.54322 10.9238C7.52065 10.3795 7.51218 9.83822 7.50936 9.29689C7.43322 9.31658 7.35709 9.32511 7.28378 9.32511C7.12587 9.32222 6.97367 9.2856 6.8298 9.22076C6.75656 9.18689 6.68607 9.14463 6.61834 9.07689C6.55074 9.00929 6.51123 8.92752 6.4859 8.84299C6.43792 8.66814 6.4859 8.48201 6.59301 8.35796C6.81012 8.09859 7.19918 8.12681 7.38249 8.34103C7.2866 8.23668 7.13998 8.18312 7.00465 8.21134C6.86932 8.23103 6.75932 8.3241 6.71141 8.43685C6.66067 8.54685 6.66914 8.67089 6.71423 8.76396C6.76496 8.86267 6.8327 8.91347 6.94827 8.96689C7.0582 9.02058 7.18225 9.05996 7.30636 9.08543C7.37685 9.09672 7.45016 9.10511 7.51218 9.09672C7.52904 9.04027 7.57984 8.998 7.64187 8.99511H7.64469C7.66727 8.91347 7.64469 8.79218 7.60518 8.69623C7.56573 8.60041 7.51218 8.50734 7.45016 8.42281C7.52065 8.5017 7.58267 8.58912 7.63904 8.67943C7.67567 8.73863 7.71235 8.80347 7.73776 8.87672C7.74904 8.91058 7.76026 8.95285 7.76309 8.99511H8.35239C8.35522 8.95285 8.36368 8.91058 8.3749 8.87672C8.4003 8.80347 8.43699 8.73863 8.47362 8.67943C8.55257 8.55814 8.63435 8.4425 8.73024 8.34103C8.63999 8.44814 8.56104 8.56654 8.51031 8.69623C8.46797 8.79218 8.44539 8.91347 8.46797 8.99511H8.47079C8.53564 8.99511 8.58362 9.04027 8.60055 9.09672C8.6625 9.10511 8.73864 9.09672 8.80912 9.08543C8.93041 9.05996 9.05446 9.02058 9.16446 8.96689C9.28285 8.91347 9.35052 8.86267 9.39843 8.76396C9.44352 8.67089 9.45199 8.54685 9.40408 8.43685C9.35617 8.3241 9.24334 8.23103 9.10801 8.21134C8.9755 8.18312 8.82888 8.23668 8.73024 8.34103C8.91348 8.12681 9.30254 8.09859 9.52247 8.35796C9.62965 8.48201 9.67474 8.66814 9.62965 8.84299Z" fill="#8A9BEA"/>
</svg>
