<svg width="54" height="52" viewBox="0 0 54 52" fill="none" xmlns="http://www.w3.org/2000/svg">
<path d="M36.9563 51.6089H17.1586C14.7457 51.6089 13.2551 48.9734 14.4986 46.9065L19.6045 38.391L20.008 37.7158L21.7787 37.9217L29.9151 38.8771L30.7881 38.9841L29.701 42.2123L29.6515 42.3687L28.4244 46.0006L37.3681 49.4101C38.5457 49.8548 38.2244 51.6089 36.9563 51.6089Z" fill="#334155"/>
<path d="M30.0384 36.8594L29.915 38.8772L29.7009 42.2123L29.6926 42.3523L29.6514 42.3687L14.4985 46.9066L19.6044 38.391C19.7198 38.3086 19.835 38.2346 19.9502 38.1606L21.7786 37.9218L30.0384 36.8594Z" fill="#1E293B"/>
<path d="M47.0713 8.18789C48.7186 8.28976 50.0089 9.75886 50.0089 11.5247V25.768C50.0006 30.1184 49.8093 34.4397 49.4181 38.7259C49.2714 40.3325 48.0452 41.5922 46.5402 41.7022C33.2811 42.6707 19.4145 42.5865 5.07811 41.6923C3.43148 41.5896 2.14209 40.1206 2.14209 38.3555V25.768C2.15034 21.4108 2.34153 15.4427 2.72682 11.158C2.87151 9.54892 4.09816 8.28604 5.60519 8.17611C18.8635 7.20898 32.736 7.30135 47.0713 8.18789Z" fill="#0F172A"/>
<path d="M26.7606 36.5224C20.8344 36.5224 14.6125 36.3506 8.21844 36.0107C6.78201 35.9343 5.6543 34.7401 5.6543 33.3017V25.7682C5.66072 22.4506 5.77455 17.4924 5.99387 14.2441C6.08511 12.8927 7.17486 11.819 8.52695 11.7387C13.9236 11.4181 19.5588 12.9031 25.3268 12.9031C31.259 12.9031 37.5021 11.4277 43.9313 11.7672C45.3682 11.843 46.4969 13.0374 46.4969 14.4763V25.7682C46.4906 29.0078 46.3814 30.94 46.1708 33.541C46.0621 34.8829 44.988 35.9542 43.644 36.0344C38.2129 36.3585 32.5487 36.5224 26.7606 36.5224Z" fill="white"/>
<path d="M26.0754 40.3645C29.9219 40.3645 33.04 40.0212 33.04 39.5978C33.04 39.1743 29.9219 38.8311 26.0754 38.8311C22.229 38.8311 19.1108 39.1743 19.1108 39.5978C19.1108 40.0212 22.229 40.3645 26.0754 40.3645Z" fill="#334155"/>
<path d="M40.8771 31.5281C40.8113 33.0023 39.65 34.2126 38.1841 34.328C30.1795 34.9622 22.0843 34.9457 13.89 34.3115C12.4573 34.2046 11.3042 33.0513 11.189 31.6186C10.4147 22.189 10.423 12.6939 11.1806 3.14931C11.296 1.65868 12.523 0.488928 14.0137 0.43987C22.0266 0.151554 30.0313 0.151554 38.0442 0.43987C39.5678 0.488928 40.8113 1.71618 40.8853 3.24783C41.3301 12.6774 41.3301 22.0985 40.8771 31.5281Z" fill="#D6E8FF"/>
<path d="M36.0017 4.04665C36.0017 4.84524 35.3593 5.48782 34.5605 5.48782H17.5877C16.7969 5.48782 16.1465 4.84524 16.1465 4.04665C16.1465 3.25609 16.7969 2.60547 17.5877 2.60547H34.5605C35.3593 2.60547 36.0017 3.25609 36.0017 4.04665Z" fill="#0A22C9"/>
<path d="M13.3706 8.5104C17.5518 8.08938 21.733 7.99288 25.9139 7.97559C30.0951 7.99046 34.2763 8.08697 38.4575 8.5104C34.2763 8.93382 30.0951 9.03033 25.9139 9.04521C21.733 9.02792 17.5518 8.93141 13.3706 8.5104Z" fill="#598AFF"/>
<path d="M13.3706 12.7467C17.5518 12.3257 21.733 12.2292 25.9139 12.2119C30.0951 12.2268 34.2763 12.3233 38.4575 12.7467C34.2763 13.1706 30.0951 13.2667 25.9139 13.2819C21.733 13.2646 17.5518 13.1677 13.3706 12.7467Z" fill="#598AFF"/>
<path d="M13.3706 16.9835C17.5518 16.5624 21.733 16.4655 25.9139 16.4482C30.0951 16.4635 34.2763 16.5596 38.4575 16.9835C34.2763 17.4069 30.0951 17.5034 25.9139 17.5183C21.733 17.501 17.5518 17.4041 13.3706 16.9835Z" fill="#598AFF"/>
<path d="M13.3706 21.2194C17.5518 20.7984 21.733 20.7019 25.9139 20.6846C30.0951 20.6994 34.2763 20.796 38.4575 21.2194C34.2763 21.6428 30.0951 21.7393 25.9139 21.7542C21.733 21.7369 17.5518 21.6404 13.3706 21.2194Z" fill="#598AFF"/>
<path d="M13.3706 25.4557C15.4612 25.0335 17.5518 24.939 19.6424 24.9209C20.6879 24.9301 21.7332 24.9531 22.7785 25.0379C23.8238 25.1163 24.8691 25.2329 25.9143 25.4557C24.8691 25.6785 23.8238 25.7951 22.7785 25.8735C21.7332 25.9588 20.6879 25.9813 19.6424 25.9909C17.5518 25.9728 15.4612 25.8779 13.3706 25.4557Z" fill="#598AFF"/>
<path d="M18.0384 32.0368C19.2478 32.0368 20.2282 31.0564 20.2282 29.847C20.2282 28.6376 19.2478 27.6572 18.0384 27.6572C16.829 27.6572 15.8486 28.6376 15.8486 29.847C15.8486 31.0564 16.829 32.0368 18.0384 32.0368Z" fill="#FF7843"/>
<path d="M18.0385 30.8015C18.5656 30.8015 18.9929 30.3742 18.9929 29.847C18.9929 29.3199 18.5656 28.8926 18.0385 28.8926C17.5113 28.8926 17.084 29.3199 17.084 29.847C17.084 30.3742 17.5113 30.8015 18.0385 30.8015Z" fill="white"/>
<path d="M32.1897 31.9281C31.8463 31.2602 32.2502 30.2062 33.2078 29.9987C33.3329 29.975 33.4977 29.979 33.6459 30.0377C33.7913 30.0944 33.8958 30.1833 33.9799 30.2621C34.1387 30.4193 34.2563 30.5649 34.3743 30.7354C34.4902 30.9023 34.579 31.0861 34.6578 31.2734C34.6966 31.3671 34.7306 31.4632 34.7606 31.5609C34.7885 31.641 34.8016 31.6667 34.8052 31.6977C34.7815 31.6836 34.8573 31.7447 34.9361 31.7415C35.0205 31.7475 35.143 31.7125 35.2755 31.6571C35.5423 31.5461 35.8517 31.3334 36.1149 31.1564C36.3741 30.9618 36.6103 30.7479 36.7547 30.4676C36.9127 30.1934 36.9567 29.8298 37.0287 29.4688C37.1355 29.8182 37.2157 30.1893 37.1375 30.5983C37.053 31.0024 36.8142 31.3587 36.5411 31.6374C36.2605 31.9249 35.9868 32.1384 35.6179 32.3575C35.2763 32.5389 34.6086 32.75 34.1202 32.1541C34.0498 32.023 34.0072 31.8766 33.9793 31.7873C33.9594 31.7129 33.9364 31.639 33.9093 31.5666C33.8568 31.4202 33.7865 31.2819 33.7129 31.1444C33.6423 31.0105 33.5464 30.8665 33.4613 30.7611C33.3606 30.6618 33.3781 30.649 33.2792 30.6349C32.787 30.6389 32.1905 31.1954 32.1897 31.9281Z" fill="#0F172A"/>
<path d="M38.6186 32.0368C37.279 32.459 35.9393 32.5539 34.5995 32.572C33.9298 32.5623 33.2599 32.5398 32.5901 32.4546C31.9202 32.3761 31.2503 32.2599 30.5806 32.0368C31.2503 31.814 31.9202 31.6978 32.5901 31.6194C33.2599 31.5341 33.9298 31.5112 34.5995 31.502C35.9393 31.52 37.279 31.6145 38.6186 32.0368Z" fill="#0A22C9"/>
<path d="M2.34454 51.5459C1.42903 51.4843 0.659969 50.7846 0.567591 49.8694C0.467704 48.9695 0.467704 48.0698 0.567591 47.17C0.659969 46.2626 1.42903 45.5626 2.33665 45.5012C7.30475 45.1858 12.4114 45.2166 17.6487 45.5395C18.1793 45.5703 18.5331 46.1009 18.387 46.6163C18.0179 47.8852 18.0179 49.1618 18.387 50.4385C18.5331 50.9537 18.1869 51.4768 17.6563 51.5151C12.5496 51.8535 7.45082 51.8613 2.34454 51.5459Z" fill="#FBAD3E"/>
<path d="M2.6598 50.6921C2.1292 50.6613 1.69097 50.246 1.63689 49.7462C1.5907 49.3308 1.57568 48.9232 1.57568 48.5233C1.57568 48.1157 1.5907 47.708 1.63689 47.3004C1.69097 46.7929 2.1292 46.393 2.6598 46.3545C7.24336 46.0623 12.1653 46.0777 17.2948 46.393C17.3256 46.393 17.3414 46.4315 17.3414 46.4623C17.2411 46.816 17.1642 47.162 17.1183 47.5158C17.1105 47.562 17.1026 47.6081 17.0951 47.662C17.0568 47.9465 17.0414 48.2388 17.0414 48.5233C17.0414 48.8156 17.0568 49.1078 17.1026 49.3924C17.1026 49.4461 17.1105 49.4923 17.1183 49.5385C17.1642 49.8845 17.2411 50.2306 17.3414 50.5689V50.592C17.3414 50.6151 17.3335 50.6613 17.2948 50.6613C12.4578 50.9842 7.53589 50.9919 2.6598 50.6921Z" fill="white"/>
<path d="M10.4657 47.978C8.04324 47.9626 5.61327 47.8934 3.19043 47.5935C5.61327 47.2858 8.04324 47.2167 10.4657 47.209C12.6884 47.2167 14.9032 47.2704 17.1184 47.5165C17.1105 47.5627 17.1026 47.6089 17.0951 47.6628C14.8878 47.9088 12.6805 47.9626 10.4657 47.978Z" fill="#D1DAFE"/>
<path d="M10.4657 49.8463C8.04324 49.8386 5.61327 49.7693 3.19043 49.4618C5.61327 49.1618 8.04324 49.0927 10.4657 49.085C12.6805 49.0927 14.8957 49.1465 17.1026 49.3927C17.1026 49.4464 17.1105 49.4926 17.1184 49.5388C14.9032 49.7847 12.6884 49.8386 10.4657 49.8463Z" fill="#D1DAFE"/>
<path d="M2.56866 45.0498C1.65315 44.9882 0.88409 44.2885 0.791713 43.3733C0.691825 42.4734 0.691825 41.5737 0.791713 40.6739C0.88409 39.7665 1.65315 39.0665 2.56077 39.0051C7.52887 38.6897 12.6355 38.7205 17.8729 39.0434C18.4035 39.0742 18.7572 39.6048 18.6111 40.1202C18.242 41.3891 18.242 42.6657 18.6111 43.9424C18.7572 44.4576 18.411 44.9807 17.8804 45.019C12.7737 45.3574 7.67494 45.3653 2.56866 45.0498Z" fill="#4269C4"/>
<path d="M2.88392 44.196C2.35332 44.1652 1.91509 43.7499 1.86101 43.2501C1.81483 42.8347 1.7998 42.4271 1.7998 42.0272C1.7998 41.6196 1.81483 41.2119 1.86101 40.8043C1.91509 40.2968 2.35332 39.8969 2.88392 39.8584C7.46749 39.5662 12.3894 39.5816 17.519 39.8969C17.5497 39.8969 17.5655 39.9354 17.5655 39.9662C17.4653 40.3199 17.3883 40.6659 17.3425 41.0197C17.3346 41.0659 17.3267 41.1121 17.3192 41.1659C17.2809 41.4504 17.2655 41.7427 17.2655 42.0272C17.2655 42.3195 17.2809 42.6117 17.3267 42.8963C17.3267 42.95 17.3346 42.9962 17.3425 43.0424C17.3883 43.3884 17.4653 43.7345 17.5655 44.0728V44.0959C17.5655 44.119 17.5576 44.1652 17.519 44.1652C12.6819 44.4881 7.76001 44.4958 2.88392 44.196Z" fill="white"/>
<path d="M10.6898 41.4819C8.26736 41.4666 5.83739 41.3973 3.41455 41.0974C5.83739 40.7897 8.26736 40.7206 10.6898 40.7129C12.9125 40.7206 15.1273 40.7743 17.3425 41.0204C17.3346 41.0666 17.3267 41.1128 17.3192 41.1667C15.1119 41.4127 12.9046 41.4666 10.6898 41.4819Z" fill="#D1DAFE"/>
<path d="M10.6898 43.3502C8.26736 43.3425 5.83739 43.2732 3.41455 42.9657C5.83739 42.6657 8.26736 42.5966 10.6898 42.5889C12.9046 42.5966 15.1198 42.6505 17.3267 42.8966C17.3267 42.9503 17.3346 42.9965 17.3425 43.0427C15.1273 43.2886 12.9125 43.3425 10.6898 43.3502Z" fill="#D1DAFE"/>
<path d="M52.871 48.6364L50.5905 47.8549C50.4798 47.8147 50.3557 47.8684 50.3021 47.9756L49.2423 50.1388C49.1518 50.3197 48.8903 50.3132 48.813 50.1254L46.318 44.1089L44.9463 40.7954L49.3027 38.9912L50.671 42.2946L53.1661 48.321C53.2465 48.5088 53.0654 48.7001 52.871 48.6364Z" fill="#AEC46E"/>
<path d="M50.671 42.2946C50.5335 42.3314 50.3927 42.3483 50.2484 42.3483C50.121 42.3483 50.0036 42.4053 49.9198 42.5025C49.903 42.5225 49.8795 42.5561 49.8561 42.6165C49.5844 43.2705 48.9472 43.6963 48.2329 43.6963C48.0015 43.6963 47.7701 43.6495 47.5554 43.5622C47.5052 43.5388 47.4515 43.5286 47.3978 43.5286C47.2871 43.5286 47.1832 43.5723 47.1027 43.6495C46.8813 43.8741 46.6097 44.0317 46.318 44.1089L44.9463 40.7954L49.3027 38.9912L50.671 42.2946Z" fill="#617F4D"/>
<path d="M46.7638 40.7954L45.3921 44.1089L42.897 50.1254C42.8199 50.3132 42.5583 50.3197 42.4678 50.1388L41.408 47.9756C41.3543 47.8684 41.2303 47.8147 41.1196 47.8549L38.8391 48.6364C38.6446 48.7001 38.4635 48.5088 38.544 48.321L41.0391 42.2946L42.4074 38.9912L46.7638 40.7954Z" fill="#AEC46E"/>
<path d="M46.7637 40.7954L45.3921 44.1089C45.1003 44.0317 44.832 43.8774 44.6141 43.6562C44.5268 43.5723 44.4229 43.5286 44.3122 43.5286C44.2586 43.5286 44.2049 43.5388 44.1512 43.5622C43.9399 43.6495 43.7085 43.6963 43.4772 43.6963C43.0647 43.6963 42.6689 43.5522 42.357 43.2905C42.1391 43.1163 41.958 42.8747 41.8506 42.6031C41.7869 42.4521 41.6327 42.3483 41.4616 42.3483C41.3174 42.3483 41.1732 42.3314 41.0391 42.2946L42.4074 38.9912L46.7637 40.7954Z" fill="#617F4D"/>
<path d="M52.8405 36.9656L52.8371 36.9691C52.5252 37.2808 52.4347 37.747 52.6024 38.1528V38.1563C52.8003 38.6357 52.6359 39.1723 52.2302 39.4574C52.163 39.5043 52.0926 39.5446 52.0121 39.5781L52.0088 39.5816C51.603 39.7492 51.338 40.1483 51.338 40.5877V40.5942C51.338 40.9296 51.1871 41.2281 50.949 41.4261C50.7579 41.5836 50.5131 41.6776 50.2481 41.6776C49.9161 41.6776 49.6076 41.8284 49.403 42.0766C49.3359 42.157 49.2823 42.251 49.2387 42.3516C49.0643 42.7741 48.6618 43.0256 48.2326 43.0256C48.0951 43.0256 47.9508 42.9989 47.8134 42.9417C47.6793 42.8848 47.5383 42.8579 47.3975 42.8579C47.1159 42.8579 46.8375 42.9686 46.6295 43.1766L46.6228 43.1833C46.2003 43.6059 45.5095 43.6059 45.0869 43.1833L45.0802 43.1766C44.7683 42.8648 44.3021 42.7741 43.8963 42.9417C43.7588 42.9989 43.6146 43.0256 43.4771 43.0256C43.2256 43.0256 42.9808 42.9385 42.7896 42.7775C42.6555 42.6702 42.5415 42.526 42.471 42.3516C42.3 41.9425 41.9043 41.6776 41.4616 41.6776H41.4582C40.8579 41.6776 40.3717 41.1912 40.3717 40.5909V40.5877C40.3717 40.1483 40.1067 39.7492 39.6976 39.5816L39.6942 39.5781C39.1376 39.35 38.876 38.7129 39.104 38.1595L39.1073 38.1528C39.275 37.747 39.1845 37.2808 38.8726 36.9691L38.8692 36.9656C38.4433 36.5397 38.4433 35.8523 38.8692 35.4296L38.8726 35.4264C39.1845 35.1144 39.275 34.6449 39.1073 34.2392L39.104 34.2324C38.9094 33.7528 39.0739 33.2196 39.4796 32.9345C39.5433 32.8843 39.6171 32.844 39.6942 32.8104H39.6976C40.1067 32.6395 40.3717 32.2437 40.3717 31.8011C40.3717 31.4993 40.4924 31.2276 40.6902 31.0298C40.8881 30.8352 41.1564 30.7111 41.4582 30.7111H41.4616C41.9043 30.7111 42.3 30.4462 42.471 30.0404V30.0371C42.7024 29.4804 43.3363 29.2187 43.893 29.4468L43.8963 29.4502C44.3021 29.6179 44.7649 29.5239 45.0768 29.2187C45.0802 29.2154 45.0802 29.2154 45.0835 29.2121H45.0869C45.5095 28.7861 46.2003 28.7861 46.6262 29.2121H46.6295C46.7101 29.2925 46.8039 29.3595 46.9045 29.41C47.1829 29.5541 47.5149 29.5742 47.8134 29.4502C47.9508 29.3931 48.0951 29.3664 48.2326 29.3664C48.4875 29.3664 48.7323 29.4535 48.9234 29.6179L48.9268 29.6212C49.0609 29.7252 49.1683 29.866 49.2387 30.0371V30.0404C49.4097 30.4462 49.8055 30.7111 50.2481 30.7111C50.5499 30.7111 50.8216 30.8352 51.0195 31.0298C51.2174 31.2276 51.338 31.4993 51.338 31.8011C51.338 32.0224 51.4017 32.2304 51.5225 32.4081C51.6366 32.5825 51.8075 32.7266 52.0088 32.8104H52.0155C52.5722 33.042 52.8338 33.6757 52.6057 34.2324L52.6024 34.2392C52.4347 34.6449 52.5252 35.1144 52.8371 35.4264L52.8405 35.4296C53.2664 35.8523 53.2664 36.5397 52.8405 36.9656Z" fill="#FBAD3E"/>
<path d="M50.9204 36.1983C50.9204 38.9948 48.653 41.2622 45.8565 41.2622C43.0564 41.2622 40.7891 38.9948 40.7891 36.1983C40.7891 33.3982 43.0564 31.1309 45.8565 31.1309C48.653 31.1309 50.9204 33.3982 50.9204 36.1983Z" fill="#FA990E"/>
<path d="M47.7073 36.8462C47.6098 36.9417 47.565 37.0781 47.5884 37.2125L47.8085 38.5063C47.867 38.8434 47.5124 39.1025 47.2084 38.9428L46.0472 38.3329C45.9263 38.2686 45.7822 38.2686 45.6614 38.3329L44.5021 38.9428C44.1981 39.1025 43.8415 38.8434 43.9 38.5063L44.1221 37.2125C44.1455 37.0781 44.1007 36.9417 44.0032 36.8462L43.0641 35.9304C42.8186 35.6908 42.953 35.2738 43.294 35.2251L44.5917 35.0361C44.7261 35.0166 44.843 34.9309 44.9034 34.8101L45.484 33.6332C45.636 33.3254 46.0744 33.3254 46.2264 33.6332L46.807 34.8101C46.8675 34.9309 46.9843 35.0166 47.1188 35.0361L48.4165 35.2251C48.7555 35.2738 48.8919 35.6908 48.6464 35.9304L47.7073 36.8462Z" fill="white"/>
<path d="M47.8099 38.5046C47.867 38.8432 47.5115 39.1014 47.2096 38.9439L46.046 38.3334C45.9252 38.2697 45.7811 38.2697 45.6603 38.3334L44.5033 38.9439C44.1981 39.1014 43.8426 38.8432 43.8996 38.5046L44.1209 37.2134C44.1276 37.1664 44.1276 37.1228 44.1209 37.0793C45.6972 37.0758 47.1392 36.7842 48.2694 36.2979L47.706 36.8445C47.6088 36.9417 47.5651 37.0793 47.5886 37.2134L47.8099 38.5046Z" fill="#D1DAFE"/>
<path d="M44.3294 12.8424C44.3725 13.3106 44.7256 13.6853 45.1868 13.7789C45.3883 13.8222 45.5829 13.8584 45.7846 13.8872V14.759C45.7846 15.1407 46.2459 15.3426 46.5195 15.0686L47.3915 14.2186C47.4778 14.1391 47.5931 14.0962 47.7155 14.1032C49.2862 14.1968 50.8713 14.0674 52.4563 13.75C52.8742 13.6709 53.1984 13.3325 53.2633 12.9145C53.5947 10.9118 53.5803 8.95893 53.2705 7.0427C53.1984 6.61035 52.8526 6.26453 52.4274 6.19241C50.0644 5.79629 47.6507 5.7889 45.1938 6.18503C44.7256 6.25714 44.3653 6.64623 44.3221 7.11447C44.1636 8.98778 44.1636 10.897 44.3294 12.8424Z" fill="#912010"/>
<path d="M43.4359 12.9274C43.479 13.3956 43.832 13.7703 44.2932 13.8638C44.4948 13.9071 44.6893 13.9434 44.8911 13.9722V14.844C44.8911 15.2256 45.3523 15.4276 45.626 15.1535L46.4979 14.3036C46.5843 14.2241 46.6995 14.1812 46.8219 14.1882C48.3927 14.2818 49.9777 14.1523 51.5627 13.835C51.9807 13.7558 52.3048 13.4174 52.3697 12.9995C52.7011 10.9967 52.6867 9.04389 52.377 7.12766C52.3048 6.69531 51.959 6.34949 51.5339 6.27737C49.1709 5.88125 46.7572 5.87386 44.3003 6.26999C43.832 6.3421 43.4718 6.73119 43.4285 7.19943C43.27 9.07274 43.27 10.9819 43.4359 12.9274Z" fill="#B53016"/>
<path d="M43.3135 10.0967C43.3135 11.0332 43.3495 11.9696 43.4361 12.9279C43.4792 13.3962 43.8322 13.7708 44.2934 13.8644C44.495 13.9077 44.6895 13.9439 44.8913 13.9728V14.8445C44.8913 15.2262 45.3525 15.4281 45.6262 15.1541L46.4981 14.3042C46.5845 14.2246 46.6997 14.1817 46.8221 14.1888C48.3929 14.2823 49.9779 14.1529 51.5629 13.8356C51.9808 13.7564 52.305 13.418 52.3699 13C52.4202 12.6757 52.4707 12.3517 52.4996 12.0344C51.5196 12.4741 50.3742 12.719 49.1422 12.719C46.5845 12.719 44.3653 11.6527 43.3135 10.0967Z" fill="#912010"/>
<path d="M50.9705 7.97438C50.469 7.82077 49.9676 7.74046 49.4661 7.686C48.9647 7.62694 48.4633 7.60496 47.9618 7.60352C47.4604 7.60388 46.9589 7.6261 46.4575 7.68479C45.956 7.73913 45.4546 7.81992 44.9531 7.97438C45.4546 8.12872 45.956 8.20951 46.4575 8.26385C46.9589 8.32266 47.4604 8.34476 47.9618 8.34525C48.4633 8.3438 48.9647 8.32182 49.4661 8.26276C49.9676 8.20818 50.469 8.12787 50.9705 7.97438Z" fill="white"/>
<path d="M50.9705 9.88258C50.469 9.72897 49.9676 9.64866 49.4661 9.5942C48.9647 9.53515 48.4633 9.51317 47.9618 9.51172C47.4604 9.51208 46.9589 9.5343 46.4575 9.59299C45.956 9.64734 45.4546 9.72813 44.9531 9.88258C45.4546 10.0369 45.956 10.1177 46.4575 10.1721C46.9589 10.2309 47.4604 10.253 47.9618 10.2534C48.4633 10.252 48.9647 10.23 49.4661 10.171C49.9676 10.1164 50.469 10.0361 50.9705 9.88258Z" fill="white"/>
<path d="M47.983 11.7918C47.7306 11.6382 47.4781 11.5578 47.2256 11.5034C46.9731 11.4443 46.7206 11.4223 46.4681 11.4209C46.2156 11.4213 45.9631 11.4435 45.7106 11.5022C45.4581 11.5565 45.2056 11.6373 44.9531 11.7918C45.2056 11.9461 45.4581 12.0269 45.7106 12.0812C45.9631 12.14 46.2156 12.1621 46.4681 12.1626C46.7206 12.1612 46.9731 12.1392 47.2256 12.0801C47.4781 12.0256 47.7306 11.9453 47.983 11.7918Z" fill="white"/>
</svg>
