<svg width="54" height="54" viewBox="0 0 54 54" fill="none" xmlns="http://www.w3.org/2000/svg">
<path d="M52.6786 5.80268L47.5153 49.112C47.2434 51.3847 45.3163 53.0977 43.0271 53.0977H7.52462C4.81518 53.0977 2.71514 50.7345 3.03643 48.0496L8.19173 4.73185C8.45532 2.4591 10.3905 0.746094 12.6799 0.746094H48.1906C50.8999 0.746094 52.9999 3.10972 52.6786 5.80268Z" fill="#345EFF"/>
<path d="M52.6787 5.80268L52.1105 10.5709H7.5L8.19184 4.73185C8.46347 2.4591 10.3906 0.746094 12.68 0.746094H48.1988C50.9 0.746094 53 3.10972 52.6787 5.80268Z" fill="#1E293B"/>
<path d="M50.5704 5.80268L45.4069 49.112C45.1351 51.3847 43.2079 53.0977 40.9187 53.0977H5.42449C2.71505 53.0977 0.615209 50.7345 0.936297 48.0496L6.08335 4.73185C6.35498 2.4591 8.28211 0.746094 10.5716 0.746094H46.0822C48.7917 0.746094 50.8915 3.10972 50.5704 5.80268Z" fill="#88B7FF"/>
<path d="M15.7868 41.6397L15.113 49.1661C15.0509 49.6968 14.6065 50.0933 14.0711 50.0933H5.02902C4.40771 50.0933 3.92022 49.5533 3.99186 48.9367L4.66573 41.4056C4.72314 40.8799 5.17235 40.4785 5.70277 40.4785H14.7498C15.371 40.4785 15.8585 41.0185 15.7868 41.6397Z" fill="#AEC46E"/>
<path d="M29.4314 41.6397L28.7575 49.1661C28.6954 49.6968 28.251 50.0933 27.7157 50.0933H18.6735C18.0522 50.0933 17.5648 49.5533 17.6364 48.9367L18.3103 41.4056C18.3677 40.8799 18.8169 40.4785 19.3473 40.4785H28.3943C29.0155 40.4785 29.503 41.0185 29.4314 41.6397Z" fill="#345EFF"/>
<path d="M43.0764 41.6397L42.4025 49.1661C42.3404 49.6968 41.896 50.0933 41.3607 50.0933H32.3186C31.6973 50.0933 31.2098 49.5533 31.2814 48.9367L31.9553 41.4056C32.0127 40.8799 32.4619 40.4785 32.9923 40.4785H42.0393C42.6605 40.4785 43.148 41.0185 43.0764 41.6397Z" fill="#4269C4"/>
<path d="M47.0136 14.9388L44.5585 34.5418C44.4598 35.4558 43.6855 36.1394 42.7715 36.1394H6.75857C5.68794 36.1394 4.84792 35.2089 4.97157 34.1465L7.4182 14.5351C7.51692 13.6291 8.29119 12.9375 9.20519 12.9375H45.2181C46.297 12.9375 47.1288 13.868 47.0136 14.9388Z" fill="white"/>
<path d="M50.5705 5.80268L50.0021 10.5709H5.3916L6.08344 4.73185C6.35507 2.4591 8.2822 0.746094 10.5716 0.746094H46.0823C48.7918 0.746094 50.8916 3.10972 50.5705 5.80268Z" fill="#020617"/>
<path d="M12.0065 6.90841C12.8028 6.90841 13.4485 6.26281 13.4485 5.46641C13.4485 4.67002 12.8028 4.02441 12.0065 4.02441C11.2101 4.02441 10.5645 4.67002 10.5645 5.46641C10.5645 6.26281 11.2101 6.90841 12.0065 6.90841Z" fill="#1E293B"/>
<path d="M16.2262 6.90841C17.0226 6.90841 17.6682 6.26281 17.6682 5.46641C17.6682 4.67002 17.0226 4.02441 16.2262 4.02441C15.4298 4.02441 14.7842 4.67002 14.7842 5.46641C14.7842 6.26281 15.4298 6.90841 16.2262 6.90841Z" fill="#1E293B"/>
<path d="M20.4449 6.90841C21.2413 6.90841 21.8869 6.26281 21.8869 5.46641C21.8869 4.67002 21.2413 4.02441 20.4449 4.02441C19.6485 4.02441 19.0029 4.67002 19.0029 5.46641C19.0029 6.26281 19.6485 6.90841 20.4449 6.90841Z" fill="#1E293B"/>
<path d="M11.5909 7.41525C12.3873 7.41525 13.0329 6.76964 13.0329 5.97325C13.0329 5.17686 12.3873 4.53125 11.5909 4.53125C10.7945 4.53125 10.1489 5.17686 10.1489 5.97325C10.1489 6.76964 10.7945 7.41525 11.5909 7.41525Z" fill="white"/>
<path d="M15.8097 7.41525C16.6061 7.41525 17.2517 6.76964 17.2517 5.97325C17.2517 5.17686 16.6061 4.53125 15.8097 4.53125C15.0133 4.53125 14.3677 5.17686 14.3677 5.97325C14.3677 6.76964 15.0133 7.41525 15.8097 7.41525Z" fill="white"/>
<path d="M20.0294 7.41525C20.8258 7.41525 21.4714 6.76964 21.4714 5.97325C21.4714 5.17686 20.8258 4.53125 20.0294 4.53125C19.233 4.53125 18.5874 5.17686 18.5874 5.97325C18.5874 6.76964 19.233 7.41525 20.0294 7.41525Z" fill="white"/>
<path d="M45.8459 5.97309C44.4288 6.36064 43.0121 6.56295 41.595 6.70066C40.1779 6.84935 38.7612 6.90541 37.3441 6.90907C35.927 6.90785 34.5103 6.85178 33.0932 6.70371C31.6761 6.5666 30.2594 6.36247 28.8423 5.97309C30.2594 5.58371 31.6761 5.37957 33.0932 5.24246C34.5103 5.09439 35.927 5.03833 37.3441 5.03711C38.7612 5.04077 40.1779 5.09683 41.595 5.24551C43.0121 5.38323 44.4288 5.58553 45.8459 5.97309Z" fill="#1E293B"/>
<path d="M34.8499 20.7939V28.878C34.8499 29.5445 34.2964 30.0899 33.3835 30.5221C32.935 30.7322 32.3976 30.918 31.7957 31.0717C31.3311 31.1889 30.8302 31.2938 30.2969 31.3786C28.4265 31.6816 26.2126 31.7706 24.14 31.6412C20.4071 31.4149 17.1348 30.4981 17.1348 28.878V20.7939H34.8499Z" fill="#FA990E"/>
<path d="M38.5824 21.0509L26.8514 25.6972C26.2956 25.9164 25.6772 25.9164 25.1214 25.6972L13.402 21.0509C12.9519 20.8747 12.9519 20.2367 13.402 20.0607L25.1174 15.4104C25.6772 15.1874 26.2956 15.1874 26.8514 15.4104L38.5824 20.0567C39.0325 20.2367 39.0325 20.8747 38.5824 21.0509Z" fill="#FBAD3E"/>
<path d="M28.193 20.55C28.193 21.0703 27.2048 21.4928 25.9904 21.4928C24.7761 21.4928 23.791 21.0703 23.791 20.55C23.791 20.0298 24.7761 19.6113 25.9904 19.6113C27.2048 19.6113 28.193 20.0298 28.193 20.55Z" fill="#020617"/>
<path d="M25.9905 20.5527C25.4492 20.8557 24.8999 21.1345 24.3464 21.4092C23.7928 21.6799 23.2394 21.9505 22.6779 22.205C21.6396 22.6859 20.5892 23.1424 19.5308 23.5787C19.5389 24.2331 19.5266 24.8795 19.5227 25.534C19.5146 26.2692 19.4903 27.0046 19.4661 27.7398C19.4096 29.2104 19.3246 30.681 19.151 32.1514C18.9773 30.681 18.8965 29.2104 18.8358 27.7398C18.8117 27.0046 18.7874 26.2692 18.7793 25.534C18.7753 24.7986 18.7631 24.0676 18.7753 23.3322V23.3201C18.7793 23.1667 18.8763 23.0373 19.0096 22.9806C20.153 22.5242 21.3043 22.0878 22.4678 21.6799C23.0455 21.4698 23.6313 21.2798 24.217 21.0861C24.8028 20.8962 25.3926 20.7143 25.9905 20.5527Z" fill="#D1DAFE"/>
<path d="M20.4074 33.3229C20.4074 34.0056 17.8945 34.0056 17.8945 33.3229L18.5005 29.8688C18.2177 29.6668 18.0319 29.3356 18.0319 28.964C18.0319 28.3418 18.5328 27.8447 19.1509 27.8447C19.7731 27.8447 20.27 28.3418 20.27 28.964C20.27 29.3356 20.0882 29.6668 19.8014 29.8688L20.4074 33.3229Z" fill="#020617"/>
<path d="M33.817 52.9952C32.7864 52.9259 31.9207 52.1382 31.8168 51.1081C31.7043 50.0951 31.7043 49.0823 31.8168 48.0695C31.9207 47.0481 32.7864 46.2602 33.8081 46.1911C39.4003 45.836 45.1486 45.8707 51.0439 46.2342C51.6412 46.2689 52.0394 46.8661 51.875 47.4463C51.4595 48.8746 51.4595 50.3115 51.875 51.7487C52.0394 52.3286 51.6497 52.9175 51.0524 52.9606C45.3041 53.3414 39.5648 53.3503 33.817 52.9952Z" fill="#FBAD3E"/>
<path d="M34.1715 52.0348C33.5742 52.0001 33.0809 51.5326 33.0201 50.97C32.9681 50.5025 32.9512 50.0437 32.9512 49.5935C32.9512 49.1347 32.9681 48.6758 33.0201 48.217C33.0809 47.6457 33.5742 47.1956 34.1715 47.1522C39.3309 46.8234 44.8712 46.8407 50.6453 47.1956C50.6799 47.1956 50.6977 47.2389 50.6977 47.2735C50.5848 47.6717 50.4982 48.0612 50.4466 48.4594C50.4377 48.5114 50.4288 48.5634 50.4204 48.6241C50.3773 48.9442 50.3599 49.2733 50.3599 49.5935C50.3599 49.9226 50.3773 50.2514 50.4288 50.5718C50.4288 50.6323 50.4377 50.6843 50.4466 50.7363C50.4982 51.1258 50.5848 51.5153 50.6977 51.8961V51.9221C50.6977 51.9481 50.6888 52.0001 50.6453 52.0001C45.2005 52.3636 39.6602 52.3723 34.1715 52.0348Z" fill="white"/>
<path d="M42.9584 48.979C40.2315 48.9616 37.4963 48.8836 34.769 48.5461C37.4963 48.1997 40.2315 48.1219 42.9584 48.1133C45.4603 48.1219 47.9534 48.1824 50.4469 48.4595C50.438 48.5115 50.4291 48.5635 50.4206 48.6241C47.936 48.901 45.4514 48.9616 42.9584 48.979Z" fill="#D1DAFE"/>
<path d="M42.9584 51.0826C40.2315 51.0739 37.4963 50.9959 34.769 50.6498C37.4963 50.312 40.2315 50.2343 42.9584 50.2256C45.4514 50.2343 47.9449 50.2949 50.4291 50.572C50.4291 50.6324 50.438 50.6844 50.4469 50.7364C47.9534 51.0133 45.4603 51.0739 42.9584 51.0826Z" fill="#D1DAFE"/>
<path d="M35.2881 45.6837C34.2576 45.6144 33.3919 44.8267 33.2879 43.7966C33.1755 42.7836 33.1755 41.7708 33.2879 40.758C33.3919 39.7366 34.2576 38.9487 35.2793 38.8796C40.8715 38.5245 46.6198 38.5592 52.5151 38.9227C53.1124 38.9573 53.5106 39.5546 53.3462 40.1348C52.9306 41.563 52.9306 43 53.3462 44.4372C53.5106 45.0171 53.1209 45.6059 52.5236 45.649C46.7753 46.0299 41.036 46.0388 35.2881 45.6837Z" fill="#B53016"/>
<path d="M35.6427 44.7233C35.0454 44.6886 34.5521 44.2211 34.4913 43.6585C34.4393 43.191 34.4224 42.7322 34.4224 42.282C34.4224 41.8231 34.4393 41.3643 34.4913 40.9055C34.5521 40.3342 35.0454 39.884 35.6427 39.8407C40.8021 39.5118 46.3424 39.5292 52.1164 39.884C52.1511 39.884 52.1688 39.9274 52.1688 39.962C52.056 40.3602 51.9693 40.7497 51.9178 41.1479C51.9089 41.1999 51.9 41.2519 51.8916 41.3125C51.8484 41.6327 51.8311 41.9618 51.8311 42.282C51.8311 42.6111 51.8484 42.9399 51.9 43.2603C51.9 43.3208 51.9089 43.3728 51.9178 43.4247C51.9693 43.8143 52.056 44.2038 52.1688 44.5846V44.6106C52.1688 44.6366 52.16 44.6886 52.1164 44.6886C46.6717 45.0521 41.1314 45.0608 35.6427 44.7233Z" fill="white"/>
<path d="M44.4296 41.6674C41.7027 41.6501 38.9675 41.5721 36.2402 41.2346C38.9675 40.8882 41.7027 40.8104 44.4296 40.8018C46.9315 40.8104 49.4246 40.8709 51.918 41.1479C51.9092 41.1999 51.9003 41.2519 51.8918 41.3126C49.4072 41.5895 46.9226 41.6501 44.4296 41.6674Z" fill="#D1DAFE"/>
<path d="M44.4296 43.7711C41.7027 43.7624 38.9675 43.6844 36.2402 43.3382C38.9675 43.0005 41.7027 42.9227 44.4296 42.9141C46.9226 42.9227 49.4161 42.9834 51.9003 43.2605C51.9003 43.3209 51.9092 43.3729 51.918 43.4249C49.4246 43.7018 46.9315 43.7624 44.4296 43.7711Z" fill="#D1DAFE"/>
<path d="M1.80847 18.8263C4.8848 19.0554 8.08217 19.0416 11.3829 18.8209C11.9351 18.784 12.3869 18.3495 12.439 17.7986C12.6928 15.1156 12.7192 12.4854 12.4501 9.92371C12.3936 9.38507 11.9516 8.96173 11.4116 8.91908C8.19924 8.66527 4.9963 8.6643 1.8029 8.92034C1.27528 8.96264 0.839789 9.36918 0.770549 9.89395C0.421824 12.5369 0.426028 15.1897 0.771864 17.8497C0.840516 18.3777 1.27747 18.7868 1.80847 18.8263Z" fill="#3D5E2A"/>
<path d="M2.52332 18.8263C5.59965 19.0554 8.79701 19.0416 12.0978 18.8209C12.6499 18.784 13.1018 18.3495 13.1539 17.7986C13.4077 15.1156 13.434 12.4854 13.165 9.92371C13.1084 9.38507 12.6664 8.96173 12.1265 8.91908C8.91408 8.66527 5.71114 8.6643 2.51774 8.92034C1.99012 8.96264 1.55463 9.36918 1.48539 9.89395C1.13667 12.5369 1.14087 15.1897 1.48671 17.8497C1.55536 18.3777 1.99231 18.7868 2.52332 18.8263Z" fill="#AEC46E"/>
<path d="M1.48805 17.8486C1.55554 18.3784 1.99374 18.7877 2.52353 18.8263C5.60079 19.0572 8.79856 19.0429 12.0973 18.8214C12.6512 18.7828 13.1039 18.3494 13.1521 17.8004C13.2002 17.3188 13.2387 16.8372 13.2628 16.3556C12.1647 16.8468 10.9175 17.1262 9.59312 17.1262C5.20597 17.1262 1.64701 14.0681 1.64701 10.2926C1.64701 9.96995 1.67111 9.65697 1.72402 9.34375C1.5941 9.49801 1.51216 9.68566 1.48323 9.89282C1.13651 12.5366 1.14133 15.1902 1.48805 17.8486Z" fill="#617F4D"/>
<path d="M9.227 14.4493C8.33955 15.2022 7.38031 15.8299 6.34054 16.3227C5.83871 16.5648 5.26487 16.2334 5.20206 15.6863C5.06768 14.4581 5.05871 13.2391 5.19309 12.038C5.2559 11.4734 5.84746 11.1508 6.34951 11.4103C7.29977 11.9036 8.24106 12.5221 9.19111 13.2662C9.56776 13.5617 9.5857 14.1447 9.227 14.4493Z" fill="white"/>
<path d="M9.22691 14.4494C8.33946 15.2022 7.38022 15.8299 6.34045 16.3228C5.83862 16.5648 5.26478 16.2335 5.20197 15.6863C5.17505 15.4355 5.14835 15.1847 5.13916 14.9335C6.7079 14.9063 8.08843 14.1447 8.84151 12.9971C8.95816 13.0868 9.07459 13.1765 9.19102 13.2663C9.56767 13.5617 9.58561 14.1447 9.22691 14.4494Z" fill="#D1DAFE"/>
<path d="M42.3797 17.9741C42.4319 18.5409 42.8592 18.9944 43.4175 19.1076C43.6615 19.16 43.897 19.2039 44.1412 19.2388V20.294C44.1412 20.756 44.6994 21.0004 45.0307 20.6687L46.0862 19.6399C46.1907 19.5437 46.3301 19.4917 46.4783 19.5002C48.3797 19.6135 50.2982 19.4568 52.2168 19.0727C52.7227 18.9769 53.1151 18.5673 53.1936 18.0614C53.5948 15.6371 53.5773 13.2734 53.2024 10.9539C53.1151 10.4305 52.6965 10.012 52.1819 9.92466C49.3216 9.44518 46.4 9.43624 43.426 9.91572C42.8592 10.003 42.4232 10.474 42.3708 11.0408C42.179 13.3083 42.179 15.6193 42.3797 17.9741Z" fill="#7F1A0F"/>
<path d="M41.2982 18.0766C41.3504 18.6434 41.7777 19.0969 42.3359 19.2102C42.5799 19.2626 42.8154 19.3064 43.0596 19.3413V20.3965C43.0596 20.8586 43.6179 21.103 43.9492 20.7713L45.0046 19.7425C45.1091 19.6462 45.2486 19.5943 45.3968 19.6028C47.2981 19.7161 49.2167 19.5594 51.1353 19.1753C51.6411 19.0794 52.0335 18.6698 52.1121 18.1639C52.5132 15.7397 52.4958 13.3759 52.1208 11.0564C52.0335 10.5331 51.6149 10.1145 51.1003 10.0272C48.24 9.54772 45.3184 9.53878 42.3445 10.0183C41.7777 10.1056 41.3416 10.5765 41.2893 11.1433C41.0974 13.4108 41.0974 15.7218 41.2982 18.0766Z" fill="#B53016"/>
<path d="M41.1499 14.6504C41.1499 15.7839 41.1935 16.9175 41.2983 18.0775C41.3505 18.6442 41.7778 19.0977 42.336 19.211C42.58 19.2634 42.8155 19.3072 43.0597 19.3422V20.3974C43.0597 20.8594 43.618 21.1038 43.9493 20.7721L45.0047 19.7433C45.1092 19.6471 45.2487 19.5951 45.3969 19.6036C47.2982 19.7169 49.2168 19.5602 51.1353 19.1761C51.6412 19.0803 52.0336 18.6706 52.1122 18.1647C52.1731 17.7721 52.2342 17.3799 52.2691 16.9958C51.083 17.5281 49.6965 17.8245 48.2052 17.8245C45.1092 17.8245 42.4231 16.5338 41.1499 14.6504Z" fill="#912010"/>
<path d="M50.4184 12.0817C49.8115 11.8958 49.2045 11.7986 48.5975 11.7327C47.9905 11.6612 47.3836 11.6346 46.7766 11.6328C46.1696 11.6333 45.5627 11.6601 44.9557 11.7312C44.3487 11.797 43.7417 11.8948 43.1348 12.0817C43.7417 12.2685 44.3487 12.3663 44.9557 12.4321C45.5627 12.5033 46.1696 12.53 46.7766 12.5306C47.3836 12.5289 47.9905 12.5023 48.5975 12.4308C49.2045 12.3647 49.8115 12.2675 50.4184 12.0817Z" fill="white"/>
<path d="M50.4184 14.3923C49.8115 14.2063 49.2045 14.1091 48.5975 14.0432C47.9905 13.9717 47.3836 13.9451 46.7766 13.9434C46.1696 13.9438 45.5627 13.9707 44.9557 14.0417C44.3487 14.1075 43.7417 14.2053 43.1348 14.3923C43.7417 14.5791 44.3487 14.6769 44.9557 14.7427C45.5627 14.8138 46.1696 14.8406 46.7766 14.8412C47.3836 14.8394 47.9905 14.8128 48.5975 14.7413C49.2045 14.6753 49.8115 14.5781 50.4184 14.3923Z" fill="white"/>
<path d="M46.8023 16.7028C46.4967 16.5169 46.191 16.4197 45.8854 16.3537C45.5798 16.2823 45.2742 16.2557 44.9685 16.2539C44.6629 16.2543 44.3573 16.2812 44.0517 16.3523C43.746 16.4181 43.4404 16.5159 43.1348 16.7028C43.4404 16.8896 43.746 16.9874 44.0517 17.0532C44.3573 17.1244 44.6629 17.1511 44.9685 17.1517C45.2742 17.15 45.5798 17.1234 45.8854 17.0519C46.191 16.9858 46.4967 16.8886 46.8023 16.7028Z" fill="white"/>
</svg>
