<svg width="16" height="17" viewBox="0 0 16 17" fill="none" xmlns="http://www.w3.org/2000/svg">
<g clip-path="url(#clip0_1865_45555)">
<path d="M8.5978 2.87156C8.48549 2.644 8.25373 2.49994 7.99997 2.49994C7.74621 2.49994 7.51445 2.644 7.40215 2.87156L5.71605 6.28797L1.94582 6.83582C1.6947 6.87231 1.48607 7.0482 1.40765 7.28954C1.32923 7.53088 1.39463 7.79582 1.57634 7.97295L4.30451 10.6322L3.66048 14.3872C3.61758 14.6374 3.72039 14.8901 3.92569 15.0393C4.13099 15.1884 4.40316 15.2081 4.62778 15.09L7.99997 13.3172L11.3722 15.09C11.5968 15.2081 11.869 15.1884 12.0743 15.0393C12.2796 14.8901 12.3824 14.6374 12.3395 14.3872L11.6954 10.6322L14.4236 7.97295C14.6053 7.79582 14.6707 7.53088 14.5923 7.28954C14.5139 7.0482 14.3052 6.87231 14.0541 6.83582L10.2839 6.28797L8.5978 2.87156Z" fill="#FAAD14"/>
</g>
<defs>
<clipPath id="clip0_1865_45555">
<rect width="13.3333" height="13.3333" fill="white" transform="translate(1.33337 2.16663)"/>
</clipPath>
</defs>
</svg>
