<svg width="24" height="24" viewBox="0 0 24 24" fill="none" xmlns="http://www.w3.org/2000/svg">
<path opacity="0.4" d="M17 9C15 9 14 8 14 6V3H8C6 3 5 4 5 6V18C5 20 6 21 8 21H17C19 21 20 20 20 18V9H17Z" fill="#24262D"/>
<path d="M17 9H20L14 3V6C14 8 15 9 17 9Z" fill="#24262D"/>
<path d="M15 13.25H13.25V11.5C13.25 11.086 12.914 10.75 12.5 10.75C12.086 10.75 11.75 11.086 11.75 11.5V13.25H10C9.586 13.25 9.25 13.586 9.25 14C9.25 14.414 9.586 14.75 10 14.75H11.75V16.5C11.75 16.914 12.086 17.25 12.5 17.25C12.914 17.25 13.25 16.914 13.25 16.5V14.75H15C15.414 14.75 15.75 14.414 15.75 14C15.75 13.586 15.414 13.25 15 13.25Z" fill="#24262D"/>
</svg>
