<svg width="23" height="18" viewBox="0 0 23 18" fill="none" xmlns="http://www.w3.org/2000/svg">
<mask id="mask0_2489_15536" style="mask-type:luminance" maskUnits="userSpaceOnUse" x="0" y="0" width="23" height="18">
<rect y="0.836739" width="22.8571" height="16.3265" rx="2.28571" fill="white"/>
</mask>
<g mask="url(#mask0_2489_15536)">
<rect y="0.836739" width="22.8571" height="16.3265" fill="#EE343C"/>
<path fill-rule="evenodd" clip-rule="evenodd" d="M10.2376 4.54371C9.98079 4.2869 9.57842 4.24705 9.27623 4.44851L9.25568 4.46221C8.76893 4.78671 8.81433 5.516 9.33758 5.77762L9.9683 6.09298C10.1962 6.20693 10.3402 6.43986 10.3402 6.69466C10.3402 7.06617 10.039 7.36735 9.66747 7.36735H9.43158C9.3133 7.36735 9.19664 7.33981 9.09085 7.28691L7.54555 6.51426C7.26445 6.37371 6.92496 6.4288 6.70273 6.65103C6.35033 7.00343 6.44674 7.59751 6.89249 7.82038L7.43233 8.0903C7.75803 8.25315 7.78629 8.70711 7.4833 8.9091C7.13174 9.14348 7.23905 9.6859 7.65337 9.76876L8.11209 9.86051C8.55253 9.9486 8.68129 10.5163 8.32196 10.7858L7.91127 11.0938C7.64334 11.2947 7.78546 11.7211 8.12038 11.7211C8.14888 11.7211 8.17726 11.7176 8.20491 11.7107L9.23493 11.4532C9.62549 11.3555 9.93153 11.7898 9.70822 12.1248C9.51309 12.4175 9.72291 12.8095 10.0747 12.8095H10.551C10.7501 12.8095 10.9268 12.9369 10.9898 13.1258C11.1304 13.5475 11.7268 13.5475 11.8674 13.1258C11.9303 12.9369 12.1071 12.8095 12.3062 12.8095H12.7825C13.1343 12.8095 13.3441 12.4175 13.149 12.1248C12.9257 11.7898 13.2317 11.3555 13.6223 11.4532L14.6523 11.7107C14.6799 11.7176 14.7083 11.7211 14.7368 11.7211C15.0717 11.7211 15.2138 11.2947 14.9459 11.0938L14.5352 10.7858C14.1759 10.5163 14.3046 9.9486 14.7451 9.86051L15.2038 9.76876C15.6181 9.6859 15.7254 9.14348 15.3739 8.9091C15.0709 8.70711 15.0992 8.25315 15.4249 8.0903L15.9647 7.82038C16.4104 7.59751 16.5069 7.00343 16.1545 6.65103C15.9322 6.4288 15.5927 6.37371 15.3116 6.51426L13.7663 7.28691C13.6605 7.33981 13.5439 7.36735 13.4256 7.36735H13.1897C12.8182 7.36735 12.517 7.06617 12.517 6.69466C12.517 6.43986 12.6608 6.20701 12.8887 6.09306C13.0874 5.99371 13.3057 5.88459 13.5196 5.77762C14.0429 5.51599 14.0883 4.78671 13.6015 4.46221L13.581 4.44851C13.2788 4.24705 12.8764 4.2869 12.6196 4.54371L11.9673 5.19594C11.6698 5.49349 11.1874 5.49349 10.8898 5.19594L10.2376 4.54371Z" fill="#262626"/>
</g>
</svg>
